SplineFontDB: 3.2
FontName: Sawasdee-Bold
FullName: Sawasdee Bold
FamilyName: Sawasdee
Weight: Bold
Copyright: Copyright (c) 2007 Pol Udomwittayanukul. All rights reserved.
Version: 003.005
ItalicAngle: 0
UnderlinePosition: -153
UnderlineWidth: 102
Ascent: 1536
Descent: 512
InvalidEm: 0
LayerCount: 3
Layer: 0 0 "Back" 1
Layer: 1 0 "Fore" 0
Layer: 2 1 "Quad" 0
XUID: [1021 180 1442959360 14105406]
UniqueID: 4256560
FSType: 0
OS2Version: 4
OS2_WeightWidthSlopeOnly: 0
OS2_UseTypoMetrics: 1
CreationTime: 1178430034
ModificationTime: 1588320772
PfmFamily: 17
TTFWeight: 700
TTFWidth: 5
LineGap: 0
VLineGap: 0
OS2TypoAscent: 2368
OS2TypoAOffset: 0
OS2TypoDescent: -848
OS2TypoDOffset: 0
OS2TypoLinegap: 0
OS2WinAscent: 0
OS2WinAOffset: 1
OS2WinDescent: 0
OS2WinDOffset: 1
HheadAscent: 2368
HheadAOffset: 0
HheadDescent: -848
HheadDOffset: 0
OS2Vendor: 'PfEd'
Lookup: 4 0 1 "'liga' Standard Ligatures in Latin lookup 0" { "'liga' Standard Ligatures in Latin lookup 0"  } ['liga' ('latn' <'dflt' > ) ]
Lookup: 4 0 0 "'frac' Diagonal Fractions in Latin lookup 42" { "'frac' Diagonal Fractions in Latin lookup 42"  } ['frac' ('latn' <'dflt' > ) ]
Lookup: 6 0 0 "'ccmp' Thai Tone Tilde Reordering" { "'ccmp' Thai Tone Tilde Reordering"  } ['ccmp' ('DFLT' <'dflt' > 'latn' <'dflt' > 'thai' <'KUY ' 'MLY ' 'PAL ' 'SAN ' 'THA ' 'dflt' > ) ]
Lookup: 6 0 0 "'ccmp' Thai Tone Macron Reordering" { "'ccmp' Thai Tone Macron Reordering"  } ['ccmp' ('DFLT' <'dflt' > 'latn' <'dflt' > 'thai' <'KUY ' 'MLY ' 'PAL ' 'SAN ' 'THA ' 'dflt' > ) ]
Lookup: 6 0 0 "'ccmp' Thai Below Vowel Macron Reordering" { "'ccmp' Thai Below Vowel Macron Reordering"  } ['ccmp' ('DFLT' <'dflt' > 'latn' <'dflt' > 'thai' <'KUY ' 'MLY ' 'PAL ' 'SAN ' 'THA ' 'dflt' > ) ]
Lookup: 4 0 0 "'ccmp' Patani Malay Ligatures" { "'ccmp' Patani Malay Ligatures"  } ['ccmp' ('DFLT' <'dflt' > 'thai' <'KUY ' 'MLY ' 'PAL ' 'SAN ' 'THA ' 'dflt' > ) ]

StartChar: exclam
Encoding: 33 33 1
Width: 570
VWidth: 2982
Flags: W
HStem: -11 237<195.323 378.509>
VStem: 168 238<16.3232 198.916> 190 193<979.624 1489> 222 130<352 861.376>
LayerCount: 3
Fore
SplineSet
286 226 m 0xc0
 352 226 406 173 406 107 c 0
 406 43 352 -11 286 -11 c 0
 222 -11 168 43 168 107 c 0
 168 173 222 226 286 226 c 0xc0
352 352 m 1x90
 222 352 l 1x90
 190 1489 l 1
 383 1489 l 1xa0
 352 352 l 1x90
EndSplineSet
Validated: 1
Layer: 2
SplineSet
286 226 m 0,0,1
 336 226 336 226 371 191 c 128,-1,2
 406 156 406 156 406 107 c 0,3,4
 406 59 406 59 370.5 24 c 128,-1,5
 335 -11 335 -11 286 -11 c 0,6,7
 238 -11 238 -11 203 24 c 128,-1,8
 168 59 168 59 168 107 c 0,9,10
 168 156 168 156 203 191 c 128,-1,11
 238 226 238 226 286 226 c 0,0,1
352 352 m 1,12,-1
 222 352 l 1,13,-1
 190 1489 l 1,14,-1
 383 1489 l 1,15,-1
 352 352 l 1,12,-1
EndSplineSet
EndChar

StartChar: quotedbl
Encoding: 34 34 2
Width: 762
VWidth: 2982
Flags: W
HStem: 1128 459<199 325 438 564>
VStem: 199 126<1128 1310.78> 438 126<1128 1310.78>
LayerCount: 3
Fore
SplineSet
325 1128 m 1
 199 1128 l 1
 164 1587 l 1
 361 1587 l 1
 325 1128 l 1
564 1128 m 1
 438 1128 l 1
 403 1587 l 1
 600 1587 l 1
 564 1128 l 1
EndSplineSet
Validated: 1
Layer: 2
SplineSet
325 1128 m 1,0,-1
 199 1128 l 1,1,-1
 164 1587 l 1,2,-1
 361 1587 l 1,3,-1
 325 1128 l 1,0,-1
564 1128 m 1,4,-1
 438 1128 l 1,5,-1
 403 1587 l 1,6,-1
 600 1587 l 1,7,-1
 564 1128 l 1,4,-1
EndSplineSet
EndChar

StartChar: numbersign
Encoding: 35 35 3
Width: 1066
VWidth: 2982
Flags: W
HStem: -2 21G<58 231.128 477 645.128> 427 162<-36 171 372 587 788 1000> 904 162<64 282 487 698 904 1104> 1475 20G<426.779 598 842.918 1016>
DStem2: 58 -2 226 -2 0.242383 0.970181<40.7204 443.597 649.485 933.277 1140.14 1543.01> 477 -2 640 -2 0.243603 0.969875<39.7072 442.873 648.957 932.543 1139.84 1542.28>
LayerCount: 3
Fore
SplineSet
640 -2 m 1
 477 -2 l 1
 587 427 l 1
 336 427 l 1
 226 -2 l 1
 58 -2 l 1
 171 427 l 1
 -36 427 l 1
 -36 589 l 1
 208 589 l 1
 282 904 l 1
 64 904 l 1
 64 1066 l 1
 320 1066 l 1
 432 1495 l 1
 598 1495 l 1
 487 1066 l 1
 739 1066 l 1
 848 1495 l 1
 1016 1495 l 1
 904 1066 l 1
 1104 1066 l 1
 1104 904 l 1
 865 904 l 1
 788 589 l 1
 1000 589 l 1
 1000 427 l 1
 750 427 l 1
 640 -2 l 1
372 589 m 1
 622 589 l 1
 698 904 l 1
 446 904 l 1
 372 589 l 1
EndSplineSet
Validated: 1
Layer: 2
SplineSet
640 -2 m 1,0,-1
 477 -2 l 1,1,-1
 587 427 l 1,2,-1
 336 427 l 1,3,-1
 226 -2 l 1,4,-1
 58 -2 l 1,5,-1
 171 427 l 1,6,-1
 -36 427 l 1,7,-1
 -36 589 l 1,8,-1
 208 589 l 1,9,-1
 282 904 l 1,10,-1
 64 904 l 1,11,-1
 64 1066 l 1,12,-1
 320 1066 l 1,13,-1
 432 1495 l 1,14,-1
 598 1495 l 1,15,-1
 487 1066 l 1,16,-1
 739 1066 l 1,17,-1
 848 1495 l 1,18,-1
 1016 1495 l 1,19,-1
 904 1066 l 1,20,-1
 1104 1066 l 1,21,-1
 1104 904 l 1,22,-1
 865 904 l 1,23,-1
 788 589 l 1,24,-1
 1000 589 l 1,25,-1
 1000 427 l 1,26,-1
 750 427 l 1,27,-1
 640 -2 l 1,0,-1
372 589 m 1,28,-1
 622 589 l 1,29,-1
 698 904 l 1,30,-1
 446 904 l 1,31,-1
 372 589 l 1,28,-1
EndSplineSet
EndChar

StartChar: dollar
Encoding: 36 36 4
Width: 1066
VWidth: 2982
Flags: W
HStem: -15 158<356.714 463 624 724.985> 1343 159<397.354 463 624 698.447>
VStem: 43 156<325.255 467.746> 158 160<1027.78 1267.52> 463 159<-137 -7.07672 143 716 955 1337 1493.61 1634> 873 161<287.576 573.729>
LayerCount: 3
Fore
SplineSet
43 466 m 1xec
 199 485 l 1xec
 220 346 265 184 463 143 c 1
 463 786 l 1
 329 846 158 933 158 1141 c 0xdc
 158 1316 280 1471 463 1502 c 1
 463 1634 l 1
 622 1634 l 1
 622 1502 l 1
 875 1450 940 1229 953 1191 c 1
 806 1139 l 1
 797 1164 761 1298 624 1343 c 1
 624 891 l 1
 810 814 1034 716 1034 448 c 0
 1034 203 846 32 624 -4 c 1
 624 -137 l 1
 463 -137 l 1
 463 -15 l 1
 271 11 87 134 43 466 c 1xec
622 716 m 1
 622 143 l 1
 761 177 873 284 873 440 c 0
 873 587 765 654 622 716 c 1
463 955 m 1
 463 1337 l 1
 374 1309 318 1231 318 1137 c 0xdc
 318 1053 374 1003 463 955 c 1
EndSplineSet
Validated: 1
Layer: 2
SplineSet
43 466 m 1,0,-1
 199 485 l 1,1,2
 206 437 206 437 215.5 399.5 c 128,-1,3
 225 362 225 362 244.5 317 c 128,-1,4
 264 272 264 272 290.5 240.5 c 128,-1,5
 317 209 317 209 361.5 182 c 128,-1,6
 406 155 406 155 463 143 c 1,7,-1
 463 786 l 1,8,9
 422 804 422 804 393 819 c 128,-1,10
 364 834 364 834 325 858 c 128,-1,11
 286 882 286 882 259.5 908.5 c 128,-1,12
 233 935 233 935 208 969.5 c 128,-1,13
 183 1004 183 1004 170.5 1047.5 c 128,-1,14
 158 1091 158 1091 158 1141 c 0,15,16
 158 1274 158 1274 243 1376.5 c 128,-1,17
 328 1479 328 1479 463 1502 c 1,18,-1
 463 1634 l 1,19,-1
 622 1634 l 1,20,-1
 622 1502 l 1,21,22
 674 1491 674 1491 719.5 1469 c 128,-1,23
 765 1447 765 1447 795.5 1425.5 c 128,-1,24
 826 1404 826 1404 854.5 1369 c 128,-1,25
 883 1334 883 1334 896.5 1314.5 c 128,-1,26
 910 1295 910 1295 926 1259 c 128,-1,27
 942 1223 942 1223 943.5 1218.5 c 128,-1,28
 945 1214 945 1214 953 1191 c 1,29,-1
 806 1139 l 2,30,31
 806 1140 806 1140 802.5 1149.5 c 128,-1,32
 799 1159 799 1159 796.5 1165.5 c 128,-1,33
 794 1172 794 1172 788.5 1185.5 c 128,-1,34
 783 1199 783 1199 777.5 1209 c 128,-1,35
 772 1219 772 1219 763 1233.5 c 128,-1,36
 754 1248 754 1248 744.5 1259 c 128,-1,37
 735 1270 735 1270 722 1283.5 c 128,-1,38
 709 1297 709 1297 694.5 1307 c 128,-1,39
 680 1317 680 1317 662 1326.5 c 128,-1,40
 644 1336 644 1336 624 1343 c 1,41,-1
 624 891 l 1,42,43
 675 870 675 870 706 856 c 128,-1,44
 737 842 737 842 785.5 816.5 c 128,-1,45
 834 791 834 791 864.5 768.5 c 128,-1,46
 895 746 895 746 930.5 711 c 128,-1,47
 966 676 966 676 986 639.5 c 128,-1,48
 1006 603 1006 603 1020 553.5 c 128,-1,49
 1034 504 1034 504 1034 448 c 0,50,51
 1034 359 1034 359 1001 279.5 c 128,-1,52
 968 200 968 200 912 143 c 128,-1,53
 856 86 856 86 782 48 c 128,-1,54
 708 10 708 10 624 -4 c 1,55,-1
 624 -137 l 1,56,-1
 463 -137 l 1,57,-1
 463 -15 l 1,58,59
 387 -5 387 -5 322 25 c 128,-1,60
 257 55 257 55 198.5 110 c 128,-1,61
 140 165 140 165 99.5 255.5 c 128,-1,62
 59 346 59 346 43 466 c 1,0,-1
622 716 m 1,63,-1
 622 143 l 1,64,65
 731 170 731 170 802 248.5 c 128,-1,66
 873 327 873 327 873 440 c 0,67,68
 873 541 873 541 810 601.5 c 128,-1,69
 747 662 747 662 622 716 c 1,63,-1
463 955 m 1,70,-1
 463 1337 l 1,71,72
 396 1316 396 1316 357 1262 c 128,-1,73
 318 1208 318 1208 318 1137 c 0,74,75
 318 1078 318 1078 354 1036 c 128,-1,76
 390 994 390 994 463 955 c 1,70,-1
EndSplineSet
EndChar

StartChar: percent
Encoding: 37 37 5
Width: 1452
VWidth: 2982
Flags: W
HStem: -17 156<985.153 1208.41> 0 21G<94 300.575> 453 156<985.153 1208.41> 882 156<259.898 483.371> 1352 156<259.898 483.371> 1473 20G<1167.43 1374>
VStem: 49 159<1087.84 1303.95> 534 160<1087.84 1303.95> 775 158<193.203 402.163> 1260 159<188.226 403.546>
DStem2: 94 0 286 0 0.588944 0.808174<113.077 1847.37>
LayerCount: 3
Fore
SplineSet
1419 295 m 0xb3c0
 1419 124 1273 -17 1097 -17 c 0
 920 -17 775 124 775 295 c 0
 775 468 920 609 1097 609 c 0
 1273 609 1419 468 1419 295 c 0xb3c0
933 295 m 0
 933 211 1006 139 1097 139 c 0
 1188 139 1260 211 1260 295 c 0
 1260 383 1188 453 1097 453 c 0
 1006 453 933 383 933 295 c 0
694 1196 m 0
 694 1023 549 882 372 882 c 0
 195 882 49 1023 49 1196 c 0
 49 1370 195 1508 372 1508 c 0x3bc0
 549 1508 694 1370 694 1196 c 0
208 1196 m 0
 208 1110 280 1038 372 1038 c 0
 463 1038 534 1110 534 1196 c 0
 534 1283 463 1352 372 1352 c 0
 280 1352 208 1283 208 1196 c 0
1182 1493 m 1x77c0
 1374 1493 l 1
 286 0 l 1
 94 0 l 1
 1182 1493 l 1x77c0
EndSplineSet
Validated: 1
Layer: 2
SplineSet
1419 295 m 0,0,1
 1419 167 1419 167 1324 75 c 128,-1,2
 1229 -17 1229 -17 1097 -17 c 0,3,4
 964 -17 964 -17 869.5 75 c 128,-1,5
 775 167 775 167 775 295 c 0,6,7
 775 425 775 425 869.5 517 c 128,-1,8
 964 609 964 609 1097 609 c 0,9,10
 1229 609 1229 609 1324 517 c 128,-1,11
 1419 425 1419 425 1419 295 c 0,0,1
933 295 m 0,12,13
 933 232 933 232 981 185.5 c 128,-1,14
 1029 139 1029 139 1097 139 c 128,-1,15
 1165 139 1165 139 1212.5 185 c 128,-1,16
 1260 231 1260 231 1260 295 c 0,17,18
 1260 361 1260 361 1212.5 407 c 128,-1,19
 1165 453 1165 453 1097 453 c 128,-1,20
 1029 453 1029 453 981 407 c 128,-1,21
 933 361 933 361 933 295 c 0,12,13
694 1196 m 128,-1,23
 694 1066 694 1066 599.5 974 c 128,-1,24
 505 882 505 882 372 882 c 128,-1,25
 239 882 239 882 144 974 c 128,-1,26
 49 1066 49 1066 49 1196 c 128,-1,27
 49 1326 49 1326 144 1417 c 128,-1,28
 239 1508 239 1508 372 1508 c 128,-1,29
 505 1508 505 1508 599.5 1417 c 128,-1,22
 694 1326 694 1326 694 1196 c 128,-1,23
208 1196 m 128,-1,31
 208 1131 208 1131 255.5 1084.5 c 128,-1,32
 303 1038 303 1038 372 1038 c 0,33,34
 440 1038 440 1038 487 1084.5 c 128,-1,35
 534 1131 534 1131 534 1196 c 128,-1,36
 534 1261 534 1261 487 1306.5 c 128,-1,37
 440 1352 440 1352 372 1352 c 0,38,39
 303 1352 303 1352 255.5 1306.5 c 128,-1,30
 208 1261 208 1261 208 1196 c 128,-1,31
1182 1493 m 1,40,-1
 1374 1493 l 1,41,-1
 286 0 l 1,42,-1
 94 0 l 1,43,-1
 1182 1493 l 1,40,-1
EndSplineSet
EndChar

StartChar: ampersand
Encoding: 38 38 6
Width: 1501
VWidth: 2982
Flags: W
HStem: -17 151<510.556 899.772> 0 21G<1181.23 1390> 1356 152<609.225 869.194>
VStem: 114 159<364.657 721.042> 408 156<1066.44 1309.47> 925 158<1132 1300.32> 1126 164<393.112 575>
DStem2: 622 1045 524 914 0.592199 -0.805792<40.8285 810.059 1020.37 1181.97>
LayerCount: 3
Fore
SplineSet
1126 575 m 1xbe
 1290 575 l 1
 1290 542 l 2
 1290 434 1258 336 1204 250 c 1
 1390 0 l 1
 1196 0 l 1x7e
 1100 130 l 1
 994 38 855 -17 703 -17 c 0
 380 -17 114 233 114 544 c 0
 114 765 248 955 440 1047 c 1
 419 1102 408 1155 408 1204 c 0
 408 1386 553 1508 741 1508 c 0
 918 1508 1083 1395 1083 1168 c 2
 1083 1132 l 1
 925 1132 l 1
 925 1168 l 2
 925 1318 820 1356 741 1356 c 0
 632 1356 564 1296 564 1204 c 0
 564 1162 579 1108 622 1045 c 1
 1100 391 l 1
 1119 436 1126 485 1126 542 c 2
 1126 575 l 1xbe
1008 252 m 1
 524 914 l 1
 374 848 273 705 273 542 c 0
 273 318 463 134 703 134 c 0xbe
 822 134 931 181 1008 252 c 1
EndSplineSet
Validated: 1
Layer: 2
SplineSet
1126 575 m 1,0,-1
 1290 575 l 1,1,-1
 1290 542 l 2,2,3
 1290 387 1290 387 1204 250 c 1,4,-1
 1390 0 l 1,5,-1
 1196 0 l 1,6,-1
 1100 130 l 1,7,8
 931 -17 931 -17 703 -17 c 0,9,10
 544 -17 544 -17 408.5 58 c 128,-1,11
 273 133 273 133 193.5 262 c 128,-1,12
 114 391 114 391 114 544 c 0,13,14
 114 707 114 707 203.5 842 c 128,-1,15
 293 977 293 977 440 1047 c 1,16,17
 408 1131 408 1131 408 1204 c 0,18,19
 408 1339 408 1339 503 1423.5 c 128,-1,20
 598 1508 598 1508 741 1508 c 0,21,22
 832 1508 832 1508 908 1471.5 c 128,-1,23
 984 1435 984 1435 1033.5 1356 c 128,-1,24
 1083 1277 1083 1277 1083 1168 c 2,25,-1
 1083 1132 l 1,26,-1
 925 1132 l 1,27,-1
 925 1168 l 2,28,29
 925 1221 925 1221 908 1260 c 128,-1,30
 891 1299 891 1299 862 1318.5 c 128,-1,31
 833 1338 833 1338 803.5 1347 c 128,-1,32
 774 1356 774 1356 741 1356 c 0,33,34
 660 1356 660 1356 612 1314.5 c 128,-1,35
 564 1273 564 1273 564 1204 c 0,36,37
 564 1130 564 1130 622 1045 c 2,38,-1
 1100 391 l 1,39,40
 1126 453 1126 453 1126 542 c 2,41,-1
 1126 575 l 1,0,-1
1008 252 m 1,42,-1
 524 914 l 1,43,44
 410 864 410 864 341.5 763.5 c 128,-1,45
 273 663 273 663 273 542 c 0,46,47
 273 373 273 373 398.5 253.5 c 128,-1,48
 524 134 524 134 703 134 c 0,49,50
 790 134 790 134 869.5 165.5 c 128,-1,51
 949 197 949 197 1008 252 c 1,42,-1
EndSplineSet
EndChar

StartChar: quoteright
Encoding: 8217 8217 7
Width: 476
VWidth: 2982
Flags: W
HStem: 1288 237<134.556 232.129>
VStem: 107 262<1316.87 1483.58>
LayerCount: 3
Fore
SplineSet
233 1288 m 1
 172 1288 107 1334 107 1406 c 0
 107 1471 161 1525 226 1525 c 0
 291 1525 369 1476 369 1367 c 0
 369 1182 211 1068 208 1066 c 2
 188 1059 l 1
 40 1059 l 1
 126 1124 l 2
 173 1160 215 1231 233 1288 c 1
EndSplineSet
Validated: 1
Layer: 2
SplineSet
233 1288 m 1,0,1
 184 1288 184 1288 145.5 1321 c 128,-1,2
 107 1354 107 1354 107 1406 c 0,3,4
 107 1455 107 1455 142 1490 c 128,-1,5
 177 1525 177 1525 226 1525 c 0,6,7
 281 1525 281 1525 325 1484 c 128,-1,8
 369 1443 369 1443 369 1367 c 0,9,10
 369 1315 369 1315 352 1265 c 128,-1,11
 335 1215 335 1215 313.5 1182 c 128,-1,12
 292 1149 292 1149 265.5 1120 c 128,-1,13
 239 1091 239 1091 226.5 1080.5 c 128,-1,14
 214 1070 214 1070 208 1066 c 2,15,-1
 188 1059 l 1,16,-1
 40 1059 l 1,17,-1
 126 1124 l 2,18,19
 160 1150 160 1150 189.5 1196.5 c 128,-1,20
 219 1243 219 1243 233 1288 c 1,0,1
EndSplineSet
EndChar

StartChar: parenleft
Encoding: 40 40 8
Width: 521
VWidth: 2982
Flags: W
VStem: 38 173<272.888 1086.2>
LayerCount: 3
Fore
SplineSet
38 683 m 0
 38 1053 145 1350 282 1610 c 1
 427 1610 l 1
 302 1327 211 1045 211 669 c 0
 211 280 314 -27 434 -305 c 1
 289 -305 l 1
 156 -36 38 286 38 683 c 0
EndSplineSet
Validated: 1
Layer: 2
SplineSet
38 683 m 0,0,1
 38 941 38 941 102.5 1166.5 c 128,-1,2
 167 1392 167 1392 282 1610 c 1,3,-1
 427 1610 l 1,4,5
 322 1371 322 1371 266.5 1151 c 128,-1,6
 211 931 211 931 211 669 c 0,7,8
 211 402 211 402 270 170.5 c 128,-1,9
 329 -61 329 -61 434 -305 c 1,10,-1
 289 -305 l 1,11,12
 173 -71 173 -71 105.5 169 c 128,-1,13
 38 409 38 409 38 683 c 0,0,1
EndSplineSet
EndChar

StartChar: parenright
Encoding: 41 41 9
Width: 521
VWidth: 2982
Flags: W
VStem: 312 171<279.234 1080.18>
LayerCount: 3
Fore
SplineSet
483 683 m 0
 483 286 361 -43 235 -305 c 1
 90 -305 l 1
 205 -34 312 280 312 669 c 0
 312 1045 215 1335 94 1610 c 1
 239 1610 l 1
 376 1352 483 1053 483 683 c 0
EndSplineSet
Validated: 1
Layer: 2
SplineSet
483 683 m 0,0,1
 483 412 483 412 415 170 c 128,-1,2
 347 -72 347 -72 235 -305 c 1,3,-1
 90 -305 l 1,4,5
 193 -62 193 -62 252.5 170.5 c 128,-1,6
 312 403 312 403 312 669 c 0,7,8
 312 929 312 929 255 1151 c 128,-1,9
 198 1373 198 1373 94 1610 c 1,10,-1
 239 1610 l 1,11,12
 483 1150 483 1150 483 683 c 0,0,1
EndSplineSet
EndChar

StartChar: asterisk
Encoding: 42 42 10
Width: 982
VWidth: 2982
Flags: W
HStem: 1173 629
VStem: 410 165<1602 1802>
DStem2: 235 1265 367 1173 0.560848 0.827919<0 222.523> 624 1450 493 1359 0.557786 -0.829985<2.45872 223.828>
LayerCount: 3
Fore
SplineSet
410 1802 m 1
 575 1802 l 1
 575 1602 l 1
 788 1654 l 1
 826 1497 l 1
 624 1450 l 1
 750 1265 l 1
 618 1173 l 1
 493 1359 l 1
 367 1173 l 1
 235 1265 l 1
 359 1450 l 1
 158 1497 l 1
 197 1654 l 1
 410 1602 l 1
 410 1802 l 1
EndSplineSet
Validated: 1
Layer: 2
SplineSet
410 1802 m 1,0,-1
 575 1802 l 1,1,-1
 575 1602 l 1,2,-1
 788 1654 l 1,3,-1
 826 1497 l 1,4,-1
 624 1450 l 1,5,-1
 750 1265 l 1,6,-1
 618 1173 l 1,7,-1
 493 1359 l 1,8,-1
 367 1173 l 1,9,-1
 235 1265 l 1,10,-1
 359 1450 l 1,11,-1
 158 1497 l 1,12,-1
 197 1654 l 1,13,-1
 410 1602 l 1,14,-1
 410 1802 l 1,0,-1
EndSplineSet
EndChar

StartChar: plus
Encoding: 43 43 11
Width: 935
VWidth: 2982
Flags: W
HStem: 665 161<36 387 549 902>
VStem: 387 162<314 665 826 1179>
LayerCount: 3
Fore
SplineSet
549 314 m 1
 387 314 l 1
 387 665 l 1
 36 665 l 1
 36 826 l 1
 387 826 l 1
 387 1179 l 1
 549 1179 l 1
 549 826 l 1
 902 826 l 1
 902 665 l 1
 549 665 l 1
 549 314 l 1
EndSplineSet
Validated: 1
Layer: 2
SplineSet
549 314 m 1,0,-1
 387 314 l 1,1,-1
 387 665 l 1,2,-1
 36 665 l 1,3,-1
 36 826 l 1,4,-1
 387 826 l 1,5,-1
 387 1179 l 1,6,-1
 549 1179 l 1,7,-1
 549 826 l 1,8,-1
 902 826 l 1,9,-1
 902 665 l 1,10,-1
 549 665 l 1,11,-1
 549 314 l 1,0,-1
EndSplineSet
EndChar

StartChar: comma
Encoding: 44 44 12
Width: 570
VWidth: 2982
Flags: W
HStem: -242 466
VStem: 286 144<-100.912 -15>
LayerCount: 3
Fore
SplineSet
248 -242 m 1
 130 -242 l 1
 203 -184 286 -79 286 -15 c 1
 222 -13 168 38 168 105 c 0
 168 171 222 224 286 224 c 0
 356 224 430 171 430 64 c 0
 430 -148 248 -242 248 -242 c 1
EndSplineSet
Validated: 1
Layer: 2
SplineSet
248 -242 m 1,0,-1
 130 -242 l 1,1,2
 189 -195 189 -195 237.5 -127.5 c 128,-1,3
 286 -60 286 -60 286 -15 c 1,4,5
 237 -13 237 -13 202.5 21 c 128,-1,6
 168 55 168 55 168 105 c 0,7,8
 168 154 168 154 203 189 c 128,-1,9
 238 224 238 224 286 224 c 0,10,11
 343 224 343 224 386.5 181.5 c 128,-1,12
 430 139 430 139 430 64 c 0,13,14
 430 5 430 5 411.5 -48.5 c 128,-1,15
 393 -102 393 -102 366 -136 c 128,-1,16
 339 -170 339 -170 312 -195 c 128,-1,17
 285 -220 285 -220 266.5 -231 c 2,18,-1
 248 -242 l 1,0,-1
EndSplineSet
EndChar

StartChar: hyphen
Encoding: 45 45 13
Width: 899
VWidth: 2982
Flags: W
HStem: 517 162<107 795>
LayerCount: 3
Fore
SplineSet
795 679 m 1
 795 517 l 1
 107 517 l 1
 107 679 l 1
 795 679 l 1
EndSplineSet
Validated: 1
Layer: 2
SplineSet
795 679 m 1,0,-1
 795 517 l 1,1,-1
 107 517 l 1,2,-1
 107 679 l 1,3,-1
 795 679 l 1,0,-1
EndSplineSet
EndChar

StartChar: period
Encoding: 46 46 14
Width: 570
VWidth: 2982
Flags: W
HStem: -11 237<195.323 378.509>
VStem: 168 238<16.3232 198.916>
LayerCount: 3
Fore
SplineSet
286 226 m 0
 352 226 406 173 406 107 c 0
 406 43 352 -11 286 -11 c 0
 222 -11 168 43 168 107 c 0
 168 173 222 226 286 226 c 0
EndSplineSet
Validated: 1
Layer: 2
SplineSet
286 226 m 0,0,1
 336 226 336 226 371 191 c 128,-1,2
 406 156 406 156 406 107 c 0,3,4
 406 59 406 59 370.5 24 c 128,-1,5
 335 -11 335 -11 286 -11 c 0,6,7
 238 -11 238 -11 203 24 c 128,-1,8
 168 59 168 59 168 107 c 0,9,10
 168 156 168 156 203 191 c 128,-1,11
 238 226 238 226 286 226 c 0,0,1
EndSplineSet
EndChar

StartChar: slash
Encoding: 47 47 15
Width: 1168
VWidth: 2982
Flags: W
DStem2: -69 -36 130 -36 0.57887 0.81542<115.195 1918.68>
LayerCount: 3
Fore
SplineSet
1041 1529 m 1
 1241 1529 l 1
 130 -36 l 1
 -69 -36 l 1
 1041 1529 l 1
EndSplineSet
Validated: 1
Layer: 2
SplineSet
1041 1529 m 1,0,-1
 1241 1529 l 1,1,-1
 130 -36 l 1,2,-1
 -69 -36 l 1,3,-1
 1041 1529 l 1,0,-1
EndSplineSet
EndChar

StartChar: zero
Encoding: 48 48 16
Width: 1179
VWidth: 2877
Flags: W
HStem: -13 152<470.227 723.83> 1352 154<471.282 724.252>
VStem: 77 158<457.194 1027.58> 961 156<462.972 1026.7>
LayerCount: 3
Fore
SplineSet
598 -13 m 0
 284 -13 77 349 77 745 c 0
 77 1141 284 1506 598 1506 c 0
 908 1506 1117 1141 1117 745 c 0
 1117 349 908 -13 598 -13 c 0
235 745 m 0
 235 378 425 139 598 139 c 0
 765 139 961 374 961 745 c 0
 961 1113 767 1352 598 1352 c 0
 430 1352 235 1117 235 745 c 0
EndSplineSet
Validated: 1
Layer: 2
SplineSet
598 -13 m 0,0,1
 446 -13 446 -13 325 94.5 c 128,-1,2
 204 202 204 202 140.5 374 c 128,-1,3
 77 546 77 546 77 745 c 0,4,5
 77 893 77 893 115 1031 c 128,-1,6
 153 1169 153 1169 219.5 1274 c 128,-1,7
 286 1379 286 1379 385 1442.5 c 128,-1,8
 484 1506 484 1506 598 1506 c 0,9,10
 748 1506 748 1506 868.5 1398 c 128,-1,11
 989 1290 989 1290 1053 1117 c 128,-1,12
 1117 944 1117 944 1117 745 c 0,13,14
 1117 597 1117 597 1079 459.5 c 128,-1,15
 1041 322 1041 322 974.5 217.5 c 128,-1,16
 908 113 908 113 809.5 50 c 128,-1,17
 711 -13 711 -13 598 -13 c 0,0,1
235 745 m 0,18,19
 235 638 235 638 256 541.5 c 128,-1,20
 277 445 277 445 313 373 c 128,-1,21
 349 301 349 301 395.5 247.5 c 128,-1,22
 442 194 442 194 494 166.5 c 128,-1,23
 546 139 546 139 598 139 c 0,24,25
 648 139 648 139 699.5 166 c 128,-1,26
 751 193 751 193 798 246 c 128,-1,27
 845 299 845 299 881.5 371 c 128,-1,28
 918 443 918 443 939.5 540 c 128,-1,29
 961 637 961 637 961 745 c 0,30,31
 961 878 961 878 928 994.5 c 128,-1,32
 895 1111 895 1111 842.5 1187.5 c 128,-1,33
 790 1264 790 1264 726 1308 c 128,-1,34
 662 1352 662 1352 598 1352 c 128,-1,35
 534 1352 534 1352 470 1308.5 c 128,-1,36
 406 1265 406 1265 353.5 1189 c 128,-1,37
 301 1113 301 1113 268 996 c 128,-1,38
 235 879 235 879 235 745 c 0,18,19
EndSplineSet
EndChar

StartChar: one
Encoding: 49 49 17
Width: 1177
VWidth: 2880
Flags: W
HStem: 0 21G<513 673> 1486 20G<638.505 673>
VStem: 513 160<0 1233>
LayerCount: 3
Fore
SplineSet
513 1233 m 1
 378 1155 l 1
 297 1288 l 1
 673 1506 l 1
 673 0 l 1
 513 0 l 1
 513 1233 l 1
EndSplineSet
Validated: 1
Layer: 2
SplineSet
513 1233 m 1,0,-1
 378 1155 l 1,1,-1
 297 1288 l 1,2,-1
 673 1506 l 1,3,-1
 673 0 l 1,4,-1
 513 0 l 1,5,-1
 513 1233 l 1,0,-1
EndSplineSet
EndChar

StartChar: two
Encoding: 50 50 18
Width: 1177
VWidth: 2877
Flags: W
HStem: 0 154<242 1100> 1354 152<449.108 746.463>
VStem: 137 158<985 1186.21> 900 157<886.217 1191.3>
LayerCount: 3
Fore
SplineSet
1100 0 m 1
 77 0 l 1
 77 74 l 2
 77 585 900 662 900 1021 c 0
 900 1211 759 1354 600 1354 c 0
 436 1354 295 1211 295 1021 c 2
 295 985 l 1
 137 985 l 1
 137 1021 l 2
 137 1285 338 1506 598 1506 c 0
 855 1506 1057 1285 1057 1021 c 0
 1057 581 338 483 242 154 c 1
 1100 154 l 1
 1100 0 l 1
EndSplineSet
Validated: 1
Layer: 2
SplineSet
1100 0 m 1,0,-1
 77 0 l 1,1,-1
 77 74 l 2,2,3
 77 156 77 156 105 229 c 128,-1,4
 133 302 133 302 181 358.5 c 128,-1,5
 229 415 229 415 290.5 466.5 c 128,-1,6
 352 518 352 518 420.5 561.5 c 128,-1,7
 489 605 489 605 557 646.5 c 128,-1,8
 625 688 625 688 686.5 730 c 128,-1,9
 748 772 748 772 796 815.5 c 128,-1,10
 844 859 844 859 872 911.5 c 128,-1,11
 900 964 900 964 900 1021 c 0,12,13
 900 1161 900 1161 810.5 1257.5 c 128,-1,14
 721 1354 721 1354 600 1354 c 0,15,16
 475 1354 475 1354 385 1258 c 128,-1,17
 295 1162 295 1162 295 1021 c 2,18,-1
 295 985 l 1,19,-1
 137 985 l 1,20,-1
 137 1021 l 2,21,22
 137 1152 137 1152 197.5 1263 c 128,-1,23
 258 1374 258 1374 364.5 1440 c 128,-1,24
 471 1506 471 1506 598 1506 c 0,25,26
 724 1506 724 1506 830 1440 c 128,-1,27
 936 1374 936 1374 996.5 1262.5 c 128,-1,28
 1057 1151 1057 1151 1057 1021 c 0,29,30
 1057 931 1057 931 1017 852 c 128,-1,31
 977 773 977 773 912 713.5 c 128,-1,32
 847 654 847 654 767 599.5 c 128,-1,33
 687 545 687 545 603 494 c 128,-1,34
 519 443 519 443 446 393.5 c 128,-1,35
 373 344 373 344 317 282 c 128,-1,36
 261 220 261 220 242 154 c 1,37,-1
 1100 154 l 1,38,-1
 1100 0 l 1,0,-1
EndSplineSet
EndChar

StartChar: three
Encoding: 51 51 19
Width: 1179
VWidth: 2877
Flags: W
HStem: -13 152<439.867 763.236> 777 154<564 741.072> 1352 154<464.961 734.717>
VStem: 111 162<307.104 493> 213 159<1100 1261.57> 828 157<1010.71 1262.71> 927 156<303.796 616.679>
LayerCount: 3
Fore
SplineSet
111 493 m 1xf2
 273 493 l 1
 273 459 l 2
 273 284 421 139 600 139 c 0
 779 139 927 284 927 459 c 0xf2
 927 634 779 777 600 777 c 2
 564 777 l 1
 564 931 l 1
 600 931 l 2
 726 931 828 1012 828 1132 c 0
 828 1254 728 1352 600 1352 c 0
 472 1352 372 1254 372 1132 c 2
 372 1100 l 1
 213 1100 l 1
 213 1132 l 2
 213 1341 387 1506 600 1506 c 0
 812 1506 985 1341 985 1132 c 0xec
 985 1021 933 925 853 859 c 1
 989 777 1083 626 1083 459 c 0
 1083 197 865 -13 598 -13 c 0
 329 -13 111 197 111 459 c 2
 111 493 l 1xf2
EndSplineSet
Validated: 1
Layer: 2
SplineSet
111 493 m 1,0,-1
 273 493 l 1,1,-1
 273 459 l 2,2,3
 273 328 273 328 369.5 233.5 c 128,-1,4
 466 139 466 139 600 139 c 128,-1,5
 734 139 734 139 830.5 233.5 c 128,-1,6
 927 328 927 328 927 459 c 128,-1,7
 927 590 927 590 830.5 683.5 c 128,-1,8
 734 777 734 777 600 777 c 2,9,-1
 564 777 l 1,10,-1
 564 931 l 1,11,-1
 600 931 l 2,12,13
 696 931 696 931 762 987.5 c 128,-1,14
 828 1044 828 1044 828 1132 c 0,15,16
 828 1224 828 1224 762 1288 c 128,-1,17
 696 1352 696 1352 600 1352 c 128,-1,18
 504 1352 504 1352 438 1288 c 128,-1,19
 372 1224 372 1224 372 1132 c 2,20,-1
 372 1100 l 1,21,-1
 213 1100 l 1,22,-1
 213 1132 l 2,23,24
 213 1288 213 1288 326.5 1397 c 128,-1,25
 440 1506 440 1506 600 1506 c 128,-1,26
 760 1506 760 1506 872.5 1397 c 128,-1,27
 985 1288 985 1288 985 1132 c 0,28,29
 985 968 985 968 853 859 c 1,30,31
 957 796 957 796 1020 689 c 128,-1,32
 1083 582 1083 582 1083 459 c 0,33,34
 1083 330 1083 330 1018 221.5 c 128,-1,35
 953 113 953 113 841 50 c 128,-1,36
 729 -13 729 -13 598 -13 c 0,37,38
 396 -13 396 -13 253.5 125 c 128,-1,39
 111 263 111 263 111 459 c 2,40,-1
 111 493 l 1,0,-1
EndSplineSet
EndChar

StartChar: four
Encoding: 52 52 20
Width: 1177
VWidth: 2880
Flags: W
HStem: 2 21G<803 961> 267 154<258 803 961 1083>
VStem: 803 158<2 267 421 1119>
DStem2: -60 267 258 421 0.61444 0.788963<316.892 1202.46>
LayerCount: 3
Fore
SplineSet
803 421 m 1
 803 1119 l 1
 258 421 l 1
 803 421 l 1
961 2 m 1
 803 2 l 1
 803 267 l 1
 -60 267 l 1
 961 1578 l 1
 961 421 l 1
 1135 421 l 1
 1083 267 l 1
 961 267 l 1
 961 2 l 1
EndSplineSet
Validated: 1
Layer: 2
SplineSet
803 421 m 1,0,-1
 803 1119 l 1,1,-1
 258 421 l 1,2,-1
 803 421 l 1,0,-1
961 2 m 1,3,-1
 803 2 l 1,4,-1
 803 267 l 1,5,-1
 -60 267 l 1,6,-1
 961 1578 l 1,7,-1
 961 421 l 1,8,-1
 1135 421 l 1,9,-1
 1083 267 l 1,10,-1
 961 267 l 1,11,-1
 961 2 l 1,3,-1
EndSplineSet
EndChar

StartChar: five
Encoding: 53 53 21
Width: 1177
VWidth: 2877
Flags: W
HStem: -17 154<425.174 755.737> 933 148<429.061 755.737> 1339 154<320 936>
VStem: 963 158<347.828 718.824>
DStem2: 226 491 74 450 0.168296 -0.985736<0 212.248> 105 712 289 980 0.0867397 0.996231<282.95 643.286>
LayerCount: 3
Fore
SplineSet
593 933 m 0
 461 933 340 857 262 712 c 1
 105 712 l 1
 173 1493 l 1
 987 1493 l 1
 936 1339 l 1
 320 1339 l 1
 289 980 l 1
 374 1043 477 1081 593 1081 c 0
 891 1081 1121 831 1121 532 c 0
 1121 233 891 -17 593 -17 c 0
 327 -17 111 190 74 450 c 1
 67 491 l 1
 226 491 l 1
 231 461 l 1
 265 273 416 137 593 137 c 0
 792 137 963 309 963 534 c 0
 963 761 792 933 593 933 c 0
EndSplineSet
Validated: 1
Layer: 2
SplineSet
593 933 m 0,0,1
 493 933 493 933 406.5 876 c 128,-1,2
 320 819 320 819 262 712 c 1,3,-1
 105 712 l 1,4,-1
 173 1493 l 1,5,-1
 987 1493 l 1,6,-1
 936 1339 l 1,7,-1
 320 1339 l 1,8,-1
 289 980 l 1,9,10
 425 1081 425 1081 593 1081 c 0,11,12
 739 1081 739 1081 861 1006.5 c 128,-1,13
 983 932 983 932 1052 806 c 128,-1,14
 1121 680 1121 680 1121 532 c 128,-1,15
 1121 384 1121 384 1052 258 c 128,-1,16
 983 132 983 132 861 57.5 c 128,-1,17
 739 -17 739 -17 593 -17 c 0,18,19
 396 -17 396 -17 249 117.5 c 128,-1,20
 102 252 102 252 74 450 c 1,21,-1
 67 491 l 1,22,-1
 226 491 l 1,23,-1
 231 461 l 2,24,25
 257 320 257 320 358.5 228.5 c 128,-1,26
 460 137 460 137 593 137 c 0,27,28
 744 137 744 137 853.5 252 c 128,-1,29
 963 367 963 367 963 534 c 0,30,31
 963 702 963 702 853.5 817.5 c 128,-1,32
 744 933 744 933 593 933 c 0,0,1
EndSplineSet
EndChar

StartChar: six
Encoding: 54 54 22
Width: 1177
VWidth: 2877
Flags: W
HStem: -15 152<431.485 755.737> 940 150<509.602 755.737> 1475 20G<425 792>
VStem: 67 159<355.069 727.222> 963 158<355.069 726.376>
LayerCount: 3
Fore
SplineSet
963 542 m 0
 963 765 792 940 593 940 c 0
 396 940 226 765 226 542 c 0
 226 316 396 137 593 137 c 0
 792 137 963 316 963 542 c 0
67 542 m 0
 67 833 248 983 602 1495 c 1
 792 1495 l 1
 506 1083 l 1
 534 1088 564 1090 593 1090 c 0
 891 1090 1121 839 1121 542 c 0
 1121 242 891 -15 593 -15 c 0
 297 -15 67 242 67 542 c 0
EndSplineSet
Validated: 1
Layer: 2
SplineSet
963 542 m 0,0,1
 963 708 963 708 853.5 824 c 128,-1,2
 744 940 744 940 593 940 c 0,3,4
 444 940 444 940 335 824 c 128,-1,5
 226 708 226 708 226 542 c 0,6,7
 226 374 226 374 335 255.5 c 128,-1,8
 444 137 444 137 593 137 c 0,9,10
 744 137 744 137 853.5 255.5 c 128,-1,11
 963 374 963 374 963 542 c 0,0,1
67 542 m 0,12,13
 67 614 67 614 83.5 680.5 c 128,-1,14
 100 747 100 747 125.5 802.5 c 128,-1,15
 151 858 151 858 203.5 937.5 c 128,-1,16
 256 1017 256 1017 304.5 1083 c 128,-1,17
 353 1149 353 1149 441 1269 c 128,-1,18
 529 1389 529 1389 602 1495 c 1,19,-1
 792 1495 l 1,20,-1
 506 1083 l 1,21,22
 545 1090 545 1090 593 1090 c 0,23,24
 702 1090 702 1090 800.5 1046 c 128,-1,25
 899 1002 899 1002 969 928 c 128,-1,26
 1039 854 1039 854 1080 753 c 128,-1,27
 1121 652 1121 652 1121 542 c 0,28,29
 1121 394 1121 394 1052 266 c 128,-1,30
 983 138 983 138 861 61.5 c 128,-1,31
 739 -15 739 -15 593 -15 c 0,32,33
 448 -15 448 -15 326.5 61.5 c 128,-1,34
 205 138 205 138 136 266 c 128,-1,35
 67 394 67 394 67 542 c 0,12,13
EndSplineSet
EndChar

StartChar: seven
Encoding: 55 55 23
Width: 1179
VWidth: 2877
Flags: W
HStem: 0 21G<346 530.216> 1339 154<148 965>
DStem2: 346 0 521 0 0.418518 0.908208<73.2407 1475.15>
LayerCount: 3
Fore
SplineSet
148 1493 m 1
 1209 1493 l 1
 521 0 l 1
 346 0 l 1
 965 1339 l 1
 96 1339 l 1
 148 1493 l 1
EndSplineSet
Validated: 1
Layer: 2
SplineSet
148 1493 m 1,0,-1
 1209 1493 l 1,1,-1
 521 0 l 1,2,-1
 346 0 l 1,3,-1
 965 1339 l 1,4,-1
 96 1339 l 1,5,-1
 148 1493 l 1,0,-1
EndSplineSet
EndChar

StartChar: eight
Encoding: 56 56 24
Width: 1179
VWidth: 2877
Flags: W
HStem: -13 152<438.615 756.639> 777 154<463.766 731.287> 1352 154<464.274 729.72>
VStem: 111 158<303.796 614.957> 213 159<1016.94 1262.79> 822 158<1016.94 1262.79> 925 158<303.796 614.957>
LayerCount: 3
Fore
SplineSet
980 1141 m 0xec
 980 1030 927 931 846 865 c 1
 987 781 1083 632 1083 459 c 0
 1083 197 865 -13 598 -13 c 0
 329 -13 111 197 111 459 c 0xf2
 111 632 205 781 349 865 c 1
 267 931 213 1030 213 1141 c 0
 213 1345 387 1506 598 1506 c 0
 806 1506 980 1345 980 1141 c 0xec
269 459 m 0
 269 284 419 139 598 139 c 0
 777 139 925 284 925 459 c 0
 925 634 777 777 598 777 c 0
 419 777 269 634 269 459 c 0
598 931 m 0
 720 931 822 1027 822 1141 c 0
 822 1256 720 1352 598 1352 c 0
 472 1352 372 1256 372 1141 c 0xec
 372 1027 472 931 598 931 c 0
EndSplineSet
Validated: 1
Layer: 2
SplineSet
980 1141 m 0,0,1
 980 1060 980 1060 944 988 c 128,-1,2
 908 916 908 916 846 865 c 1,3,4
 954 800 954 800 1018.5 693 c 128,-1,5
 1083 586 1083 586 1083 459 c 0,6,7
 1083 330 1083 330 1018 221.5 c 128,-1,8
 953 113 953 113 841 50 c 128,-1,9
 729 -13 729 -13 598 -13 c 0,10,11
 396 -13 396 -13 253.5 125 c 128,-1,12
 111 263 111 263 111 459 c 0,13,14
 111 587 111 587 175 694 c 128,-1,15
 239 801 239 801 349 865 c 1,16,17
 286 916 286 916 249.5 988 c 128,-1,18
 213 1060 213 1060 213 1141 c 0,19,20
 213 1293 213 1293 326 1399.5 c 128,-1,21
 439 1506 439 1506 598 1506 c 0,22,23
 755 1506 755 1506 867.5 1399.5 c 128,-1,24
 980 1293 980 1293 980 1141 c 0,0,1
269 459 m 128,-1,26
 269 328 269 328 366.5 233.5 c 128,-1,27
 464 139 464 139 598 139 c 128,-1,28
 732 139 732 139 828.5 233.5 c 128,-1,29
 925 328 925 328 925 459 c 128,-1,30
 925 590 925 590 828.5 683.5 c 128,-1,31
 732 777 732 777 598 777 c 0,32,33
 463 777 463 777 366 683.5 c 128,-1,25
 269 590 269 590 269 459 c 128,-1,26
598 931 m 0,34,35
 689 931 689 931 755.5 993 c 128,-1,36
 822 1055 822 1055 822 1141 c 128,-1,37
 822 1227 822 1227 756 1289.5 c 128,-1,38
 690 1352 690 1352 598 1352 c 0,39,40
 504 1352 504 1352 438 1290 c 128,-1,41
 372 1228 372 1228 372 1141 c 0,42,43
 372 1055 372 1055 438 993 c 128,-1,44
 504 931 504 931 598 931 c 0,34,35
EndSplineSet
EndChar

StartChar: nine
Encoding: 57 57 25
Width: 1177
VWidth: 2877
Flags: W
HStem: 0 21G<396 762.5> 406 149<431.485 677.312> 1354 150<431.485 755.737>
VStem: 67 159<768.685 1139.34> 963 158<767.841 1139.34>
LayerCount: 3
Fore
SplineSet
226 953 m 0
 226 730 396 555 593 555 c 0
 792 555 963 730 963 953 c 0
 963 1179 792 1354 593 1354 c 0
 396 1354 226 1179 226 953 c 0
1121 953 m 0
 1121 662 938 513 587 0 c 1
 396 0 l 1
 681 412 l 1
 654 408 622 406 593 406 c 0
 297 406 67 656 67 953 c 0
 67 1254 297 1504 593 1504 c 0
 891 1504 1121 1254 1121 953 c 0
EndSplineSet
Validated: 1
Layer: 2
SplineSet
226 953 m 0,0,1
 226 787 226 787 335 671 c 128,-1,2
 444 555 444 555 593 555 c 0,3,4
 744 555 744 555 853.5 671 c 128,-1,5
 963 787 963 787 963 953 c 0,6,7
 963 1121 963 1121 853.5 1237.5 c 128,-1,8
 744 1354 744 1354 593 1354 c 0,9,10
 444 1354 444 1354 335 1237.5 c 128,-1,11
 226 1121 226 1121 226 953 c 0,0,1
1121 953 m 0,12,13
 1121 882 1121 882 1104.5 815 c 128,-1,14
 1088 748 1088 748 1062 692.5 c 128,-1,15
 1036 637 1036 637 984 558 c 128,-1,16
 932 479 932 479 883 412.5 c 128,-1,17
 834 346 834 346 747 226.5 c 128,-1,18
 660 107 660 107 587 0 c 1,19,-1
 396 0 l 1,20,-1
 681 412 l 1,21,22
 641 406 641 406 593 406 c 0,23,24
 448 406 448 406 326.5 480.5 c 128,-1,25
 205 555 205 555 136 680.5 c 128,-1,26
 67 806 67 806 67 953 c 0,27,28
 67 1102 67 1102 136 1228.5 c 128,-1,29
 205 1355 205 1355 326.5 1429.5 c 128,-1,30
 448 1504 448 1504 593 1504 c 0,31,32
 703 1504 703 1504 801 1460 c 128,-1,33
 899 1416 899 1416 969 1341.5 c 128,-1,34
 1039 1267 1039 1267 1080 1165.5 c 128,-1,35
 1121 1064 1121 1064 1121 953 c 0,12,13
EndSplineSet
EndChar

StartChar: colon
Encoding: 58 58 26
Width: 570
VWidth: 2982
Flags: W
HStem: -11 237<195.323 378.509> 790 240<195.323 378.509>
VStem: 168 238<16.3232 198.916 817.658 1002.68>
LayerCount: 3
Fore
SplineSet
286 226 m 0
 352 226 406 173 406 107 c 0
 406 43 352 -11 286 -11 c 0
 222 -11 168 43 168 107 c 0
 168 173 222 226 286 226 c 0
286 1030 m 0
 352 1030 406 976 406 912 c 0
 406 844 352 790 286 790 c 0
 222 790 168 844 168 912 c 0
 168 976 222 1030 286 1030 c 0
EndSplineSet
Validated: 1
Layer: 2
SplineSet
286 226 m 0,0,1
 336 226 336 226 371 191 c 128,-1,2
 406 156 406 156 406 107 c 0,3,4
 406 59 406 59 370.5 24 c 128,-1,5
 335 -11 335 -11 286 -11 c 0,6,7
 238 -11 238 -11 203 24 c 128,-1,8
 168 59 168 59 168 107 c 0,9,10
 168 156 168 156 203 191 c 128,-1,11
 238 226 238 226 286 226 c 0,0,1
286 1030 m 0,12,13
 335 1030 335 1030 370.5 995 c 128,-1,14
 406 960 406 960 406 912 c 0,15,16
 406 861 406 861 371 825.5 c 128,-1,17
 336 790 336 790 286 790 c 0,18,19
 238 790 238 790 203 825.5 c 128,-1,20
 168 861 168 861 168 912 c 0,21,22
 168 960 168 960 203 995 c 128,-1,23
 238 1030 238 1030 286 1030 c 0,12,13
EndSplineSet
EndChar

StartChar: semicolon
Encoding: 59 59 27
Width: 570
VWidth: 2982
Flags: W
HStem: 790 240<195.323 378.509>
VStem: 168 238<817.658 1002.68> 286 144<-100.912 -15>
LayerCount: 3
Fore
SplineSet
286 1030 m 0xa0
 352 1030 406 976 406 912 c 0xc0
 406 844 352 790 286 790 c 0xa0
 222 790 168 844 168 912 c 0xc0
 168 976 222 1030 286 1030 c 0xa0
286 224 m 0xa0
 356 224 430 171 430 64 c 0
 430 -148 248 -242 248 -242 c 1
 130 -242 l 1
 203 -184 286 -79 286 -15 c 1xa0
 222 -13 168 38 168 105 c 0xc0
 168 171 222 224 286 224 c 0xa0
EndSplineSet
Validated: 1
Layer: 2
SplineSet
286 1030 m 0,0,1
 335 1030 335 1030 370.5 995 c 128,-1,2
 406 960 406 960 406 912 c 0,3,4
 406 861 406 861 371 825.5 c 128,-1,5
 336 790 336 790 286 790 c 0,6,7
 238 790 238 790 203 825.5 c 128,-1,8
 168 861 168 861 168 912 c 0,9,10
 168 960 168 960 203 995 c 128,-1,11
 238 1030 238 1030 286 1030 c 0,0,1
286 224 m 0,12,13
 343 224 343 224 386.5 181.5 c 128,-1,14
 430 139 430 139 430 64 c 0,15,16
 430 5 430 5 411.5 -48.5 c 128,-1,17
 393 -102 393 -102 366 -136 c 128,-1,18
 339 -170 339 -170 312 -195 c 128,-1,19
 285 -220 285 -220 266.5 -231 c 2,20,-1
 248 -242 l 1,21,-1
 130 -242 l 1,22,23
 189 -195 189 -195 237.5 -127.5 c 128,-1,24
 286 -60 286 -60 286 -15 c 1,25,26
 237 -13 237 -13 202.5 21 c 128,-1,27
 168 55 168 55 168 105 c 0,28,29
 168 154 168 154 203 189 c 128,-1,30
 238 224 238 224 286 224 c 0,12,13
EndSplineSet
EndChar

StartChar: less
Encoding: 60 60 28
Width: 1179
VWidth: 2982
Flags: W
HStem: -2 21G<822.196 1166>
DStem2: -34 540 278 540 0.8534 0.521256<266.261 1041.71> 278 540 -34 540 0.853827 -0.520556<0 774.8>
LayerCount: 3
Fore
SplineSet
1166 -2 m 1
 855 -2 l 1
 -34 540 l 1
 855 1083 l 1
 1166 1083 l 1
 278 540 l 1
 1166 -2 l 1
EndSplineSet
Validated: 1
Layer: 2
SplineSet
1166 -2 m 1,0,-1
 855 -2 l 1,1,-1
 -34 540 l 1,2,-1
 855 1083 l 1,3,-1
 1166 1083 l 1,4,-1
 278 540 l 1,5,-1
 1166 -2 l 1,0,-1
EndSplineSet
EndChar

StartChar: equal
Encoding: 61 61 29
Width: 1078
VWidth: 2982
Flags: W
HStem: 396 161<107 974> 696 161<107 974>
LayerCount: 3
Fore
SplineSet
974 857 m 1
 974 696 l 1
 107 696 l 1
 107 857 l 1
 974 857 l 1
974 557 m 1
 974 396 l 1
 107 396 l 1
 107 557 l 1
 974 557 l 1
EndSplineSet
Validated: 1
Layer: 2
SplineSet
974 857 m 1,0,-1
 974 696 l 1,1,-1
 107 696 l 1,2,-1
 107 857 l 1,3,-1
 974 857 l 1,0,-1
974 557 m 1,4,-1
 974 396 l 1,5,-1
 107 396 l 1,6,-1
 107 557 l 1,7,-1
 974 557 l 1,4,-1
EndSplineSet
EndChar

StartChar: greater
Encoding: 62 62 30
Width: 1179
VWidth: 2982
Flags: W
HStem: -2 21G<15 359.768>
DStem2: 327 1083 15 1083 0.8534 -0.521256<0 775.454> 15 -2 327 -2 0.853827 0.520556<266.394 1041.19>
LayerCount: 3
Fore
SplineSet
327 -2 m 1
 15 -2 l 1
 904 540 l 1
 15 1083 l 1
 327 1083 l 1
 1215 540 l 1
 327 -2 l 1
EndSplineSet
Validated: 1
Layer: 2
SplineSet
327 -2 m 1,0,-1
 15 -2 l 1,1,-1
 904 540 l 1,2,-1
 15 1083 l 1,3,-1
 327 1083 l 1,4,-1
 1215 540 l 1,5,-1
 327 -2 l 1,0,-1
EndSplineSet
EndChar

StartChar: question
Encoding: 63 63 31
Width: 1183
VWidth: 2982
Flags: W
HStem: -13 226<479.453 662.547> 1352 154<458.588 769.864>
VStem: 177 156<1079 1227.25> 455 232<10.4598 188.314> 495 159<322 617.753> 867 156<1011.11 1254.36>
LayerCount: 3
Fore
SplineSet
571 213 m 0xf4
 636 213 687 161 687 98 c 0
 687 36 636 -13 571 -13 c 0
 506 -13 455 36 455 98 c 0
 455 161 506 213 571 213 c 0xf4
654 322 m 1xec
 495 322 l 1
 495 470 l 2
 495 818 867 942 867 1113 c 0
 867 1258 759 1352 620 1352 c 0
 448 1352 333 1222 333 1113 c 2
 333 1079 l 1
 177 1079 l 1
 177 1113 l 2
 177 1323 376 1506 620 1506 c 0
 850 1506 1023 1339 1023 1113 c 0
 1023 848 654 745 654 470 c 2
 654 322 l 1xec
EndSplineSet
Validated: 1
Layer: 2
SplineSet
571 213 m 128,-1,1
 620 213 620 213 653.5 179.5 c 128,-1,2
 687 146 687 146 687 98 c 0,3,4
 687 51 687 51 653.5 19 c 128,-1,5
 620 -13 620 -13 571 -13 c 128,-1,6
 522 -13 522 -13 488.5 19 c 128,-1,7
 455 51 455 51 455 98 c 0,8,9
 455 146 455 146 488.5 179.5 c 128,-1,0
 522 213 522 213 571 213 c 128,-1,1
654 322 m 1,10,-1
 495 322 l 1,11,-1
 495 470 l 2,12,13
 495 541 495 541 515.5 606 c 128,-1,14
 536 671 536 671 569 720.5 c 128,-1,15
 602 770 602 770 641.5 815 c 128,-1,16
 681 860 681 860 720.5 898 c 128,-1,17
 760 936 760 936 793 971 c 128,-1,18
 826 1006 826 1006 846.5 1042.5 c 128,-1,19
 867 1079 867 1079 867 1113 c 0,20,21
 867 1220 867 1220 796.5 1286 c 128,-1,22
 726 1352 726 1352 620 1352 c 0,23,24
 498 1352 498 1352 415.5 1276.5 c 128,-1,25
 333 1201 333 1201 333 1113 c 2,26,-1
 333 1079 l 1,27,-1
 177 1079 l 1,28,-1
 177 1113 l 2,29,30
 177 1217 177 1217 236.5 1307.5 c 128,-1,31
 296 1398 296 1398 398.5 1452 c 128,-1,32
 501 1506 501 1506 620 1506 c 0,33,34
 793 1506 793 1506 908 1394 c 128,-1,35
 1023 1282 1023 1282 1023 1113 c 0,36,37
 1023 1059 1023 1059 1002.5 1008.5 c 128,-1,38
 982 958 982 958 949.5 917 c 128,-1,39
 917 876 917 876 878 835.5 c 128,-1,40
 839 795 839 795 799.5 754.5 c 128,-1,41
 760 714 760 714 727.5 672 c 128,-1,42
 695 630 695 630 674.5 578 c 128,-1,43
 654 526 654 526 654 470 c 2,44,-1
 654 322 l 1,10,-1
EndSplineSet
EndChar

StartChar: at
Encoding: 64 64 32
Width: 2052
VWidth: 2982
Flags: W
HStem: -470 152<804.193 1278.8> -13 156<715.302 1019.24 1514.69 1693.68> 897 156<933.685 1241.95> 1352 156<804.193 1270.02>
VStem: 126 160<248.284 787.506> 463 163<233.661 572.132> 1327 119<465.312 602.25> 1790 158<269.684 803.008>
LayerCount: 3
Fore
SplineSet
1433 1041 m 1
 1598 1041 l 1
 1471 521 l 1
 1464 502 1446 440 1446 380 c 0
 1446 220 1542 141 1605 141 c 0
 1679 141 1790 242 1790 540 c 0
 1790 996 1442 1352 1038 1352 c 0
 632 1352 286 985 286 517 c 0
 286 47 632 -318 1038 -318 c 0
 1196 -318 1312 -269 1431 -197 c 1
 1513 -327 l 1
 1370 -414 1229 -470 1038 -470 c 0
 528 -470 126 -20 126 519 c 0
 126 1059 528 1508 1038 1508 c 0
 1540 1508 1948 1068 1948 540 c 0
 1948 109 1743 -15 1605 -15 c 0
 1471 -15 1361 85 1312 224 c 1
 1196 87 1027 -13 848 -13 c 0
 618 -13 463 154 463 385 c 0
 463 724 781 1053 1097 1053 c 0
 1229 1053 1332 998 1399 912 c 1
 1433 1041 l 1
1104 897 m 0
 873 897 626 636 626 387 c 0
 626 244 709 143 850 143 c 0
 1074 143 1327 396 1327 654 c 0
 1327 797 1245 897 1104 897 c 0
EndSplineSet
Validated: 1
Layer: 2
SplineSet
1433 1041 m 1,0,-1
 1598 1041 l 1,1,-1
 1471 521 l 1,2,3
 1446 453 1446 453 1446 380 c 0,4,5
 1446 270 1446 270 1498 205.5 c 128,-1,6
 1550 141 1550 141 1605 141 c 0,7,8
 1635 141 1635 141 1665.5 162.5 c 128,-1,9
 1696 184 1696 184 1725 228 c 128,-1,10
 1754 272 1754 272 1772 353 c 128,-1,11
 1790 434 1790 434 1790 540 c 0,12,13
 1790 707 1790 707 1729 858.5 c 128,-1,14
 1668 1010 1668 1010 1566 1117.5 c 128,-1,15
 1464 1225 1464 1225 1325.5 1288.5 c 128,-1,16
 1187 1352 1187 1352 1038 1352 c 0,17,18
 888 1352 888 1352 749.5 1286.5 c 128,-1,19
 611 1221 611 1221 509.5 1110.5 c 128,-1,20
 408 1000 408 1000 347 844.5 c 128,-1,21
 286 689 286 689 286 517 c 0,22,23
 286 344 286 344 347 188.5 c 128,-1,24
 408 33 408 33 509.5 -77.5 c 128,-1,25
 611 -188 611 -188 749.5 -253 c 128,-1,26
 888 -318 888 -318 1038 -318 c 0,27,28
 1149 -318 1149 -318 1240.5 -287.5 c 128,-1,29
 1332 -257 1332 -257 1431 -197 c 1,30,-1
 1513 -327 l 1,31,32
 1397 -398 1397 -398 1285 -434 c 128,-1,33
 1173 -470 1173 -470 1038 -470 c 0,34,35
 851 -470 851 -470 681 -390.5 c 128,-1,36
 511 -311 511 -311 390 -178 c 128,-1,37
 269 -45 269 -45 197.5 137.5 c 128,-1,38
 126 320 126 320 126 519 c 128,-1,39
 126 718 126 718 197.5 900.5 c 128,-1,40
 269 1083 269 1083 390 1216.5 c 128,-1,41
 511 1350 511 1350 681 1429 c 128,-1,42
 851 1508 851 1508 1038 1508 c 0,43,44
 1223 1508 1223 1508 1391.5 1430.5 c 128,-1,45
 1560 1353 1560 1353 1682 1222.5 c 128,-1,46
 1804 1092 1804 1092 1876 913.5 c 128,-1,47
 1948 735 1948 735 1948 540 c 0,48,49
 1948 416 1948 416 1925.5 317 c 128,-1,50
 1903 218 1903 218 1867.5 157.5 c 128,-1,51
 1832 97 1832 97 1785 56.5 c 128,-1,52
 1738 16 1738 16 1693.5 0.5 c 128,-1,53
 1649 -15 1649 -15 1605 -15 c 0,54,55
 1507 -15 1507 -15 1428.5 51 c 128,-1,56
 1350 117 1350 117 1312 224 c 1,57,58
 1221 117 1221 117 1099.5 52 c 128,-1,59
 978 -13 978 -13 848 -13 c 0,60,61
 677 -13 677 -13 570 99 c 128,-1,62
 463 211 463 211 463 385 c 0,63,64
 463 550 463 550 555 706 c 128,-1,65
 647 862 647 862 794.5 957.5 c 128,-1,66
 942 1053 942 1053 1097 1053 c 0,67,68
 1289 1053 1289 1053 1399 912 c 1,69,-1
 1433 1041 l 1,0,-1
1104 897 m 0,70,71
 1020 897 1020 897 932.5 852 c 128,-1,72
 845 807 845 807 778 736 c 128,-1,73
 711 665 711 665 668.5 571.5 c 128,-1,74
 626 478 626 478 626 387 c 0,75,76
 626 278 626 278 686 210.5 c 128,-1,77
 746 143 746 143 850 143 c 0,78,79
 932 143 932 143 1018.5 187 c 128,-1,80
 1105 231 1105 231 1172.5 301 c 128,-1,81
 1240 371 1240 371 1283.5 465.5 c 128,-1,82
 1327 560 1327 560 1327 654 c 0,83,84
 1327 763 1327 763 1267.5 830 c 128,-1,85
 1208 897 1208 897 1104 897 c 0,70,71
EndSplineSet
EndChar

StartChar: A
Encoding: 65 65 33
Width: 1380
VWidth: 2880
Flags: W
HStem: 2 21G<25 203.371 1179.49 1359> 444 154<453 938> 1488 20G<683.142 700.858>
DStem2: 25 2 195 2 0.404955 0.914337<68.8424 547.896 718.265 1284> 692 1508 694 1110 0.404955 -0.914337<364.716 364.716 1097.58 1577.85>
LayerCount: 3
Fore
SplineSet
453 598 m 1
 938 598 l 1
 694 1110 l 1
 453 598 l 1
380 444 m 1
 195 2 l 1
 25 2 l 1
 692 1508 l 1
 1359 2 l 1
 1188 2 l 1
 1000 444 l 1
 380 444 l 1
EndSplineSet
Validated: 1
Layer: 2
SplineSet
453 598 m 1,0,-1
 938 598 l 1,1,-1
 694 1110 l 1,2,-1
 453 598 l 1,0,-1
380 444 m 1,3,-1
 195 2 l 1,4,-1
 25 2 l 1,5,-1
 692 1508 l 1,6,-1
 1359 2 l 1,7,-1
 1188 2 l 1,8,-1
 1000 444 l 1,9,-1
 380 444 l 1,3,-1
EndSplineSet
EndChar

StartChar: B
Encoding: 66 66 34
Width: 1293
VWidth: 2877
Flags: W
HStem: 0 154<302 876.877> 750 152<302 824.268> 1339 154<302 820.473>
VStem: 143 159<154 750 902 1339> 929 161<997.926 1237.73> 1041 159<311.736 596.209>
LayerCount: 3
Fore
SplineSet
302 154 m 1xf4
 694 154 l 2
 893 154 1041 295 1041 453 c 0
 1041 611 893 750 694 750 c 2
 302 750 l 1
 302 154 l 1xf4
929 1117 m 2xf8
 929 1119 l 2
 929 1231 822 1339 675 1339 c 2
 302 1339 l 1
 302 902 l 1
 675 902 l 2
 824 902 929 1006 929 1117 c 2xf8
681 1493 m 2
 904 1493 1090 1325 1090 1117 c 0xf8
 1090 1006 1036 906 951 839 c 1
 1100 763 1200 620 1200 453 c 0xf4
 1200 197 967 0 694 0 c 2
 143 0 l 1
 143 1493 l 1
 681 1493 l 2
EndSplineSet
Validated: 1
Layer: 2
SplineSet
302 154 m 1,0,-1
 694 154 l 2,1,2
 841 154 841 154 941 243 c 128,-1,3
 1041 332 1041 332 1041 453 c 128,-1,4
 1041 574 1041 574 941 662 c 128,-1,5
 841 750 841 750 694 750 c 2,6,-1
 302 750 l 1,7,-1
 302 154 l 1,0,-1
929 1117 m 2,8,-1
 929 1119 l 2,9,10
 929 1206 929 1206 855.5 1272.5 c 128,-1,11
 782 1339 782 1339 675 1339 c 2,12,-1
 302 1339 l 1,13,-1
 302 902 l 1,14,-1
 675 902 l 2,15,16
 784 902 784 902 856.5 966.5 c 128,-1,17
 929 1031 929 1031 929 1117 c 2,8,-1
681 1493 m 2,18,19
 849 1493 849 1493 969.5 1382.5 c 128,-1,20
 1090 1272 1090 1272 1090 1117 c 0,21,22
 1090 1035 1090 1035 1053 962.5 c 128,-1,23
 1016 890 1016 890 951 839 c 1,24,25
 1065 781 1065 781 1132.5 678.5 c 128,-1,26
 1200 576 1200 576 1200 453 c 0,27,28
 1200 328 1200 328 1130.5 223 c 128,-1,29
 1061 118 1061 118 945 59 c 128,-1,30
 829 0 829 0 694 0 c 2,31,-1
 143 0 l 1,32,-1
 143 1493 l 1,33,-1
 681 1493 l 2,18,19
EndSplineSet
EndChar

StartChar: C
Encoding: 67 67 35
Width: 1617
VWidth: 2877
Flags: W
HStem: -13 150<647.763 1105.68> 1350 156<647.763 1105.16>
VStem: 98 160<520.288 968.724>
LayerCount: 3
Fore
SplineSet
1395 408 m 1
 1523 325 l 1
 1354 101 1135 -13 878 -13 c 0
 448 -13 98 325 98 745 c 0
 98 1166 448 1506 878 1506 c 0
 1265 1506 1464 1249 1523 1168 c 1
 1397 1077 l 1
 1348 1139 1188 1350 878 1350 c 0
 532 1350 258 1079 258 743 c 0
 258 410 532 137 878 137 c 0
 1186 137 1348 344 1395 408 c 1
EndSplineSet
Validated: 1
Layer: 2
SplineSet
1395 408 m 1,0,-1
 1523 325 l 1,1,2
 1268 -13 1268 -13 878 -13 c 0,3,4
 720 -13 720 -13 575.5 47 c 128,-1,5
 431 107 431 107 326.5 208 c 128,-1,6
 222 309 222 309 160 449.5 c 128,-1,7
 98 590 98 590 98 745 c 128,-1,8
 98 900 98 900 160 1041 c 128,-1,9
 222 1182 222 1182 326.5 1284 c 128,-1,10
 431 1386 431 1386 575.5 1446 c 128,-1,11
 720 1506 720 1506 878 1506 c 0,12,13
 958 1506 958 1506 1033 1491 c 128,-1,14
 1108 1476 1108 1476 1165 1453.5 c 128,-1,15
 1222 1431 1222 1431 1276 1398 c 128,-1,16
 1330 1365 1330 1365 1366 1335.5 c 128,-1,17
 1402 1306 1402 1306 1437 1269.5 c 128,-1,18
 1472 1233 1472 1233 1489 1212.5 c 128,-1,19
 1506 1192 1506 1192 1523 1168 c 1,20,-1
 1397 1077 l 1,21,22
 1370 1111 1370 1111 1353 1131 c 128,-1,23
 1336 1151 1336 1151 1283.5 1198 c 128,-1,24
 1231 1245 1231 1245 1180 1273.5 c 128,-1,25
 1129 1302 1129 1302 1047.5 1326 c 128,-1,26
 966 1350 966 1350 878 1350 c 0,27,28
 751 1350 751 1350 636 1302 c 128,-1,29
 521 1254 521 1254 438 1173 c 128,-1,30
 355 1092 355 1092 306.5 979.5 c 128,-1,31
 258 867 258 867 258 743 c 0,32,33
 258 620 258 620 306.5 508 c 128,-1,34
 355 396 355 396 437.5 314.5 c 128,-1,35
 520 233 520 233 635.5 185 c 128,-1,36
 751 137 751 137 878 137 c 0,37,38
 965 137 965 137 1045.5 160 c 128,-1,39
 1126 183 1126 183 1179 213 c 128,-1,40
 1232 243 1232 243 1281.5 286 c 128,-1,41
 1331 329 1331 329 1352.5 354 c 128,-1,42
 1374 379 1374 379 1395 408 c 1,0,-1
EndSplineSet
EndChar

StartChar: D
Encoding: 68 68 36
Width: 1346
VWidth: 2877
Flags: W
HStem: 0 154<302 701.991> 1339 154<302 701.991>
VStem: 143 159<154 1339> 1094 157<522.93 968.221>
LayerCount: 3
Fore
SplineSet
302 154 m 1
 474 154 l 2
 818 154 1094 412 1094 745 c 0
 1094 1081 818 1339 474 1339 c 2
 302 1339 l 1
 302 154 l 1
143 0 m 1
 143 1493 l 1
 474 1493 l 2
 902 1493 1251 1166 1251 745 c 0
 1251 325 902 0 474 0 c 2
 143 0 l 1
EndSplineSet
Validated: 1
Layer: 2
SplineSet
302 154 m 1,0,-1
 474 154 l 2,1,2
 644 154 644 154 786 231.5 c 128,-1,3
 928 309 928 309 1011 445 c 128,-1,4
 1094 581 1094 581 1094 745 c 0,5,6
 1094 910 1094 910 1011 1046.5 c 128,-1,7
 928 1183 928 1183 786 1261 c 128,-1,8
 644 1339 644 1339 474 1339 c 2,9,-1
 302 1339 l 1,10,-1
 302 154 l 1,0,-1
143 0 m 1,11,-1
 143 1493 l 1,12,-1
 474 1493 l 2,13,14
 685 1493 685 1493 863.5 1394.5 c 128,-1,15
 1042 1296 1042 1296 1146.5 1124 c 128,-1,16
 1251 952 1251 952 1251 745 c 0,17,18
 1251 539 1251 539 1146.5 367.5 c 128,-1,19
 1042 196 1042 196 863.5 98 c 128,-1,20
 685 0 685 0 474 0 c 2,21,-1
 143 0 l 1,11,-1
EndSplineSet
EndChar

StartChar: E
Encoding: 69 69 37
Width: 1158
VWidth: 2877
Flags: W
HStem: 0 154<302 1061> 784 154<302 1003> 1339 154<302 1066>
VStem: 143 159<154 784 938 1339>
LayerCount: 3
Fore
SplineSet
1003 938 m 1
 1003 784 l 1
 302 784 l 1
 302 154 l 1
 1061 154 l 1
 1061 0 l 1
 143 0 l 1
 143 1493 l 1
 1066 1493 l 1
 1066 1339 l 1
 302 1339 l 1
 302 938 l 1
 1003 938 l 1
EndSplineSet
Validated: 1
Layer: 2
SplineSet
1003 938 m 1,0,-1
 1003 784 l 1,1,-1
 302 784 l 1,2,-1
 302 154 l 1,3,-1
 1061 154 l 1,4,-1
 1061 0 l 1,5,-1
 143 0 l 1,6,-1
 143 1493 l 1,7,-1
 1066 1493 l 1,8,-1
 1066 1339 l 1,9,-1
 302 1339 l 1,10,-1
 302 938 l 1,11,-1
 1003 938 l 1,0,-1
EndSplineSet
EndChar

StartChar: F
Encoding: 70 70 38
Width: 1158
VWidth: 2877
Flags: W
HStem: 0 21G<143 302> 784 154<302 1003> 1339 154<302 1066>
VStem: 143 159<0 784 938 1339>
LayerCount: 3
Fore
SplineSet
1003 938 m 1
 1003 784 l 1
 302 784 l 1
 302 0 l 1
 143 0 l 1
 143 1493 l 1
 1066 1493 l 1
 1066 1339 l 1
 302 1339 l 1
 302 938 l 1
 1003 938 l 1
EndSplineSet
Validated: 1
Layer: 2
SplineSet
1003 938 m 1,0,-1
 1003 784 l 1,1,-1
 302 784 l 1,2,-1
 302 0 l 1,3,-1
 143 0 l 1,4,-1
 143 1493 l 1,5,-1
 1066 1493 l 1,6,-1
 1066 1339 l 1,7,-1
 302 1339 l 1,8,-1
 302 938 l 1,9,-1
 1003 938 l 1,0,-1
EndSplineSet
EndChar

StartChar: G
Encoding: 71 71 39
Width: 1749
VWidth: 2877
Flags: W
HStem: -13 152<647.763 1104.96> 669 155<842 1491> 1352 154<647.763 1103.1>
VStem: 98 160<521.288 969.724>
LayerCount: 3
Fore
SplineSet
1523 1173 m 1
 1397 1079 l 1
 1348 1141 1188 1352 878 1352 c 0
 532 1352 258 1081 258 745 c 0
 258 412 532 139 878 139 c 0
 1194 139 1453 372 1491 669 c 1
 842 669 l 1
 842 824 l 1
 1654 824 l 1
 1654 745 l 2
 1654 325 1305 -13 878 -13 c 0
 448 -13 98 325 98 745 c 0
 98 1166 448 1506 878 1506 c 0
 1285 1506 1491 1213 1523 1173 c 1
EndSplineSet
Validated: 1
Layer: 2
SplineSet
1523 1173 m 1,0,-1
 1397 1079 l 1,1,2
 1370 1113 1370 1113 1353 1133 c 128,-1,3
 1336 1153 1336 1153 1283.5 1200 c 128,-1,4
 1231 1247 1231 1247 1180 1275.5 c 128,-1,5
 1129 1304 1129 1304 1047.5 1328 c 128,-1,6
 966 1352 966 1352 878 1352 c 0,7,8
 751 1352 751 1352 636 1304 c 128,-1,9
 521 1256 521 1256 438 1175 c 128,-1,10
 355 1094 355 1094 306.5 981.5 c 128,-1,11
 258 869 258 869 258 745 c 0,12,13
 258 622 258 622 306.5 510 c 128,-1,14
 355 398 355 398 437.5 316.5 c 128,-1,15
 520 235 520 235 635.5 187 c 128,-1,16
 751 139 751 139 878 139 c 0,17,18
 1113 139 1113 139 1287.5 291.5 c 128,-1,19
 1462 444 1462 444 1491 669 c 1,20,-1
 842 669 l 1,21,-1
 842 824 l 1,22,-1
 1654 824 l 1,23,-1
 1654 745 l 2,24,25
 1654 590 1654 590 1592.5 449.5 c 128,-1,26
 1531 309 1531 309 1426.5 208 c 128,-1,27
 1322 107 1322 107 1178.5 47 c 128,-1,28
 1035 -13 1035 -13 878 -13 c 0,29,30
 720 -13 720 -13 575.5 47 c 128,-1,31
 431 107 431 107 326.5 208 c 128,-1,32
 222 309 222 309 160 449.5 c 128,-1,33
 98 590 98 590 98 745 c 128,-1,34
 98 900 98 900 160 1041 c 128,-1,35
 222 1182 222 1182 326.5 1284 c 128,-1,36
 431 1386 431 1386 575.5 1446 c 128,-1,37
 720 1506 720 1506 878 1506 c 0,38,39
 987 1506 987 1506 1089 1476.5 c 128,-1,40
 1191 1447 1191 1447 1256.5 1410 c 128,-1,41
 1322 1373 1322 1373 1383.5 1320 c 128,-1,42
 1445 1267 1445 1267 1469.5 1239 c 128,-1,43
 1494 1211 1494 1211 1517.13015692 1180.52095104 c 0,44,45
 1521 1175 1521 1175 1523 1173 c 1,0,-1
EndSplineSet
EndChar

StartChar: H
Encoding: 72 72 40
Width: 1393
VWidth: 2877
Flags: W
HStem: 0 21G<143 302 1097 1256> 784 154<302 1097> 1473 20G<143 302 1097 1256>
VStem: 143 159<0 784 938 1493> 1097 159<0 784 938 1493>
LayerCount: 3
Fore
SplineSet
1097 1493 m 1
 1256 1493 l 1
 1256 0 l 1
 1097 0 l 1
 1097 784 l 1
 302 784 l 1
 302 0 l 1
 143 0 l 1
 143 1493 l 1
 302 1493 l 1
 302 938 l 1
 1097 938 l 1
 1097 1493 l 1
EndSplineSet
Validated: 1
Layer: 2
SplineSet
1097 1493 m 1,0,-1
 1256 1493 l 1,1,-1
 1256 0 l 1,2,-1
 1097 0 l 1,3,-1
 1097 784 l 1,4,-1
 302 784 l 1,5,-1
 302 0 l 1,6,-1
 143 0 l 1,7,-1
 143 1493 l 1,8,-1
 302 1493 l 1,9,-1
 302 938 l 1,10,-1
 1097 938 l 1,11,-1
 1097 1493 l 1,0,-1
EndSplineSet
EndChar

StartChar: I
Encoding: 73 73 41
Width: 440
VWidth: 2877
Flags: W
HStem: 0 21G<143 302> 1473 20G<143 302>
VStem: 143 159<0 1493>
LayerCount: 3
Fore
SplineSet
302 0 m 1
 143 0 l 1
 143 1493 l 1
 302 1493 l 1
 302 0 l 1
EndSplineSet
Validated: 1
Layer: 2
SplineSet
302 0 m 1,0,-1
 143 0 l 1,1,-1
 143 1493 l 1,2,-1
 302 1493 l 1,3,-1
 302 0 l 1,0,-1
EndSplineSet
EndChar

StartChar: J
Encoding: 74 74 42
Width: 1027
VWidth: 2877
Flags: W
HStem: -15 154<364.589 624.77> 1473 20G<737 889>
VStem: 98 160<253.111 438> 737 152<253.111 1493>
LayerCount: 3
Fore
SplineSet
737 1493 m 1
 889 1493 l 1
 889 403 l 2
 889 177 716 -15 493 -15 c 0
 269 -15 98 177 98 403 c 2
 98 438 l 1
 258 438 l 1
 258 403 l 2
 258 252 369 139 497 139 c 0
 622 139 737 252 737 403 c 2
 737 1493 l 1
EndSplineSet
Validated: 1
Layer: 2
SplineSet
737 1493 m 1,0,-1
 889 1493 l 1,1,-1
 889 403 l 2,2,3
 889 232 889 232 774 108.5 c 128,-1,4
 659 -15 659 -15 493 -15 c 128,-1,5
 327 -15 327 -15 212.5 108.5 c 128,-1,6
 98 232 98 232 98 403 c 2,7,-1
 98 438 l 1,8,-1
 258 438 l 1,9,-1
 258 403 l 2,10,11
 258 291 258 291 328.5 215 c 128,-1,12
 399 139 399 139 497 139 c 0,13,14
 593 139 593 139 665 215.5 c 128,-1,15
 737 292 737 292 737 403 c 2,16,-1
 737 1493 l 1,0,-1
EndSplineSet
EndChar

StartChar: K
Encoding: 75 75 43
Width: 1219
VWidth: 2877
Flags: W
HStem: 0 21G<143 302 983.981 1200> 1473 20G<143 302 910.544 1171>
VStem: 143 159<0 724 931 1493>
DStem2: 302 931 419 826 0.748881 0.662704<0 18.0352 170.917 844.984> 532 929 419 826 0.583798 -0.811899<17.6564 1026.3>
LayerCount: 3
Fore
SplineSet
143 1493 m 1
 302 1493 l 1
 302 931 l 1
 933 1493 l 1
 1171 1493 l 1
 532 929 l 1
 1200 0 l 1
 998 0 l 1
 419 826 l 1
 302 724 l 1
 302 0 l 1
 143 0 l 1
 143 1493 l 1
EndSplineSet
Validated: 1
Layer: 2
SplineSet
143 1493 m 1,0,-1
 302 1493 l 1,1,-1
 302 931 l 1,2,-1
 933 1493 l 1,3,-1
 1171 1493 l 1,4,-1
 532 929 l 1,5,-1
 1200 0 l 1,6,-1
 998 0 l 1,7,-1
 419 826 l 1,8,-1
 302 724 l 1,9,-1
 302 0 l 1,10,-1
 143 0 l 1,11,-1
 143 1493 l 1,0,-1
EndSplineSet
EndChar

StartChar: L
Encoding: 76 76 44
Width: 1158
VWidth: 2877
Flags: W
HStem: 0 154<302 1066> 1473 20G<143 302>
VStem: 143 159<154 1493>
LayerCount: 3
Fore
SplineSet
1066 0 m 1
 143 0 l 1
 143 1493 l 1
 302 1493 l 1
 302 154 l 1
 1066 154 l 1
 1066 0 l 1
EndSplineSet
Validated: 1
Layer: 2
SplineSet
1066 0 m 1,0,-1
 143 0 l 1,1,-1
 143 1493 l 1,2,-1
 302 1493 l 1,3,-1
 302 154 l 1,4,-1
 1066 154 l 1,5,-1
 1066 0 l 1,0,-1
EndSplineSet
EndChar

StartChar: M
Encoding: 77 77 45
Width: 1758
VWidth: 2880
Flags: W
HStem: 0 21G<25 183.303 865.192 885.071 1571.86 1737> 1486 20G<328.91 342.716 1427.11 1440.98>
DStem2: 25 0 179 0 0.200368 0.979721<30.8566 1029.14> 333 1506 389 976 0.436959 -0.899481<501.195 1251.83> 880 380 875 -15 0.443389 0.89633<0 753.246> 1437 1506 1374 976 0.195365 -0.980731<507.479 1504.14>
LayerCount: 3
Fore
SplineSet
179 0 m 1
 25 0 l 1
 333 1506 l 1
 880 380 l 1
 1437 1506 l 1
 1737 0 l 1
 1576 0 l 1
 1374 976 l 1
 875 -15 l 1
 389 976 l 1
 179 0 l 1
EndSplineSet
Validated: 1
Layer: 2
SplineSet
179 0 m 1,0,-1
 25 0 l 1,1,-1
 333 1506 l 1,2,-1
 880 380 l 1,3,-1
 1437 1506 l 1,4,-1
 1737 0 l 1,5,-1
 1576 0 l 1,6,-1
 1374 976 l 1,7,-1
 875 -15 l 1,8,-1
 389 976 l 1,9,-1
 179 0 l 1,0,-1
EndSplineSet
EndChar

StartChar: N
Encoding: 78 78 46
Width: 1671
VWidth: 2877
Flags: W
HStem: 0 21G<143 302 1511.5 1533> 1488 5G<143 164.502 1374 1533>
VStem: 143 159<0 1128> 1374 159<363 1493>
DStem2: 143 1508 302 1128 0.732221 -0.681067<375.229 1681.19>
LayerCount: 3
Fore
SplineSet
143 0 m 1
 143 1508 l 1
 1374 363 l 1
 1374 1493 l 1
 1533 1493 l 1
 1533 -17 l 1
 302 1128 l 1
 302 0 l 1
 143 0 l 1
EndSplineSet
Validated: 1
Layer: 2
SplineSet
143 0 m 1,0,-1
 143 1508 l 1,1,-1
 1374 363 l 1,2,-1
 1374 1493 l 1,3,-1
 1533 1493 l 1,4,-1
 1533 -17 l 1,5,-1
 302 1128 l 1,6,-1
 302 0 l 1,7,-1
 143 0 l 1,0,-1
EndSplineSet
EndChar

StartChar: O
Encoding: 79 79 47
Width: 1749
VWidth: 2877
Flags: W
HStem: -13 152<647.763 1106.6> 1352 154<647.763 1106.6>
VStem: 98 160<521.288 969.724> 1497 157<521.288 969.724>
LayerCount: 3
Fore
SplineSet
1654 745 m 0
 1654 325 1305 -13 878 -13 c 0
 448 -13 98 325 98 745 c 0
 98 1166 448 1506 878 1506 c 0
 1305 1506 1654 1166 1654 745 c 0
258 745 m 0
 258 412 532 139 878 139 c 0
 1220 139 1497 412 1497 745 c 0
 1497 1081 1220 1352 878 1352 c 0
 532 1352 258 1081 258 745 c 0
EndSplineSet
Validated: 1
Layer: 2
SplineSet
1654 745 m 128,-1,1
 1654 590 1654 590 1592.5 449.5 c 128,-1,2
 1531 309 1531 309 1426.5 208 c 128,-1,3
 1322 107 1322 107 1178.5 47 c 128,-1,4
 1035 -13 1035 -13 878 -13 c 0,5,6
 720 -13 720 -13 575.5 47 c 128,-1,7
 431 107 431 107 326.5 208 c 128,-1,8
 222 309 222 309 160 449.5 c 128,-1,9
 98 590 98 590 98 745 c 128,-1,10
 98 900 98 900 160 1041 c 128,-1,11
 222 1182 222 1182 326.5 1284 c 128,-1,12
 431 1386 431 1386 575.5 1446 c 128,-1,13
 720 1506 720 1506 878 1506 c 0,14,15
 1035 1506 1035 1506 1178.5 1446 c 128,-1,16
 1322 1386 1322 1386 1426.5 1284 c 128,-1,17
 1531 1182 1531 1182 1592.5 1041 c 128,-1,0
 1654 900 1654 900 1654 745 c 128,-1,1
258 745 m 0,18,19
 258 622 258 622 306.5 510 c 128,-1,20
 355 398 355 398 437.5 316.5 c 128,-1,21
 520 235 520 235 635.5 187 c 128,-1,22
 751 139 751 139 878 139 c 0,23,24
 1046 139 1046 139 1188.5 220.5 c 128,-1,25
 1331 302 1331 302 1414 441.5 c 128,-1,26
 1497 581 1497 581 1497 745 c 0,27,28
 1497 910 1497 910 1414 1050 c 128,-1,29
 1331 1190 1331 1190 1188.5 1271 c 128,-1,30
 1046 1352 1046 1352 878 1352 c 0,31,32
 751 1352 751 1352 636 1304 c 128,-1,33
 521 1256 521 1256 438 1175 c 128,-1,34
 355 1094 355 1094 306.5 981.5 c 128,-1,35
 258 869 258 869 258 745 c 0,18,19
EndSplineSet
EndChar

StartChar: P
Encoding: 80 80 48
Width: 1205
VWidth: 2877
Flags: W
HStem: 0 21G<143 302> 667 157<302 834.009> 1339 154<302 831.479>
VStem: 143 159<0 667 824 1339> 951 159<936.716 1222.64>
LayerCount: 3
Fore
SplineSet
143 0 m 1
 143 1493 l 1
 698 1493 l 2
 929 1493 1110 1305 1110 1079 c 0
 1110 853 929 667 703 667 c 2
 302 667 l 1
 302 0 l 1
 143 0 l 1
302 824 m 1
 703 824 l 2
 837 824 951 936 951 1079 c 0
 951 1224 837 1339 698 1339 c 2
 302 1339 l 1
 302 824 l 1
EndSplineSet
Validated: 1
Layer: 2
SplineSet
143 0 m 1,0,-1
 143 1493 l 1,1,-1
 698 1493 l 2,2,3
 870 1493 870 1493 990 1371.5 c 128,-1,4
 1110 1250 1110 1250 1110 1079 c 0,5,6
 1110 909 1110 909 991 788 c 128,-1,7
 872 667 872 667 703 667 c 2,8,-1
 302 667 l 1,9,-1
 302 0 l 1,10,-1
 143 0 l 1,0,-1
302 824 m 1,11,-1
 703 824 l 2,12,13
 804 824 804 824 877.5 898.5 c 128,-1,14
 951 973 951 973 951 1079 c 0,15,16
 951 1187 951 1187 877 1263 c 128,-1,17
 803 1339 803 1339 698 1339 c 2,18,-1
 302 1339 l 1,19,-1
 302 824 l 1,11,-1
EndSplineSet
EndChar

StartChar: Q
Encoding: 81 81 49
Width: 1749
VWidth: 2877
Flags: W
HStem: -13 152<647.763 1107.24> 1352 154<647.763 1106.6>
VStem: 98 160<521.288 969.724> 1497 157<519.642 969.724>
DStem2: 1245 553 1038 553 0.650791 -0.759257<0 210.639 380.107 591.027>
LayerCount: 3
Fore
SplineSet
1271 280 m 1
 1038 553 l 1
 1245 553 l 1
 1382 393 l 1
 1455 493 1497 615 1497 745 c 0
 1497 1081 1220 1352 878 1352 c 0
 532 1352 258 1081 258 745 c 0
 258 412 532 139 878 139 c 0
 1027 139 1164 192 1271 280 c 1
1719 0 m 1
 1508 0 l 1
 1372 158 l 1
 1238 51 1066 -13 878 -13 c 0
 448 -13 98 325 98 745 c 0
 98 1166 448 1506 878 1506 c 0
 1305 1506 1654 1166 1654 745 c 0
 1654 566 1591 401 1484 271 c 1
 1719 0 l 1
EndSplineSet
Validated: 1
Layer: 2
SplineSet
1271 280 m 1,0,-1
 1038 553 l 1,1,-1
 1245 553 l 1,2,-1
 1382 393 l 1,3,4
 1497 551 1497 551 1497 745 c 0,5,6
 1497 910 1497 910 1414 1050 c 128,-1,7
 1331 1190 1331 1190 1188.5 1271 c 128,-1,8
 1046 1352 1046 1352 878 1352 c 0,9,10
 751 1352 751 1352 636 1304 c 128,-1,11
 521 1256 521 1256 438 1175 c 128,-1,12
 355 1094 355 1094 306.5 981.5 c 128,-1,13
 258 869 258 869 258 745 c 0,14,15
 258 622 258 622 306.5 510 c 128,-1,16
 355 398 355 398 437.5 316.5 c 128,-1,17
 520 235 520 235 635.5 187 c 128,-1,18
 751 139 751 139 878 139 c 0,19,20
 1100 139 1100 139 1271 280 c 1,0,-1
1719 0 m 1,21,-1
 1508 0 l 1,22,-1
 1372 158 l 1,23,24
 1158 -13 1158 -13 878 -13 c 0,25,26
 720 -13 720 -13 575.5 47 c 128,-1,27
 431 107 431 107 326.5 208 c 128,-1,28
 222 309 222 309 160 449.5 c 128,-1,29
 98 590 98 590 98 745 c 128,-1,30
 98 900 98 900 160 1041 c 128,-1,31
 222 1182 222 1182 326.5 1284 c 128,-1,32
 431 1386 431 1386 575.5 1446 c 128,-1,33
 720 1506 720 1506 878 1506 c 0,34,35
 1035 1506 1035 1506 1178.5 1446 c 128,-1,36
 1322 1386 1322 1386 1426.5 1284 c 128,-1,37
 1531 1182 1531 1182 1592.5 1041 c 128,-1,38
 1654 900 1654 900 1654 745 c 0,39,40
 1654 478 1654 478 1484 271 c 1,41,-1
 1719 0 l 1,21,-1
EndSplineSet
EndChar

StartChar: R
Encoding: 82 82 50
Width: 1232
VWidth: 2877
Flags: W
HStem: 0 21G<143 302 1022.76 1215> 669 155<302 658> 1339 154<302 831.479>
VStem: 143 159<0 669 824 1339> 951 159<934.386 1222.64>
DStem2: 828 687 658 669 0.490803 -0.871271<0 699.668>
LayerCount: 3
Fore
SplineSet
143 0 m 1
 143 1493 l 1
 698 1493 l 2
 929 1493 1110 1305 1110 1079 c 0
 1110 897 994 741 828 687 c 1
 1215 0 l 1
 1034 0 l 1
 658 669 l 1
 302 669 l 1
 302 0 l 1
 143 0 l 1
302 824 m 1
 703 824 l 2
 837 824 951 936 951 1079 c 0
 951 1224 837 1339 698 1339 c 2
 302 1339 l 1
 302 824 l 1
EndSplineSet
Validated: 1
Layer: 2
SplineSet
143 0 m 1,0,-1
 143 1493 l 1,1,-1
 698 1493 l 2,2,3
 870 1493 870 1493 990 1371.5 c 128,-1,4
 1110 1250 1110 1250 1110 1079 c 0,5,6
 1110 943 1110 943 1031.5 835.5 c 128,-1,7
 953 728 953 728 828 687 c 1,8,-1
 1215 0 l 1,9,-1
 1034 0 l 1,10,-1
 658 669 l 1,11,-1
 302 669 l 1,12,-1
 302 0 l 1,13,-1
 143 0 l 1,0,-1
302 824 m 1,14,-1
 703 824 l 2,15,16
 804 824 804 824 877.5 898.5 c 128,-1,17
 951 973 951 973 951 1079 c 0,18,19
 951 1187 951 1187 877 1263 c 128,-1,20
 803 1339 803 1339 698 1339 c 2,21,-1
 302 1339 l 1,22,-1
 302 824 l 1,14,-1
EndSplineSet
EndChar

StartChar: S
Encoding: 83 83 51
Width: 1183
VWidth: 2877
Flags: W
HStem: -17 156<425.126 767.096> 1352 156<456.858 741.051>
VStem: 98 157<326.531 469.735> 218 156<1035.86 1268.68> 931 157<295.554 580.824>
LayerCount: 3
Fore
SplineSet
1008 1186 m 1xd8
 859 1135 l 1
 848 1168 l 1
 803 1294 698 1352 593 1352 c 0
 461 1352 374 1256 374 1141 c 0xd8
 374 848 1088 933 1088 444 c 0
 1088 168 848 -17 591 -17 c 0
 372 -17 148 119 103 434 c 1
 98 468 l 1
 255 487 l 1xe8
 260 455 l 1
 293 231 438 139 591 139 c 0
 765 139 931 258 931 448 c 0
 931 812 218 707 218 1144 c 0
 218 1339 367 1508 593 1508 c 0
 759 1508 929 1410 996 1218 c 1
 1008 1186 l 1xd8
EndSplineSet
Validated: 1
Layer: 2
SplineSet
1008 1186 m 1,0,-1
 859 1135 l 1,1,-1
 848 1168 l 2,2,3
 816 1258 816 1258 746 1305 c 128,-1,4
 676 1352 676 1352 593 1352 c 0,5,6
 496 1352 496 1352 435 1290.5 c 128,-1,7
 374 1229 374 1229 374 1141 c 0,8,9
 374 1094 374 1094 398.5 1056 c 128,-1,10
 423 1018 423 1018 464 991 c 128,-1,11
 505 964 505 964 559 939.5 c 128,-1,12
 613 915 613 915 672 890.5 c 128,-1,13
 731 866 731 866 790 839.5 c 128,-1,14
 849 813 849 813 903 776.5 c 128,-1,15
 957 740 957 740 998 695.5 c 128,-1,16
 1039 651 1039 651 1063.5 586.5 c 128,-1,17
 1088 522 1088 522 1088 444 c 0,18,19
 1088 311 1088 311 1017 203.5 c 128,-1,20
 946 96 946 96 833 39.5 c 128,-1,21
 720 -17 720 -17 591 -17 c 0,22,23
 506 -17 506 -17 428 10 c 128,-1,24
 350 37 350 37 282.5 90 c 128,-1,25
 215 143 215 143 167 231.5 c 128,-1,26
 119 320 119 320 103 434 c 2,27,-1
 98 468 l 1,28,-1
 255 487 l 1,29,-1
 260 455 l 2,30,31
 272 374 272 374 304 311.5 c 128,-1,32
 336 249 336 249 381 212.5 c 128,-1,33
 426 176 426 176 479 157.5 c 128,-1,34
 532 139 532 139 591 139 c 0,35,36
 728 139 728 139 829.5 225 c 128,-1,37
 931 311 931 311 931 448 c 0,38,39
 931 522 931 522 891.5 578 c 128,-1,40
 852 634 852 634 789.5 669.5 c 128,-1,41
 727 705 727 705 651 736.5 c 128,-1,42
 575 768 575 768 498.5 802 c 128,-1,43
 422 836 422 836 359.5 878 c 128,-1,44
 297 920 297 920 257.5 987.5 c 128,-1,45
 218 1055 218 1055 218 1144 c 0,46,47
 218 1295 218 1295 323 1401.5 c 128,-1,48
 428 1508 428 1508 593 1508 c 0,49,50
 724 1508 724 1508 836 1432 c 128,-1,51
 948 1356 948 1356 996 1218 c 2,52,-1
 1008 1186 l 1,0,-1
EndSplineSet
EndChar

StartChar: T
Encoding: 84 84 52
Width: 961
VWidth: 2877
Flags: W
HStem: 0 21G<406 562> 1339 154<25 406 562 942>
VStem: 406 156<0 1339>
LayerCount: 3
Fore
SplineSet
942 1493 m 1
 942 1339 l 1
 562 1339 l 1
 562 0 l 1
 406 0 l 1
 406 1339 l 1
 25 1339 l 1
 25 1493 l 1
 942 1493 l 1
EndSplineSet
Validated: 1
Layer: 2
SplineSet
942 1493 m 1,0,-1
 942 1339 l 1,1,-1
 562 1339 l 1,2,-1
 562 0 l 1,3,-1
 406 0 l 1,4,-1
 406 1339 l 1,5,-1
 25 1339 l 1,6,-1
 25 1493 l 1,7,-1
 942 1493 l 1,0,-1
EndSplineSet
EndChar

StartChar: U
Encoding: 85 85 53
Width: 1393
VWidth: 2877
Flags: W
HStem: -15 154<532.286 868.145> 1473 20G<143 302 1097 1256>
VStem: 143 159<386.872 1493> 1097 159<373.338 1493>
LayerCount: 3
Fore
SplineSet
143 1493 m 1
 302 1493 l 1
 302 575 l 2
 302 327 491 139 703 139 c 0
 914 139 1097 327 1097 575 c 2
 1097 1493 l 1
 1256 1493 l 1
 1256 575 l 2
 1256 252 1010 -15 698 -15 c 0
 387 -15 143 252 143 575 c 2
 143 1493 l 1
EndSplineSet
Validated: 1
Layer: 2
SplineSet
143 1493 m 1,0,-1
 302 1493 l 1,1,-1
 302 575 l 2,2,3
 302 392 302 392 421.5 265.5 c 128,-1,4
 541 139 541 139 703 139 c 0,5,6
 808 139 808 139 898 195.5 c 128,-1,7
 988 252 988 252 1042.5 353 c 128,-1,8
 1097 454 1097 454 1097 575 c 2,9,-1
 1097 1493 l 1,10,-1
 1256 1493 l 1,11,-1
 1256 575 l 2,12,13
 1256 416 1256 416 1182 280 c 128,-1,14
 1108 144 1108 144 979.5 64.5 c 128,-1,15
 851 -15 851 -15 698 -15 c 0,16,17
 584 -15 584 -15 480.5 32 c 128,-1,18
 377 79 377 79 303.5 158.5 c 128,-1,19
 230 238 230 238 186.5 347 c 128,-1,20
 143 456 143 456 143 575 c 2,21,-1
 143 1493 l 1,0,-1
EndSplineSet
EndChar

StartChar: V
Encoding: 86 86 54
Width: 1340
VWidth: 2877
Flags: W
HStem: -15 21G<674.273 691.448> 1473 20G<25 200.879 1140.43 1320>
DStem2: 192 1493 25 1493 0.399926 -0.916547<0 1200.22> 679 396 683 -15 0.389122 0.921186<0 1193.43>
LayerCount: 3
Fore
SplineSet
1149 1493 m 1
 1320 1493 l 1
 683 -15 l 1
 25 1493 l 1
 192 1493 l 1
 679 396 l 1
 1149 1493 l 1
EndSplineSet
Validated: 1
Layer: 2
SplineSet
1149 1493 m 1,0,-1
 1320 1493 l 1,1,-1
 683 -15 l 1,2,-1
 25 1493 l 1,3,-1
 192 1493 l 1,4,-1
 679 396 l 1,5,-1
 1149 1493 l 1,0,-1
EndSplineSet
EndChar

StartChar: W
Encoding: 87 87 55
Width: 2025
VWidth: 2877
Flags: W
HStem: -15 21G<590.401 606 1425.02 1440.56> 1473 20G<25 193.803 1004 1020.03 1827.29 2003>
DStem2: 186 1493 25 1493 0.355196 -0.934792<0 1114.17> 591 455 598 -15 0.371239 0.928537<0 691.685> 1012 1508 1016 1030 0.372758 -0.927929<445.041 1134.79> 1435 455 1433 -15 0.353569 0.935408<0 1112.38>
LayerCount: 3
Fore
SplineSet
25 1493 m 1
 186 1493 l 1
 591 455 l 1
 1012 1508 l 1
 1435 455 l 1
 1835 1493 l 1
 2003 1493 l 1
 1433 -15 l 1
 1016 1030 l 1
 598 -15 l 1
 25 1493 l 1
EndSplineSet
Validated: 1
Layer: 2
SplineSet
25 1493 m 1,0,-1
 186 1493 l 1,1,-1
 591 455 l 1,2,-1
 1012 1508 l 1,3,-1
 1435 455 l 1,4,-1
 1835 1493 l 1,5,-1
 2003 1493 l 1,6,-1
 1433 -15 l 1,7,-1
 1016 1030 l 1,8,-1
 598 -15 l 1,9,-1
 25 1493 l 1,0,-1
EndSplineSet
EndChar

StartChar: X
Encoding: 88 88 56
Width: 1060
VWidth: 2877
Flags: W
HStem: 0 21G<25 211.411 850.525 1038> 1473 20G<83 270.405 790.557 980>
DStem2: 25 0 201 0 0.462586 0.886574<81.4152 793.921 1097.13 1682.62> 260 1493 83 1493 0.462119 -0.886818<0 585.031 888.322 1601.75>
LayerCount: 3
Fore
SplineSet
83 1493 m 1
 260 1493 l 1
 530 974 l 1
 801 1493 l 1
 980 1493 l 1
 620 803 l 1
 1038 0 l 1
 861 0 l 1
 530 632 l 1
 201 0 l 1
 25 0 l 1
 444 803 l 1
 83 1493 l 1
EndSplineSet
Validated: 1
Layer: 2
SplineSet
83 1493 m 1,0,-1
 260 1493 l 1,1,-1
 530 974 l 1,2,-1
 801 1493 l 1,3,-1
 980 1493 l 1,4,-1
 620 803 l 1,5,-1
 1038 0 l 1,6,-1
 861 0 l 1,7,-1
 530 632 l 1,8,-1
 201 0 l 1,9,-1
 25 0 l 1,10,-1
 444 803 l 1,11,-1
 83 1493 l 1,0,-1
EndSplineSet
EndChar

StartChar: Y
Encoding: 89 89 57
Width: 1303
VWidth: 2877
Flags: W
HStem: 0 21G<575 734> 1473 20G<25 220.986 1089.07 1285>
VStem: 575 159<0 640>
DStem2: 208 1493 25 1493 0.541902 -0.840441<0 822.677> 656 803 734 640 0.542598 0.839993<0 821.594>
LayerCount: 3
Fore
SplineSet
25 1493 m 1
 208 1493 l 1
 656 803 l 1
 1102 1493 l 1
 1285 1493 l 1
 734 640 l 1
 734 0 l 1
 575 0 l 1
 575 640 l 1
 25 1493 l 1
EndSplineSet
Validated: 1
Layer: 2
SplineSet
25 1493 m 1,0,-1
 208 1493 l 1,1,-1
 656 803 l 1,2,-1
 1102 1493 l 1,3,-1
 1285 1493 l 1,4,-1
 734 640 l 1,5,-1
 734 0 l 1,6,-1
 575 0 l 1,7,-1
 575 640 l 1,8,-1
 25 1493 l 1,0,-1
EndSplineSet
EndChar

StartChar: Z
Encoding: 90 90 58
Width: 1250
VWidth: 2877
Flags: W
HStem: 0 154<318 1179> 1339 154<161 933>
DStem2: 25 0 318 154 0.562513 0.826789<292.142 1617.83>
LayerCount: 3
Fore
SplineSet
161 1493 m 1
 1229 1493 l 1
 318 154 l 1
 1231 154 l 1
 1179 0 l 1
 25 0 l 1
 933 1339 l 1
 107 1339 l 1
 161 1493 l 1
EndSplineSet
Validated: 1
Layer: 2
SplineSet
161 1493 m 1,0,-1
 1229 1493 l 1,1,-1
 318 154 l 1,2,-1
 1231 154 l 1,3,-1
 1179 0 l 1,4,-1
 25 0 l 1,5,-1
 933 1339 l 1,6,-1
 107 1339 l 1,7,-1
 161 1493 l 1,0,-1
EndSplineSet
EndChar

StartChar: bracketleft
Encoding: 91 91 59
Width: 480
VWidth: 2982
Flags: W
HStem: -349 161<269 448> 1457 162<269 448>
VStem: 107 341<-349 -188 1457 1619> 107 162<-188 1457>
LayerCount: 3
Fore
SplineSet
269 -188 m 1xd0
 448 -188 l 1
 448 -349 l 1
 107 -349 l 1
 107 1619 l 1
 448 1619 l 1
 448 1457 l 1xe0
 269 1457 l 1
 269 -188 l 1xd0
EndSplineSet
Validated: 1
Layer: 2
SplineSet
269 -188 m 1,0,-1
 448 -188 l 1,1,-1
 448 -349 l 1,2,-1
 107 -349 l 1,3,-1
 107 1619 l 1,4,-1
 448 1619 l 1,5,-1
 448 1457 l 1,6,-1
 269 1457 l 1,7,-1
 269 -188 l 1,0,-1
EndSplineSet
EndChar

StartChar: backslash
Encoding: 92 92 60
Width: 1303
VWidth: 2982
Flags: W
HStem: -2 21G<1093.17 1307> 1475 20G<-2 211.83>
DStem2: 197 1495 -2 1495 0.595612 -0.803272<0 1745.1>
LayerCount: 3
Fore
SplineSet
-2 1495 m 1
 197 1495 l 1
 1307 -2 l 1
 1108 -2 l 1
 -2 1495 l 1
EndSplineSet
Validated: 1
Layer: 2
SplineSet
-2 1495 m 1,0,-1
 197 1495 l 1,1,-1
 1307 -2 l 1,2,-1
 1108 -2 l 1,3,-1
 -2 1495 l 1,0,-1
EndSplineSet
EndChar

StartChar: bracketright
Encoding: 93 93 61
Width: 478
VWidth: 2982
Flags: W
HStem: -349 161<-2 177> 1457 162<-2 177>
VStem: -2 340<-349 -188 1457 1619> 177 161<-188 1457>
LayerCount: 3
Fore
SplineSet
177 1457 m 1xd0
 -2 1457 l 1
 -2 1619 l 1
 338 1619 l 1
 338 -349 l 1
 -2 -349 l 1
 -2 -188 l 1xe0
 177 -188 l 1
 177 1457 l 1xd0
EndSplineSet
Validated: 1
Layer: 2
SplineSet
177 1457 m 1,0,-1
 -2 1457 l 1,1,-1
 -2 1619 l 1,2,-1
 338 1619 l 1,3,-1
 338 -349 l 1,4,-1
 -2 -349 l 1,5,-1
 -2 -188 l 1,6,-1
 177 -188 l 1,7,-1
 177 1457 l 1,0,-1
EndSplineSet
EndChar

StartChar: asciicircum
Encoding: 94 94 62
Width: 1239
VWidth: 2982
Flags: W
HStem: 1475 20G<541.431 707.373>
DStem2: 81 679 269 679 0.500702 0.86562<94.1319 804.237> 696 1495 624 1294 0.494302 -0.86929<139.138 846.757>
LayerCount: 3
Fore
SplineSet
553 1495 m 1
 696 1495 l 1
 1160 679 l 1
 974 679 l 1
 624 1294 l 1
 269 679 l 1
 81 679 l 1
 553 1495 l 1
EndSplineSet
Validated: 1
Layer: 2
SplineSet
553 1495 m 1,0,-1
 696 1495 l 1,1,-1
 1160 679 l 1,2,-1
 974 679 l 1,3,-1
 624 1294 l 1,4,-1
 269 679 l 1,5,-1
 81 679 l 1,6,-1
 553 1495 l 1,0,-1
EndSplineSet
EndChar

StartChar: underscore
Encoding: 95 95 63
Width: 1042
VWidth: 2982
Flags: W
HStem: -158 160<0 1045>
LayerCount: 3
Fore
SplineSet
1045 2 m 1
 1045 -158 l 1
 0 -158 l 1
 0 2 l 1
 1045 2 l 1
EndSplineSet
Validated: 1
Layer: 2
SplineSet
1045 2 m 1,0,-1
 1045 -158 l 1,1,-1
 0 -158 l 1,2,-1
 0 2 l 1,3,-1
 1045 2 l 1,0,-1
EndSplineSet
EndChar

StartChar: quoteleft
Encoding: 8216 8216 64
Width: 476
VWidth: 2982
Flags: W
HStem: 1059 239<246.989 341.916>
VStem: 107 262<1100.58 1267.6>
LayerCount: 3
Fore
SplineSet
246 1298 m 1
 305 1298 369 1252 369 1179 c 0
 369 1113 316 1059 250 1059 c 0
 186 1059 107 1108 107 1218 c 0
 107 1280 116 1379 252 1508 c 2
 274 1529 l 1
 430 1529 l 1
 352 1464 l 2
 308 1428 262 1354 246 1298 c 1
EndSplineSet
Validated: 1
Layer: 2
SplineSet
246 1298 m 1,0,1
 293 1298 293 1298 331 1264.5 c 128,-1,2
 369 1231 369 1231 369 1179 c 0,3,4
 369 1129 369 1129 334 1094 c 128,-1,5
 299 1059 299 1059 250 1059 c 0,6,7
 195 1059 195 1059 151 1100.5 c 128,-1,8
 107 1142 107 1142 107 1218 c 0,9,10
 107 1259 107 1259 113.5 1293.5 c 128,-1,11
 120 1328 120 1328 154.5 1388 c 128,-1,12
 189 1448 189 1448 252 1508 c 2,13,-1
 274 1529 l 1,14,-1
 430 1529 l 1,15,-1
 352 1464 l 2,16,17
 319 1437 319 1437 288.5 1389 c 128,-1,18
 258 1341 258 1341 246 1298 c 1,0,1
EndSplineSet
EndChar

StartChar: a
Encoding: 97 97 65
Width: 1094
VWidth: 2822
Flags: W
HStem: -17 151<312.881 612.66> 0 21G<815 998> 481 130<418.717 792> 882 150<384.453 663.943>
VStem: 105 157<186.777 375.921> 795 158<2.33618 139 286.702 481 611 737.911>
LayerCount: 3
Fore
SplineSet
998 0 m 1x7c
 824 0 l 1x7c
 806 41 795 93 795 139 c 1
 707 51 589 -17 453 -17 c 0xbc
 208 -17 105 145 105 278 c 0
 105 609 566 611 792 611 c 1
 773 786 647 882 526 882 c 0
 380 882 307 763 284 732 c 1
 154 812 l 1
 188 861 302 1032 526 1032 c 0
 741 1032 953 867 953 577 c 2
 953 242 l 2
 953 152 972 49 998 0 c 1x7c
453 134 m 0xbc
 591 134 730 239 795 346 c 1
 795 481 l 1
 551 477 262 450 262 278 c 0
 262 222 312 134 453 134 c 0xbc
EndSplineSet
Validated: 1
Layer: 2
SplineSet
998 0 m 1,0,-1
 824 0 l 1,1,2
 795 66 795 66 795 139 c 1,3,4
 639 -17 639 -17 453 -17 c 0,5,6
 365 -17 365 -17 296 10 c 128,-1,7
 227 37 227 37 186.5 81 c 128,-1,8
 146 125 146 125 125.5 175.5 c 128,-1,9
 105 226 105 226 105 278 c 0,10,11
 105 332 105 332 122 376.5 c 128,-1,12
 139 421 139 421 165 453.5 c 128,-1,13
 191 486 191 486 234 511.5 c 128,-1,14
 277 537 277 537 316.5 553 c 128,-1,15
 356 569 356 569 413.5 581 c 128,-1,16
 471 593 471 593 512.5 598.5 c 128,-1,17
 554 604 554 604 615 607 c 128,-1,18
 676 610 676 610 708 610.5 c 128,-1,19
 740 611 740 611 792 611 c 1,20,21
 778 736 778 736 700.5 809 c 128,-1,22
 623 882 623 882 526 882 c 0,23,24
 502 882 502 882 480 878 c 128,-1,25
 458 874 458 874 439 866 c 128,-1,26
 420 858 420 858 404 850 c 128,-1,27
 388 842 388 842 372.5 829 c 128,-1,28
 357 816 357 816 346.5 807.5 c 128,-1,29
 336 799 336 799 324 784.5 c 128,-1,30
 312 770 312 770 307 763.5 c 128,-1,31
 302 757 302 757 293 745 c 128,-1,32
 284 733 284 733 284 732 c 2,33,-1
 154 812 l 1,34,35
 172 839 172 839 184.5 855 c 128,-1,36
 197 871 197 871 234.5 909 c 128,-1,37
 272 947 272 947 308.5 970 c 128,-1,38
 345 993 345 993 404 1012.5 c 128,-1,39
 463 1032 463 1032 526 1032 c 0,40,41
 607 1032 607 1032 683.5 1001 c 128,-1,42
 760 970 760 970 820 914 c 128,-1,43
 880 858 880 858 916.5 770 c 128,-1,44
 953 682 953 682 953 577 c 2,45,-1
 953 242 l 2,46,47
 953 174 953 174 966 105.5 c 128,-1,48
 979 37 979 37 998 0 c 1,0,-1
453 134 m 0,49,50
 551 134 551 134 647 197 c 128,-1,51
 743 260 743 260 795 346 c 1,52,-1
 795 481 l 1,53,54
 711 480 711 480 644.5 475 c 128,-1,55
 578 470 578 470 503 457 c 128,-1,56
 428 444 428 444 378 423 c 128,-1,57
 328 402 328 402 295 365 c 128,-1,58
 262 328 262 328 262 278 c 0,59,60
 262 226 262 226 310 180 c 128,-1,61
 358 134 358 134 453 134 c 0,49,50
EndSplineSet
EndChar

StartChar: b
Encoding: 98 98 66
Width: 1219
VWidth: 2835
Flags: W
HStem: -13 150<481.181 787.302> 880 150<481.604 787.302>
VStem: 143 159<3.5267 154 328.455 687.333 865 1491> 969 155<329.809 685.747>
LayerCount: 3
Fore
SplineSet
302 154 m 1
 302 81 289 45 275 0 c 1
 98 0 l 1
 139 74 143 228 143 297 c 2
 143 1491 l 1
 302 1491 l 1
 302 865 l 1
 385 961 517 1030 636 1030 c 0
 914 1030 1124 788 1124 508 c 0
 1124 226 914 -13 636 -13 c 0
 515 -13 385 58 302 154 c 1
302 508 m 0
 302 297 459 137 636 137 c 0
 810 137 969 297 969 508 c 0
 969 718 810 880 636 880 c 0
 459 880 302 718 302 508 c 0
EndSplineSet
Validated: 1
Layer: 2
SplineSet
302 154 m 1,0,1
 302 87 302 87 275 0 c 1,2,-1
 98 0 l 1,3,4
 143 81 143 81 143 297 c 2,5,-1
 143 1491 l 1,6,-1
 302 1491 l 1,7,-1
 302 865 l 1,8,9
 365 938 365 938 456.5 984 c 128,-1,10
 548 1030 548 1030 636 1030 c 0,11,12
 772 1030 772 1030 884.5 958 c 128,-1,13
 997 886 997 886 1060.5 766.5 c 128,-1,14
 1124 647 1124 647 1124 508 c 0,15,16
 1124 368 1124 368 1060.5 248.5 c 128,-1,17
 997 129 997 129 884.5 58 c 128,-1,18
 772 -13 772 -13 636 -13 c 0,19,20
 547 -13 547 -13 456.5 33.5 c 128,-1,21
 366 80 366 80 302 154 c 1,0,1
302 508 m 0,22,23
 302 352 302 352 401.5 244.5 c 128,-1,24
 501 137 501 137 636 137 c 0,25,26
 769 137 769 137 869 245 c 128,-1,27
 969 353 969 353 969 508 c 128,-1,28
 969 663 969 663 869 771.5 c 128,-1,29
 769 880 769 880 636 880 c 0,30,31
 501 880 501 880 401.5 771.5 c 128,-1,32
 302 663 302 663 302 508 c 0,22,23
EndSplineSet
EndChar

StartChar: c
Encoding: 99 99 67
Width: 1113
VWidth: 2822
Flags: W
HStem: -13 152<435.199 742.261> 875 155<428.982 745.239>
VStem: 98 154<330.809 685.935>
LayerCount: 3
Fore
SplineSet
884 338 m 1
 1021 265 l 1
 974 184 846 -13 587 -13 c 0
 309 -13 98 226 98 508 c 0
 98 788 309 1030 587 1030 c 0
 861 1030 987 808 1021 752 c 1
 884 675 l 1
 848 737 765 875 587 875 c 0
 410 875 252 720 252 510 c 0
 252 299 412 139 587 139 c 0
 775 139 859 295 884 338 c 1
EndSplineSet
Validated: 1
Layer: 2
SplineSet
884 338 m 1,0,-1
 1021 265 l 1,1,2
 860 -13 860 -13 587 -13 c 0,3,4
 451 -13 451 -13 338 58 c 128,-1,5
 225 129 225 129 161.5 248.5 c 128,-1,6
 98 368 98 368 98 508 c 0,7,8
 98 647 98 647 161.5 766.5 c 128,-1,9
 225 886 225 886 338 958 c 128,-1,10
 451 1030 451 1030 587 1030 c 0,11,12
 643 1030 643 1030 696 1016.5 c 128,-1,13
 749 1003 749 1003 786.5 985.5 c 128,-1,14
 824 968 824 968 862.5 937 c 128,-1,15
 901 906 901 906 922 886 c 128,-1,16
 943 866 943 866 968.5 831 c 128,-1,17
 994 796 994 796 1000 786 c 128,-1,18
 1006 776 1006 776 1021 752 c 1,19,-1
 884 675 l 1,20,21
 869 702 869 702 856.5 720.5 c 128,-1,22
 844 739 844 739 815.5 771 c 128,-1,23
 787 803 787 803 757.5 823.5 c 128,-1,24
 728 844 728 844 683 859.5 c 128,-1,25
 638 875 638 875 587 875 c 0,26,27
 451 875 451 875 351.5 770 c 128,-1,28
 252 665 252 665 252 510 c 128,-1,29
 252 355 252 355 352.5 247 c 128,-1,30
 453 139 453 139 587 139 c 0,31,32
 640 139 640 139 688 157 c 128,-1,33
 736 175 736 175 765 195 c 128,-1,34
 794 215 794 215 823.5 250.5 c 128,-1,35
 853 286 853 286 861 299 c 128,-1,36
 869 312 869 312 884 338 c 1,0,-1
EndSplineSet
EndChar

StartChar: d
Encoding: 100 100 68
Width: 1219
VWidth: 2835
Flags: W
HStem: -13 150<435.199 741.078> 880 150<435.199 740.655>
VStem: 98 154<329.809 685.747> 920 159<2.37677 154 328.455 687.333 865 1491>
LayerCount: 3
Fore
SplineSet
1124 0 m 1
 947 0 l 1
 933 45 920 81 920 154 c 1
 837 58 707 -13 587 -13 c 0
 309 -13 98 226 98 508 c 0
 98 788 309 1030 587 1030 c 0
 705 1030 837 961 920 865 c 1
 920 1491 l 1
 1079 1491 l 1
 1079 297 l 2
 1079 208 1097 49 1124 0 c 1
920 508 m 0
 920 718 763 880 587 880 c 0
 412 880 252 718 252 508 c 0
 252 297 412 137 587 137 c 0
 763 137 920 297 920 508 c 0
EndSplineSet
Validated: 1
Layer: 2
SplineSet
1124 0 m 1,0,-1
 947 0 l 1,1,2
 920 87 920 87 920 154 c 1,3,4
 856 80 856 80 765.5 33.5 c 128,-1,5
 675 -13 675 -13 587 -13 c 0,6,7
 451 -13 451 -13 338 58 c 128,-1,8
 225 129 225 129 161.5 248.5 c 128,-1,9
 98 368 98 368 98 508 c 0,10,11
 98 647 98 647 161.5 766.5 c 128,-1,12
 225 886 225 886 338 958 c 128,-1,13
 451 1030 451 1030 587 1030 c 0,14,15
 674 1030 674 1030 765.5 984 c 128,-1,16
 857 938 857 938 920 865 c 1,17,-1
 920 1491 l 1,18,-1
 1079 1491 l 1,19,-1
 1079 297 l 2,20,21
 1079 223 1079 223 1092 128.5 c 128,-1,22
 1105 34 1105 34 1124 0 c 1,0,-1
920 508 m 0,23,24
 920 663 920 663 820.5 771.5 c 128,-1,25
 721 880 721 880 587 880 c 128,-1,26
 453 880 453 880 352.5 771.5 c 128,-1,27
 252 663 252 663 252 508 c 128,-1,28
 252 353 252 353 352.5 245 c 128,-1,29
 453 137 453 137 587 137 c 128,-1,30
 721 137 721 137 820.5 244.5 c 128,-1,31
 920 352 920 352 920 508 c 0,23,24
EndSplineSet
EndChar

StartChar: e
Encoding: 101 101 69
Width: 1183
VWidth: 2822
Flags: W
HStem: -13 152<435.786 758.712> 474 148<273 908> 878 152<438.868 745.99>
LayerCount: 3
Fore
SplineSet
273 622 m 1
 908 622 l 1
 865 775 734 878 591 878 c 0
 450 878 320 775 273 622 c 1
255 474 m 1
 271 280 421 139 587 139 c 0
 716 139 835 205 914 338 c 1
 1050 265 l 1
 912 22 692 -13 587 -13 c 0
 309 -13 98 226 98 508 c 0
 98 788 314 1030 591 1030 c 0
 855 1030 1059 812 1081 551 c 1
 1085 474 l 1
 255 474 l 1
EndSplineSet
Validated: 1
Layer: 2
SplineSet
273 622 m 1,0,-1
 908 622 l 1,1,2
 876 736 876 736 787.5 807 c 128,-1,3
 699 878 699 878 591 878 c 0,4,5
 485 878 485 878 396.5 807 c 128,-1,6
 308 736 308 736 273 622 c 1,0,-1
255 474 m 1,7,8
 267 330 267 330 364 234.5 c 128,-1,9
 461 139 461 139 587 139 c 0,10,11
 686 139 686 139 771 189.5 c 128,-1,12
 856 240 856 240 914 338 c 1,13,-1
 1050 265 l 1,14,15
 1011 196 1011 196 959 143.5 c 128,-1,16
 907 91 907 91 858 62 c 128,-1,17
 809 33 809 33 755 15 c 128,-1,18
 701 -3 701 -3 662.5 -8 c 128,-1,19
 624 -13 624 -13 587 -13 c 0,20,21
 451 -13 451 -13 338 58 c 128,-1,22
 225 129 225 129 161.5 248.5 c 128,-1,23
 98 368 98 368 98 508 c 0,24,25
 98 647 98 647 163 766.5 c 128,-1,26
 228 886 228 886 342 958 c 128,-1,27
 456 1030 456 1030 591 1030 c 0,28,29
 720 1030 720 1030 829 965 c 128,-1,30
 938 900 938 900 1004 790.5 c 128,-1,31
 1070 681 1070 681 1081 551 c 1,32,-1
 1085 474 l 1,33,-1
 255 474 l 1,7,8
EndSplineSet
EndChar

StartChar: f
Encoding: 102 102 70
Width: 585
VWidth: 2835
Flags: W
HStem: 0 21G<143 302> 861 153<58 143 302 538> 1354 124<421.999 577>
VStem: 143 159<0 861 1014 1224.8>
LayerCount: 3
Fore
SplineSet
143 861 m 1
 58 861 l 1
 58 1014 l 1
 143 1014 l 1
 143 1066 l 2
 143 1290 318 1478 542 1478 c 2
 577 1478 l 1
 577 1354 l 1
 542 1354 l 2
 419 1354 302 1220 302 1066 c 2
 302 1014 l 1
 591 1014 l 1
 538 861 l 1
 302 861 l 1
 302 0 l 1
 143 0 l 1
 143 861 l 1
EndSplineSet
Validated: 1
Layer: 2
SplineSet
143 861 m 1,0,-1
 58 861 l 1,1,-1
 58 1014 l 1,2,-1
 143 1014 l 1,3,-1
 143 1066 l 2,4,5
 143 1235 143 1235 259 1356.5 c 128,-1,6
 375 1478 375 1478 542 1478 c 2,7,-1
 577 1478 l 1,8,-1
 577 1354 l 1,9,-1
 542 1354 l 2,10,11
 449 1354 449 1354 375.5 1267 c 128,-1,12
 302 1180 302 1180 302 1066 c 2,13,-1
 302 1014 l 1,14,-1
 591 1014 l 1,15,-1
 538 861 l 1,16,-1
 302 861 l 1,17,-1
 302 0 l 1,18,-1
 143 0 l 1,19,-1
 143 861 l 1,0,-1
EndSplineSet
EndChar

StartChar: g
Encoding: 103 103 71
Width: 1215
VWidth: 2804
Flags: W
HStem: -491 151<432.17 737.65> -15 149<426.657 734.882> 878 149<426.657 735.311>
VStem: 98 150<328.093 683.685> 920 159<-144.282 150 334.203 677.357 857 1010.38>
LayerCount: 3
Fore
SplineSet
920 857 m 1
 920 933 933 969 947 1014 c 1
 1124 1014 l 1
 1083 938 1079 784 1079 714 c 2
 1079 32 l 2
 1079 -248 861 -491 585 -491 c 0
 416 -491 314 -410 233 -333 c 1
 346 -228 l 1
 399 -278 470 -340 587 -340 c 0
 763 -340 920 -179 920 32 c 2
 920 150 l 1
 837 51 705 -15 587 -15 c 0
 309 -15 98 226 98 506 c 0
 98 786 309 1027 587 1027 c 0
 707 1027 837 953 920 857 c 1
916 506 m 0
 916 716 756 878 581 878 c 0
 406 878 248 716 248 506 c 0
 248 295 406 134 581 134 c 0
 756 134 916 295 916 506 c 0
EndSplineSet
Validated: 1
Layer: 2
SplineSet
920 857 m 1,0,1
 920 927 920 927 947 1014 c 1,2,-1
 1124 1014 l 1,3,4
 1079 931 1079 931 1079 714 c 2,5,-1
 1079 32 l 2,6,7
 1079 -106 1079 -106 1014 -226.5 c 128,-1,8
 949 -347 949 -347 834.5 -419 c 128,-1,9
 720 -491 720 -491 585 -491 c 0,10,11
 471 -491 471 -491 390.5 -448.5 c 128,-1,12
 310 -406 310 -406 233 -333 c 1,13,-1
 346 -228 l 1,14,15
 381 -261 381 -261 407.5 -281 c 128,-1,16
 434 -301 434 -301 483.5 -320.5 c 128,-1,17
 533 -340 533 -340 587 -340 c 0,18,19
 721 -340 721 -340 820.5 -232 c 128,-1,20
 920 -124 920 -124 920 32 c 2,21,-1
 920 150 l 1,22,23
 858 76 858 76 766.5 30.5 c 128,-1,24
 675 -15 675 -15 587 -15 c 0,25,26
 451 -15 451 -15 338 56.5 c 128,-1,27
 225 128 225 128 161.5 247.5 c 128,-1,28
 98 367 98 367 98 506 c 128,-1,29
 98 645 98 645 161.5 764.5 c 128,-1,30
 225 884 225 884 338 955.5 c 128,-1,31
 451 1027 451 1027 587 1027 c 0,32,33
 674 1027 674 1027 765 979.5 c 128,-1,34
 856 932 856 932 920 857 c 1,0,1
916 506 m 128,-1,36
 916 661 916 661 815.5 769.5 c 128,-1,37
 715 878 715 878 581 878 c 128,-1,38
 447 878 447 878 347.5 769.5 c 128,-1,39
 248 661 248 661 248 506 c 0,40,41
 248 350 248 350 347.5 242 c 128,-1,42
 447 134 447 134 581 134 c 128,-1,43
 715 134 715 134 815.5 242.5 c 128,-1,35
 916 351 916 351 916 506 c 128,-1,36
EndSplineSet
EndChar

StartChar: h
Encoding: 104 104 72
Width: 1078
VWidth: 2835
Flags: W
HStem: 0 21G<143 302 781 938> 880 150<492.046 710.432> 1473 20G<143 302>
VStem: 143 159<0 657.861 837 1493> 781 157<0 800.737>
LayerCount: 3
Fore
SplineSet
143 0 m 1
 143 1493 l 1
 302 1493 l 1
 302 837 l 1
 378 942 493 1030 602 1030 c 0
 835 1030 938 833 938 620 c 2
 938 0 l 1
 781 0 l 1
 781 620 l 2
 781 730 745 880 600 880 c 0
 461 880 302 634 302 508 c 2
 302 0 l 1
 143 0 l 1
EndSplineSet
Validated: 1
Layer: 2
SplineSet
143 0 m 1,0,-1
 143 1493 l 1,1,-1
 302 1493 l 1,2,-1
 302 837 l 1,3,4
 363 921 363 921 443.5 975.5 c 128,-1,5
 524 1030 524 1030 602 1030 c 0,6,7
 686 1030 686 1030 752 996.5 c 128,-1,8
 818 963 818 963 858 905 c 128,-1,9
 898 847 898 847 918 774.5 c 128,-1,10
 938 702 938 702 938 620 c 2,11,-1
 938 0 l 1,12,-1
 781 0 l 1,13,-1
 781 620 l 2,14,15
 781 666 781 666 772.5 708 c 128,-1,16
 764 750 764 750 745 790.5 c 128,-1,17
 726 831 726 831 689 855.5 c 128,-1,18
 652 880 652 880 600 880 c 0,19,20
 534 880 534 880 462.5 813 c 128,-1,21
 391 746 391 746 346.5 658.5 c 128,-1,22
 302 571 302 571 302 508 c 2,23,-1
 302 0 l 1,24,-1
 143 0 l 1,0,-1
EndSplineSet
EndChar

StartChar: i
Encoding: 105 105 73
Width: 436
VWidth: 2830
Flags: W
HStem: 0 21G<141 299> 1128 217<129.703 313.07>
VStem: 107 229<1150.54 1321.62> 141 158<0 1014>
LayerCount: 3
Fore
SplineSet
222 1345 m 0xe0
 284 1345 336 1296 336 1235 c 0
 336 1175 284 1128 222 1128 c 0
 156 1128 107 1175 107 1235 c 0
 107 1296 158 1345 222 1345 c 0xe0
299 0 m 1xd0
 141 0 l 1
 141 1014 l 1
 299 1014 l 1
 299 0 l 1xd0
EndSplineSet
Validated: 1
Layer: 2
SplineSet
222 1345 m 0,0,1
 269 1345 269 1345 302.5 1313 c 128,-1,2
 336 1281 336 1281 336 1235 c 0,3,4
 336 1190 336 1190 302.5 1159 c 128,-1,5
 269 1128 269 1128 222 1128 c 0,6,7
 173 1128 173 1128 140 1159 c 128,-1,8
 107 1190 107 1190 107 1235 c 0,9,10
 107 1281 107 1281 140.5 1313 c 128,-1,11
 174 1345 174 1345 222 1345 c 0,0,1
299 0 m 1,12,-1
 141 0 l 1,13,-1
 141 1014 l 1,14,-1
 299 1014 l 1,15,-1
 299 0 l 1,12,-1
EndSplineSet
EndChar

StartChar: j
Encoding: 106 106 74
Width: 436
VWidth: 2822
Flags: W
HStem: -291 137<-49 81.4666> 996 20G<143 302> 1126 217<127.703 310.431>
VStem: 105 228<1149.31 1320.38> 143 159<-88.9219 1016>
LayerCount: 3
Fore
SplineSet
143 1016 m 1xe8
 302 1016 l 1
 302 36 l 2
 302 -139 166 -291 -15 -291 c 2
 -49 -291 l 1
 -49 -154 l 1
 -15 -154 l 2
 64 -154 143 -74 143 36 c 2
 143 1016 l 1xe8
220 1343 m 0
 282 1343 333 1296 333 1235 c 0
 333 1175 282 1126 220 1126 c 0
 156 1126 105 1175 105 1235 c 0xf0
 105 1296 156 1343 220 1343 c 0
EndSplineSet
Validated: 1
Layer: 2
SplineSet
143 1016 m 1,0,-1
 302 1016 l 1,1,-1
 302 36 l 2,2,3
 302 -97 302 -97 210.5 -194 c 128,-1,4
 119 -291 119 -291 -15 -291 c 2,5,-1
 -49 -291 l 1,6,-1
 -49 -154 l 1,7,-1
 -15 -154 l 2,8,9
 46 -154 46 -154 94.5 -99 c 128,-1,10
 143 -44 143 -44 143 36 c 2,11,-1
 143 1016 l 1,0,-1
220 1343 m 0,12,13
 267 1343 267 1343 300 1311.5 c 128,-1,14
 333 1280 333 1280 333 1235 c 128,-1,15
 333 1190 333 1190 300 1158 c 128,-1,16
 267 1126 267 1126 220 1126 c 0,17,18
 172 1126 172 1126 138.5 1158 c 128,-1,19
 105 1190 105 1190 105 1235 c 0,20,21
 105 1281 105 1281 138.5 1312 c 128,-1,22
 172 1343 172 1343 220 1343 c 0,12,13
EndSplineSet
EndChar

StartChar: k
Encoding: 107 107 75
Width: 1021
VWidth: 2835
Flags: W
HStem: 0 21G<143 302 800.05 1023> 996 20G<671.009 931> 1473 20G<143 302>
VStem: 143 159<0 472 675 1493>
DStem2: 302 675 470 615 0.756363 0.654152<87.8199 519.56> 470 615 354 517 0.668631 -0.743595<0 689.994>
LayerCount: 3
Fore
SplineSet
302 0 m 1
 143 0 l 1
 143 1493 l 1
 302 1493 l 1
 302 675 l 1
 694 1016 l 1
 931 1016 l 1
 470 615 l 1
 1023 0 l 1
 818 0 l 1
 354 517 l 1
 302 472 l 1
 302 0 l 1
EndSplineSet
Validated: 1
Layer: 2
SplineSet
302 0 m 1,0,-1
 143 0 l 1,1,-1
 143 1493 l 1,2,-1
 302 1493 l 1,3,-1
 302 675 l 1,4,-1
 694 1016 l 1,5,-1
 931 1016 l 1,6,-1
 470 615 l 1,7,-1
 1023 0 l 1,8,-1
 818 0 l 1,9,-1
 354 517 l 1,10,-1
 302 472 l 1,11,-1
 302 0 l 1,0,-1
EndSplineSet
EndChar

StartChar: l
Encoding: 108 108 76
Width: 440
VWidth: 2835
Flags: W
HStem: 0 21G<143 302> 1473 20G<143 302>
VStem: 143 159<0 1493>
LayerCount: 3
Fore
SplineSet
302 0 m 1
 143 0 l 1
 143 1493 l 1
 302 1493 l 1
 302 0 l 1
EndSplineSet
Validated: 1
Layer: 2
SplineSet
302 0 m 1,0,-1
 143 0 l 1,1,-1
 143 1493 l 1,2,-1
 302 1493 l 1,3,-1
 302 0 l 1,0,-1
EndSplineSet
EndChar

StartChar: m
Encoding: 109 109 77
Width: 1591
VWidth: 2822
Flags: W
HStem: 0 21G<143 302 718 875 1294 1450> 880 147<471.424 656.783 1051.23 1228.12>
VStem: 143 159<0 665.415 818 1012.57> 718 157<0 657.77> 1294 156<0 809.484>
LayerCount: 3
Fore
SplineSet
302 818 m 1
 361 931 474 1027 579 1027 c 0
 728 1027 818 938 859 818 c 1
 929 933 1036 1027 1141 1027 c 0
 1363 1027 1450 820 1450 615 c 2
 1450 0 l 1
 1294 0 l 1
 1294 615 l 2
 1294 726 1262 875 1139 875 c 0
 1025 875 875 638 875 506 c 2
 875 0 l 1
 718 0 l 1
 718 620 l 2
 718 730 687 880 562 880 c 0
 459 880 302 651 302 508 c 2
 302 0 l 1
 143 0 l 1
 143 716 l 2
 143 808 126 965 98 1016 c 1
 275 1016 l 1
 297 942 302 922 302 818 c 1
EndSplineSet
Validated: 1
Layer: 2
SplineSet
302 818 m 1,0,1
 348 906 348 906 425.5 966.5 c 128,-1,2
 503 1027 503 1027 579 1027 c 0,3,4
 686 1027 686 1027 756 970.5 c 128,-1,5
 826 914 826 914 859 818 c 1,6,7
 915 909 915 909 990.5 968 c 128,-1,8
 1066 1027 1066 1027 1141 1027 c 0,9,10
 1205 1027 1205 1027 1258 1003.5 c 128,-1,11
 1311 980 1311 980 1346 941 c 128,-1,12
 1381 902 1381 902 1405 848.5 c 128,-1,13
 1429 795 1429 795 1439.5 736.5 c 128,-1,14
 1450 678 1450 678 1450 615 c 2,15,-1
 1450 0 l 1,16,-1
 1294 0 l 1,17,-1
 1294 615 l 2,18,19
 1294 661 1294 661 1286.5 703 c 128,-1,20
 1279 745 1279 745 1263 785.5 c 128,-1,21
 1247 826 1247 826 1215 850.5 c 128,-1,22
 1183 875 1183 875 1139 875 c 0,23,24
 1085 875 1085 875 1021.5 810.5 c 128,-1,25
 958 746 958 746 916.5 658.5 c 128,-1,26
 875 571 875 571 875 506 c 2,27,-1
 875 0 l 1,28,-1
 718 0 l 1,29,-1
 718 620 l 2,30,31
 718 666 718 666 711 708 c 128,-1,32
 704 750 704 750 687.5 790.5 c 128,-1,33
 671 831 671 831 638.5 855.5 c 128,-1,34
 606 880 606 880 562 880 c 0,35,36
 512 880 512 880 450 817.5 c 128,-1,37
 388 755 388 755 345 666 c 128,-1,38
 302 577 302 577 302 508 c 2,39,-1
 302 0 l 1,40,-1
 143 0 l 1,41,-1
 143 716 l 2,42,43
 143 793 143 793 130.5 886.5 c 128,-1,44
 118 980 118 980 98 1016 c 1,45,-1
 275 1016 l 1,46,47
 293 957 293 957 297.5 924.5 c 128,-1,48
 302 892 302 892 302 818 c 1,0,1
EndSplineSet
EndChar

StartChar: n
Encoding: 110 110 78
Width: 1078
VWidth: 2822
Flags: W
HStem: 0 21G<141 299 779 938> 880 150<492.024 709.432>
VStem: 141 158<0 649.226 820 1012.66> 779 159<0 800.737>
LayerCount: 3
Fore
SplineSet
273 1016 m 1
 295 944 299 922 299 820 c 1
 369 925 491 1030 602 1030 c 0
 835 1030 938 833 938 620 c 2
 938 0 l 1
 779 0 l 1
 779 620 l 2
 779 730 743 880 598 880 c 0
 459 880 299 632 299 508 c 2
 299 0 l 1
 141 0 l 1
 141 716 l 2
 141 808 124 967 96 1016 c 1
 273 1016 l 1
EndSplineSet
Validated: 1
Layer: 2
SplineSet
273 1016 m 1,0,1
 290 961 290 961 294.5 928 c 128,-1,2
 299 895 299 895 299 820 c 1,3,4
 356 906 356 906 440 968 c 128,-1,5
 524 1030 524 1030 602 1030 c 0,6,7
 686 1030 686 1030 752 996.5 c 128,-1,8
 818 963 818 963 858 905 c 128,-1,9
 898 847 898 847 918 774.5 c 128,-1,10
 938 702 938 702 938 620 c 2,11,-1
 938 0 l 1,12,-1
 779 0 l 1,13,-1
 779 620 l 2,14,15
 779 666 779 666 770.5 708 c 128,-1,16
 762 750 762 750 743 790.5 c 128,-1,17
 724 831 724 831 687 855.5 c 128,-1,18
 650 880 650 880 598 880 c 0,19,20
 533 880 533 880 461 812.5 c 128,-1,21
 389 745 389 745 344 657.5 c 128,-1,22
 299 570 299 570 299 508 c 2,23,-1
 299 0 l 1,24,-1
 141 0 l 1,25,-1
 141 716 l 2,26,27
 141 793 141 793 128.5 887.5 c 128,-1,28
 116 982 116 982 96 1016 c 1,29,-1
 273 1016 l 1,0,1
EndSplineSet
EndChar

StartChar: o
Encoding: 111 111 79
Width: 1282
VWidth: 2822
Flags: W
HStem: -13 150<464.086 829.697> 878 152<464.086 829.697>
VStem: 98 160<339.708 675.993> 1034 152<339.708 675.993>
LayerCount: 3
Fore
SplineSet
1186 508 m 0
 1186 220 942 -13 643 -13 c 0
 342 -13 98 220 98 508 c 0
 98 797 342 1030 643 1030 c 0
 942 1030 1186 797 1186 508 c 0
258 508 m 0
 258 302 430 137 645 137 c 0
 859 137 1034 302 1034 508 c 0
 1034 712 859 878 645 878 c 0
 430 878 258 712 258 508 c 0
EndSplineSet
Validated: 1
Layer: 2
SplineSet
1186 508 m 128,-1,1
 1186 366 1186 366 1113 246 c 128,-1,2
 1040 126 1040 126 915 56.5 c 128,-1,3
 790 -13 790 -13 643 -13 c 0,4,5
 495 -13 495 -13 369.5 56.5 c 128,-1,6
 244 126 244 126 171 246 c 128,-1,7
 98 366 98 366 98 508 c 128,-1,8
 98 650 98 650 171 770.5 c 128,-1,9
 244 891 244 891 369.5 960.5 c 128,-1,10
 495 1030 495 1030 643 1030 c 0,11,12
 790 1030 790 1030 915 960.5 c 128,-1,13
 1040 891 1040 891 1113 770.5 c 128,-1,0
 1186 650 1186 650 1186 508 c 128,-1,1
258 508 m 0,14,15
 258 353 258 353 371 245 c 128,-1,16
 484 137 484 137 645 137 c 128,-1,17
 806 137 806 137 920 245.5 c 128,-1,18
 1034 354 1034 354 1034 508 c 0,19,20
 1034 661 1034 661 920 769.5 c 128,-1,21
 806 878 806 878 645 878 c 128,-1,22
 484 878 484 878 371 769.5 c 128,-1,23
 258 661 258 661 258 508 c 0,14,15
EndSplineSet
EndChar

StartChar: p
Encoding: 112 112 80
Width: 1219
VWidth: 2806
Flags: W
HStem: -471 21G<143 302> -13 150<481.604 787.302> 880 150<481.181 787.302>
VStem: 143 159<-471 152 328.455 687.333 859 1013.62> 969 155<330.209 685.747>
LayerCount: 3
Fore
SplineSet
98 1016 m 1
 275 1016 l 1
 289 972 302 936 302 859 c 1
 385 955 515 1030 636 1030 c 0
 914 1030 1124 788 1124 508 c 0
 1124 228 914 -13 636 -13 c 0
 517 -13 385 54 302 152 c 1
 302 -471 l 1
 143 -471 l 1
 143 718 l 2
 143 808 126 967 98 1016 c 1
302 508 m 0
 302 297 459 137 636 137 c 0
 810 137 969 297 969 508 c 0
 969 718 810 880 636 880 c 0
 459 880 302 718 302 508 c 0
EndSplineSet
Validated: 1
Layer: 2
SplineSet
98 1016 m 1,0,-1
 275 1016 l 1,1,2
 302 931 302 931 302 859 c 1,3,4
 367 934 367 934 457.5 982 c 128,-1,5
 548 1030 548 1030 636 1030 c 0,6,7
 772 1030 772 1030 884.5 958 c 128,-1,8
 997 886 997 886 1060.5 766.5 c 128,-1,9
 1124 647 1124 647 1124 508 c 128,-1,10
 1124 369 1124 369 1060.5 249.5 c 128,-1,11
 997 130 997 130 884.5 58.5 c 128,-1,12
 772 -13 772 -13 636 -13 c 0,13,14
 547 -13 547 -13 456 32.5 c 128,-1,15
 365 78 365 78 302 152 c 1,16,-1
 302 -471 l 1,17,-1
 143 -471 l 1,18,-1
 143 718 l 2,19,20
 143 794 143 794 130.5 888 c 128,-1,21
 118 982 118 982 98 1016 c 1,0,-1
302 508 m 0,22,23
 302 352 302 352 401.5 244.5 c 128,-1,24
 501 137 501 137 636 137 c 0,25,26
 769 137 769 137 869 245 c 128,-1,27
 969 353 969 353 969 508 c 128,-1,28
 969 663 969 663 869 771.5 c 128,-1,29
 769 880 769 880 636 880 c 0,30,31
 501 880 501 880 401.5 771.5 c 128,-1,32
 302 663 302 663 302 508 c 0,22,23
EndSplineSet
EndChar

StartChar: q
Encoding: 113 113 81
Width: 1219
VWidth: 2806
Flags: W
HStem: -471 21G<920 1079> -13 150<435.199 743.43> 880 150<435.199 741.078>
VStem: 98 154<330.209 685.747> 920 159<-471 152 328.455 687.333 859 1012.38>
LayerCount: 3
Fore
SplineSet
920 859 m 1
 920 936 933 972 947 1016 c 1
 1124 1016 l 1
 1083 940 1079 788 1079 718 c 2
 1079 -471 l 1
 920 -471 l 1
 920 152 l 1
 837 54 705 -13 587 -13 c 0
 309 -13 98 228 98 508 c 0
 98 788 309 1030 587 1030 c 0
 707 1030 837 955 920 859 c 1
920 508 m 0
 920 718 763 880 587 880 c 0
 412 880 252 718 252 508 c 0
 252 297 412 137 587 137 c 0
 763 137 920 297 920 508 c 0
EndSplineSet
Validated: 1
Layer: 2
SplineSet
920 859 m 1,0,1
 920 931 920 931 947 1016 c 1,2,-1
 1124 1016 l 1,3,4
 1079 933 1079 933 1079 718 c 2,5,-1
 1079 -471 l 1,6,-1
 920 -471 l 1,7,-1
 920 152 l 1,8,9
 857 78 857 78 766 32.5 c 128,-1,10
 675 -13 675 -13 587 -13 c 0,11,12
 451 -13 451 -13 338 58.5 c 128,-1,13
 225 130 225 130 161.5 249.5 c 128,-1,14
 98 369 98 369 98 508 c 128,-1,15
 98 647 98 647 161.5 766.5 c 128,-1,16
 225 886 225 886 338 958 c 128,-1,17
 451 1030 451 1030 587 1030 c 0,18,19
 674 1030 674 1030 764.5 982 c 128,-1,20
 855 934 855 934 920 859 c 1,0,1
920 508 m 0,21,22
 920 663 920 663 820.5 771.5 c 128,-1,23
 721 880 721 880 587 880 c 128,-1,24
 453 880 453 880 352.5 771.5 c 128,-1,25
 252 663 252 663 252 508 c 128,-1,26
 252 353 252 353 352.5 245 c 128,-1,27
 453 137 453 137 587 137 c 128,-1,28
 721 137 721 137 820.5 244.5 c 128,-1,29
 920 352 920 352 920 508 c 0,21,22
EndSplineSet
EndChar

StartChar: r
Encoding: 114 114 82
Width: 737
VWidth: 2822
Flags: W
HStem: 0 21G<143 299> 996 20G<98 281>
VStem: 143 156<0 694.985 865 1013.62>
LayerCount: 3
Fore
SplineSet
299 865 m 1
 374 949 457 1003 544 1034 c 1
 743 895 l 1
 325 895 299 593 299 521 c 2
 299 0 l 1
 143 0 l 1
 143 716 l 2
 143 808 124 967 98 1016 c 1
 273 1016 l 1
 289 972 299 936 299 865 c 1
EndSplineSet
Validated: 1
Layer: 2
SplineSet
299 865 m 1,0,1
 406 985 406 985 544 1034 c 1,2,-1
 743 895 l 1,3,4
 657 895 657 895 587 877.5 c 128,-1,5
 517 860 517 860 472 833.5 c 128,-1,6
 427 807 427 807 393 770 c 128,-1,7
 359 733 359 733 342 699 c 128,-1,8
 325 665 325 665 314.5 626.5 c 128,-1,9
 304 588 304 588 301.5 565 c 128,-1,10
 299 542 299 542 299 521 c 2,11,-1
 299 0 l 1,12,-1
 143 0 l 1,13,-1
 143 716 l 2,14,15
 143 791 143 791 129.5 886 c 128,-1,16
 116 981 116 981 98 1016 c 1,17,-1
 273 1016 l 1,18,19
 299 945 299 945 299 865 c 1,0,1
EndSplineSet
EndChar

StartChar: s
Encoding: 115 115 83
Width: 906
VWidth: 2822
Flags: W
HStem: -17 151<329.296 588.072> 882 150<357.871 560.788>
VStem: 98 157<214.089 334.735> 177 159<701.361 858.066> 654 156<199.037 406.102>
LayerCount: 3
Fore
SplineSet
759 795 m 1xd8
 611 743 l 1
 600 777 l 1
 573 850 513 882 457 882 c 0
 387 882 336 837 336 771 c 0xd8
 336 609 810 643 810 309 c 0
 810 114 640 -17 453 -17 c 0
 293 -17 134 81 103 299 c 1
 98 333 l 1
 255 352 l 1xe8
 260 320 l 1
 278 186 365 134 455 134 c 0
 555 134 654 201 654 309 c 0
 654 526 177 466 177 771 c 0
 177 936 312 1032 457 1032 c 0
 551 1032 690 985 748 826 c 1
 759 795 l 1xd8
EndSplineSet
Validated: 1
Layer: 2
SplineSet
759 795 m 1,0,-1
 611 743 l 1,1,-1
 600 777 l 2,2,3
 581 829 581 829 541.5 855.5 c 128,-1,4
 502 882 502 882 457 882 c 0,5,6
 404 882 404 882 370 851 c 128,-1,7
 336 820 336 820 336 771 c 0,8,9
 336 739 336 739 362 712.5 c 128,-1,10
 388 686 388 686 430 666.5 c 128,-1,11
 472 647 472 647 522.5 627 c 128,-1,12
 573 607 573 607 623.5 580 c 128,-1,13
 674 553 674 553 716 519 c 128,-1,14
 758 485 758 485 784 431 c 128,-1,15
 810 377 810 377 810 309 c 0,16,17
 810 167 810 167 704 75 c 128,-1,18
 598 -17 598 -17 453 -17 c 0,19,20
 370 -17 370 -17 298 15.5 c 128,-1,21
 226 48 226 48 172 121.5 c 128,-1,22
 118 195 118 195 103 299 c 2,23,-1
 98 333 l 1,24,-1
 255 352 l 1,25,-1
 260 320 l 2,26,27
 273 226 273 226 327 180 c 128,-1,28
 381 134 381 134 455 134 c 0,29,30
 534 134 534 134 594 182.5 c 128,-1,31
 654 231 654 231 654 309 c 0,32,33
 654 353 654 353 627.5 386.5 c 128,-1,34
 601 420 601 420 559 442.5 c 128,-1,35
 517 465 517 465 466.5 485.5 c 128,-1,36
 416 506 416 506 365 530 c 128,-1,37
 314 554 314 554 272 583.5 c 128,-1,38
 230 613 230 613 203.5 661 c 128,-1,39
 177 709 177 709 177 771 c 0,40,41
 177 890 177 890 259.5 961 c 128,-1,42
 342 1032 342 1032 457 1032 c 0,43,44
 510 1032 510 1032 562 1015 c 128,-1,45
 614 998 614 998 667.5 949 c 128,-1,46
 721 900 721 900 748 826 c 2,47,-1
 759 795 l 1,0,-1
EndSplineSet
EndChar

StartChar: t
Encoding: 116 116 84
Width: 585
VWidth: 2826
Flags: W
HStem: 2 21G<143 302> 865 149<56 143 302 538>
VStem: 143 159<2 865 1014 1238>
LayerCount: 3
Fore
SplineSet
302 2 m 1
 143 2 l 1
 143 865 l 1
 56 865 l 1
 56 1014 l 1
 143 1014 l 1
 143 1238 l 1
 302 1238 l 1
 302 1014 l 1
 591 1014 l 1
 538 865 l 1
 302 865 l 1
 302 2 l 1
EndSplineSet
Validated: 1
Layer: 2
SplineSet
302 2 m 1,0,-1
 143 2 l 1,1,-1
 143 865 l 1,2,-1
 56 865 l 1,3,-1
 56 1014 l 1,4,-1
 143 1014 l 1,5,-1
 143 1238 l 1,6,-1
 302 1238 l 1,7,-1
 302 1014 l 1,8,-1
 591 1014 l 1,9,-1
 538 865 l 1,10,-1
 302 865 l 1,11,-1
 302 2 l 1,0,-1
EndSplineSet
EndChar

StartChar: u
Encoding: 117 117 85
Width: 1071
VWidth: 2817
Flags: W
HStem: -15 152<407.136 666.534>
VStem: 143 159<246.941 1014> 775 158<248.133 1014>
LayerCount: 3
Fore
SplineSet
143 1014 m 1
 302 1014 l 1
 302 396 l 2
 302 246 408 137 534 137 c 0
 662 137 775 246 775 396 c 2
 775 1014 l 1
 933 1014 l 1
 933 396 l 2
 933 173 761 -15 538 -15 c 0
 314 -15 143 173 143 396 c 2
 143 1014 l 1
EndSplineSet
Validated: 1
Layer: 2
SplineSet
143 1014 m 1,0,-1
 302 1014 l 1,1,-1
 302 396 l 2,2,3
 302 285 302 285 370 211 c 128,-1,4
 438 137 438 137 534 137 c 0,5,6
 632 137 632 137 703.5 211.5 c 128,-1,7
 775 286 775 286 775 396 c 2,8,-1
 775 1014 l 1,9,-1
 933 1014 l 1,10,-1
 933 396 l 2,11,12
 933 227 933 227 818.5 106 c 128,-1,13
 704 -15 704 -15 538 -15 c 128,-1,14
 372 -15 372 -15 257.5 106 c 128,-1,15
 143 227 143 227 143 396 c 2,16,-1
 143 1014 l 1,0,-1
EndSplineSet
EndChar

StartChar: v
Encoding: 118 118 86
Width: 1008
VWidth: 2817
Flags: W
HStem: -15 21G<500.592 519.292> 996 20G<25 204.688 808.28 989>
DStem2: 195 1016 25 1016 0.42567 -0.904878<0 713.315> 506 374 510 -15 0.421344 0.906901<0 713.69>
LayerCount: 3
Fore
SplineSet
25 1016 m 1
 195 1016 l 1
 506 374 l 1
 818 1016 l 1
 989 1016 l 1
 510 -15 l 1
 25 1016 l 1
EndSplineSet
Validated: 1
Layer: 2
SplineSet
25 1016 m 1,0,-1
 195 1016 l 1,1,-1
 506 374 l 1,2,-1
 818 1016 l 1,3,-1
 989 1016 l 1,4,-1
 510 -15 l 1,5,-1
 25 1016 l 1,0,-1
EndSplineSet
EndChar

StartChar: w
Encoding: 119 119 87
Width: 1649
VWidth: 2822
Flags: W
HStem: -15 21G<485.883 504.896 1154.01 1173.04> 996 20G<25 206.509 820.643 841.326 1449.65 1630>
DStem2: 197 1016 25 1016 0.4148 -0.909913<0 698.595> 497 385 495 -15 0.443481 0.896284<0 391.478> 831 1030 828 658 0.446682 -0.894693<331.486 725.822> 1164 385 1164 -15 0.411871 0.911242<0 696.496>
LayerCount: 3
Fore
SplineSet
25 1016 m 1
 197 1016 l 1
 497 385 l 1
 831 1030 l 1
 1164 385 l 1
 1459 1016 l 1
 1630 1016 l 1
 1164 -15 l 1
 828 658 l 1
 495 -15 l 1
 25 1016 l 1
EndSplineSet
Validated: 1
Layer: 2
SplineSet
25 1016 m 1,0,-1
 197 1016 l 1,1,-1
 497 385 l 1,2,-1
 831 1030 l 1,3,-1
 1164 385 l 1,4,-1
 1459 1016 l 1,5,-1
 1630 1016 l 1,6,-1
 1164 -15 l 1,7,-1
 828 658 l 1,8,-1
 495 -15 l 1,9,-1
 25 1016 l 1,0,-1
EndSplineSet
EndChar

StartChar: x
Encoding: 120 120 88
Width: 995
VWidth: 2822
Flags: W
HStem: 0 21G<25 225.342 773.707 976> 996 20G<64 260.384 733.616 936>
DStem2: 25 0 211 0 0.580859 0.814004<108.04 603.952 817.106 1246.99> 246 1016 64 1016 0.583504 -0.81211<0 429.886 646.034 1141.36>
LayerCount: 3
Fore
SplineSet
64 1016 m 1
 246 1016 l 1
 497 667 l 1
 748 1016 l 1
 936 1016 l 1
 591 534 l 1
 976 0 l 1
 788 0 l 1
 500 403 l 1
 211 0 l 1
 25 0 l 1
 408 534 l 1
 64 1016 l 1
EndSplineSet
Validated: 1
Layer: 2
SplineSet
64 1016 m 1,0,-1
 246 1016 l 1,1,-1
 497 667 l 1,2,-1
 748 1016 l 1,3,-1
 936 1016 l 1,4,-1
 591 534 l 1,5,-1
 976 0 l 1,6,-1
 788 0 l 1,7,-1
 500 403 l 1,8,-1
 211 0 l 1,9,-1
 25 0 l 1,10,-1
 408 534 l 1,11,-1
 64 1016 l 1,0,-1
EndSplineSet
EndChar

StartChar: y
Encoding: 121 121 89
Width: 1006
VWidth: 2804
Flags: W
HStem: -487 21G<220 396.931> 996 20G<25 198.185 810.021 985>
DStem2: 190 1016 25 1016 0.378193 -0.925727<0 839.555> 220 -487 389 -487 0.369685 0.929157<62.4767 558.757 781.037 1617.59>
LayerCount: 3
Fore
SplineSet
25 1016 m 1
 190 1016 l 1
 508 239 l 1
 818 1016 l 1
 985 1016 l 1
 389 -487 l 1
 220 -487 l 1
 427 32 l 1
 25 1016 l 1
EndSplineSet
Validated: 1
Layer: 2
SplineSet
25 1016 m 1,0,-1
 190 1016 l 1,1,-1
 508 239 l 1,2,-1
 818 1016 l 1,3,-1
 985 1016 l 1,4,-1
 389 -487 l 1,5,-1
 220 -487 l 1,6,-1
 427 32 l 1,7,-1
 25 1016 l 1,0,-1
EndSplineSet
EndChar

StartChar: z
Encoding: 122 122 90
Width: 980
VWidth: 2822
Flags: W
HStem: 0 150<325 886> 865 151<186 662>
DStem2: 25 0 325 150 0.591928 0.805991<298.477 1074.24>
LayerCount: 3
Fore
SplineSet
186 1016 m 1
 961 1016 l 1
 325 150 l 1
 938 150 l 1
 886 0 l 1
 25 0 l 1
 662 865 l 1
 134 865 l 1
 186 1016 l 1
EndSplineSet
Validated: 1
Layer: 2
SplineSet
186 1016 m 1,0,-1
 961 1016 l 1,1,-1
 325 150 l 1,2,-1
 938 150 l 1,3,-1
 886 0 l 1,4,-1
 25 0 l 1,5,-1
 662 865 l 1,6,-1
 134 865 l 1,7,-1
 186 1016 l 1,0,-1
EndSplineSet
EndChar

StartChar: braceleft
Encoding: 123 123 91
Width: 610
VWidth: 2982
Flags: W
HStem: -346 131<440.179 557> 1471 131<440.98 557>
VStem: 231 160<-160.375 498.421 756.872 1417.22>
LayerCount: 3
Fore
SplineSet
98 685 m 1
 195 748 231 781 231 925 c 2
 231 1224 l 2
 231 1542 410 1602 521 1602 c 2
 557 1602 l 1
 557 1471 l 1
 521 1471 l 2
 416 1471 391 1332 391 1224 c 2
 391 929 l 2
 391 779 356 696 291 628 c 1
 349 573 391 491 391 331 c 2
 391 34 l 2
 391 -77 416 -215 521 -215 c 2
 557 -215 l 1
 557 -346 l 1
 521 -346 l 2
 408 -346 231 -286 231 34 c 2
 231 331 l 2
 231 487 179 517 98 571 c 1
 98 685 l 1
EndSplineSet
Validated: 1
Layer: 2
SplineSet
98 685 m 1,0,1
 153 721 153 721 177.5 745 c 128,-1,2
 202 769 202 769 216.5 811.5 c 128,-1,3
 231 854 231 854 231 925 c 2,4,-1
 231 1224 l 2,5,6
 231 1315 231 1315 251 1385 c 128,-1,7
 271 1455 271 1455 301 1495 c 128,-1,8
 331 1535 331 1535 371.5 1560 c 128,-1,9
 412 1585 412 1585 448 1593.5 c 128,-1,10
 484 1602 484 1602 521 1602 c 2,11,-1
 557 1602 l 1,12,-1
 557 1471 l 1,13,-1
 521 1471 l 2,14,15
 484 1471 484 1471 457 1448.5 c 128,-1,16
 430 1426 430 1426 416.5 1387.5 c 128,-1,17
 403 1349 403 1349 397 1309 c 128,-1,18
 391 1269 391 1269 391 1224 c 2,19,-1
 391 929 l 2,20,21
 391 821 391 821 366.5 751 c 128,-1,22
 342 681 342 681 291 628 c 1,23,24
 391 533 391 533 391 331 c 2,25,-1
 391 34 l 2,26,27
 391 -12 391 -12 397 -52.5 c 128,-1,28
 403 -93 403 -93 416.5 -131.5 c 128,-1,29
 430 -170 430 -170 457 -192.5 c 128,-1,30
 484 -215 484 -215 521 -215 c 2,31,-1
 557 -215 l 1,32,-1
 557 -346 l 1,33,-1
 521 -346 l 2,34,35
 483 -346 483 -346 447 -337.5 c 128,-1,36
 411 -329 411 -329 370.5 -304 c 128,-1,37
 330 -279 330 -279 300 -238.5 c 128,-1,38
 270 -198 270 -198 250.5 -128 c 128,-1,39
 231 -58 231 -58 231 34 c 2,40,-1
 231 331 l 2,41,42
 231 369 231 369 227.5 398.5 c 128,-1,43
 224 428 224 428 213.5 451.5 c 128,-1,44
 203 475 203 475 196 488.5 c 128,-1,45
 189 502 189 502 168 520 c 128,-1,46
 147 538 147 538 137 545 c 128,-1,47
 127 552 127 552 98 571 c 1,48,-1
 98 685 l 1,0,1
EndSplineSet
EndChar

StartChar: bar
Encoding: 124 124 92
Width: 444
VWidth: 2982
Flags: W
VStem: 143 162<-186 1677>
LayerCount: 3
Fore
SplineSet
305 -186 m 1
 143 -186 l 1
 143 1677 l 1
 305 1677 l 1
 305 -186 l 1
EndSplineSet
Validated: 1
Layer: 2
SplineSet
305 -186 m 1,0,-1
 143 -186 l 1,1,-1
 143 1677 l 1,2,-1
 305 1677 l 1,3,-1
 305 -186 l 1,0,-1
EndSplineSet
EndChar

StartChar: braceright
Encoding: 125 125 93
Width: 613
VWidth: 2982
Flags: W
HStem: -349 131<54 173.437> 1471 129<54 172.702>
VStem: 224 161<-161.688 497.115 753.078 1412.69>
LayerCount: 3
Fore
SplineSet
517 568 m 1
 421 506 385 472 385 329 c 2
 385 30 l 2
 385 -284 208 -349 90 -349 c 2
 54 -349 l 1
 54 -218 l 1
 90 -218 l 2
 197 -218 224 -77 224 30 c 2
 224 329 l 2
 224 487 267 571 322 626 c 1
 258 692 222 775 222 925 c 2
 222 1224 l 2
 222 1332 195 1471 90 1471 c 2
 54 1471 l 1
 54 1600 l 1
 90 1600 l 2
 208 1600 385 1536 385 1220 c 2
 385 922 l 2
 385 765 436 737 517 683 c 1
 517 568 l 1
EndSplineSet
Validated: 1
Layer: 2
SplineSet
517 568 m 1,0,1
 463 533 463 533 438.5 509 c 128,-1,2
 414 485 414 485 399.5 442 c 128,-1,3
 385 399 385 399 385 329 c 2,4,-1
 385 30 l 2,5,6
 385 -60 385 -60 365.5 -129.5 c 128,-1,7
 346 -199 346 -199 315.5 -239.5 c 128,-1,8
 285 -280 285 -280 244 -305.5 c 128,-1,9
 203 -331 203 -331 166 -340 c 128,-1,10
 129 -349 129 -349 90 -349 c 2,11,-1
 54 -349 l 1,12,-1
 54 -218 l 1,13,-1
 90 -218 l 2,14,15
 128 -218 128 -218 155.5 -195 c 128,-1,16
 183 -172 183 -172 197.5 -133.5 c 128,-1,17
 212 -95 212 -95 218 -54.5 c 128,-1,18
 224 -14 224 -14 224 30 c 2,19,-1
 224 329 l 2,20,21
 224 528 224 528 322 626 c 1,22,23
 271 678 271 678 246.5 747.5 c 128,-1,24
 222 817 222 817 222 925 c 2,25,-1
 222 1224 l 2,26,27
 222 1269 222 1269 216 1309 c 128,-1,28
 210 1349 210 1349 196 1387.5 c 128,-1,29
 182 1426 182 1426 154.5 1448.5 c 128,-1,30
 127 1471 127 1471 90 1471 c 2,31,-1
 54 1471 l 1,32,-1
 54 1600 l 1,33,-1
 90 1600 l 2,34,35
 129 1600 129 1600 166 1591 c 128,-1,36
 203 1582 203 1582 244 1556.5 c 128,-1,37
 285 1531 285 1531 315.5 1490.5 c 128,-1,38
 346 1450 346 1450 365.5 1380.5 c 128,-1,39
 385 1311 385 1311 385 1220 c 2,40,-1
 385 922 l 2,41,42
 385 867 385 867 392.5 830 c 128,-1,43
 400 793 400 793 419.5 766.5 c 128,-1,44
 439 740 439 740 455.5 726.5 c 128,-1,45
 472 713 472 713 508.370862513 688.737318547 c 0,46,47
 511 687 511 687 513 685.5 c 128,-1,48
 515 684 515 684 517 683 c 2,49,-1
 517 568 l 1,0,1
EndSplineSet
EndChar

StartChar: asciitilde
Encoding: 126 126 94
Width: 1080
VWidth: 2982
Flags: W
HStem: 342 166<620.937 844.566> 477 166<239.833 478.999>
VStem: 98 133<352 467.202> 853 132<513.701 634>
LayerCount: 3
Fore
SplineSet
853 634 m 1xb0
 985 634 l 1
 985 598 l 2
 985 416 884 342 771 342 c 0xb0
 607 342 450 477 322 477 c 0
 248 477 231 436 231 387 c 2
 231 352 l 1
 98 352 l 1
 98 387 l 2
 98 577 213 643 322 643 c 0x70
 502 643 647 508 771 508 c 0
 837 508 853 544 853 598 c 2
 853 634 l 1xb0
EndSplineSet
Validated: 1
Layer: 2
SplineSet
853 634 m 1,0,-1
 985 634 l 1,1,-1
 985 598 l 2,2,3
 985 469 985 469 924 405.5 c 128,-1,4
 863 342 863 342 771 342 c 0,5,6
 716 342 716 342 650 363 c 128,-1,7
 584 384 584 384 533 409.5 c 128,-1,8
 482 435 482 435 423 456 c 128,-1,9
 364 477 364 477 322 477 c 0,10,11
 271 477 271 477 251 453 c 128,-1,12
 231 429 231 429 231 387 c 2,13,-1
 231 352 l 1,14,-1
 98 352 l 1,15,-1
 98 387 l 2,16,17
 98 455 98 455 117.5 506.5 c 128,-1,18
 137 558 137 558 169.5 586.5 c 128,-1,19
 202 615 202 615 240.5 629 c 128,-1,20
 279 643 279 643 322 643 c 0,21,22
 383 643 383 643 450.5 622 c 128,-1,23
 518 601 518 601 567.5 575.5 c 128,-1,24
 617 550 617 550 673.5 529 c 128,-1,25
 730 508 730 508 771 508 c 0,26,27
 818 508 818 508 835.5 531 c 128,-1,28
 853 554 853 554 853 598 c 2,29,-1
 853 634 l 1,0,-1
EndSplineSet
EndChar

StartChar: exclamdown
Encoding: 161 161 95
Width: 570
VWidth: 2982
Flags: W
HStem: 790 240<195.323 378.509>
VStem: 168 238<817.658 1002.68> 190 193<-544 24.064> 222 130<155.936 724>
LayerCount: 3
Fore
SplineSet
222 724 m 1x90
 352 724 l 1x90
 383 -544 l 1
 190 -544 l 1xa0
 222 724 l 1x90
286 1030 m 0
 352 1030 406 976 406 912 c 0
 406 844 352 790 286 790 c 0
 222 790 168 844 168 912 c 0xc0
 168 976 222 1030 286 1030 c 0
EndSplineSet
Validated: 1
Layer: 2
SplineSet
222 724 m 1,0,-1
 352 724 l 1,1,-1
 383 -544 l 1,2,-1
 190 -544 l 1,3,-1
 222 724 l 1,0,-1
286 1030 m 0,4,5
 335 1030 335 1030 370.5 995 c 128,-1,6
 406 960 406 960 406 912 c 0,7,8
 406 861 406 861 371 825.5 c 128,-1,9
 336 790 336 790 286 790 c 0,10,11
 238 790 238 790 203 825.5 c 128,-1,12
 168 861 168 861 168 912 c 0,13,14
 168 960 168 960 203 995 c 128,-1,15
 238 1030 238 1030 286 1030 c 0,4,5
EndSplineSet
EndChar

StartChar: cent
Encoding: 162 162 96
Width: 1143
VWidth: 2982
Flags: W
HStem: -11 154<651 762.241> 873 154<651 761.878>
VStem: 114 155<326.151 691.061> 491 160<-275 -5.12085 161 855 1020.55 1290>
LayerCount: 3
Fore
SplineSet
651 -275 m 1
 491 -275 l 1
 491 0 l 1
 271 54 114 267 114 508 c 0
 114 750 271 961 491 1016 c 1
 491 1290 l 1
 651 1290 l 1
 651 1027 l 1
 891 1003 1006 806 1036 752 c 1
 897 675 l 1
 867 730 797 848 651 873 c 1
 651 143 l 1
 806 168 875 299 897 338 c 1
 1036 265 l 1
 991 188 878 11 651 -11 c 1
 651 -275 l 1
491 161 m 1
 491 855 l 1
 365 806 269 673 269 510 c 0
 269 344 365 213 491 161 c 1
EndSplineSet
Validated: 1
Layer: 2
SplineSet
651 -275 m 1,0,-1
 491 -275 l 1,1,-1
 491 0 l 1,2,3
 326 40 326 40 220 183.5 c 128,-1,4
 114 327 114 327 114 508 c 128,-1,5
 114 689 114 689 220 832 c 128,-1,6
 326 975 326 975 491 1016 c 1,7,-1
 491 1290 l 1,8,-1
 651 1290 l 1,9,-1
 651 1027 l 1,10,11
 719 1020 719 1020 780.5 993.5 c 128,-1,12
 842 967 842 967 881.5 936.5 c 128,-1,13
 921 906 921 906 957 864.5 c 128,-1,14
 993 823 993 823 1007.5 800 c 128,-1,15
 1022 777 1022 777 1036 752 c 1,16,-1
 897 675 l 1,17,18
 803 847 803 847 651 873 c 1,19,-1
 651 143 l 1,20,21
 695 150 695 150 734.5 170.5 c 128,-1,22
 774 191 774 191 797.5 210 c 128,-1,23
 821 229 821 229 846 260.5 c 128,-1,24
 871 292 871 292 877.5 303.5 c 128,-1,25
 884 315 884 315 897 338 c 1,26,-1
 1036 265 l 1,27,28
 888 12 888 12 651 -11 c 1,29,-1
 651 -275 l 1,0,-1
491 161 m 1,30,-1
 491 855 l 1,31,32
 394 817 394 817 331.5 723 c 128,-1,33
 269 629 269 629 269 510 c 0,34,35
 269 389 269 389 331 295 c 128,-1,36
 393 201 393 201 491 161 c 1,30,-1
EndSplineSet
EndChar

StartChar: sterling
Encoding: 163 163 97
Width: 1177
VWidth: 2982
Flags: W
HStem: 0 154<393 1016> 665 153<171 378 549 810> 1359 152<561.794 833.237>
VStem: 342 155<829.877 1294.61> 393 156<366.995 665> 920 127<1155 1262.62>
LayerCount: 3
Fore
SplineSet
114 130 m 1xec
 265 215 393 320 393 620 c 2
 393 665 l 1xec
 119 665 l 1
 171 818 l 1
 378 818 l 1
 365 942 342 1063 342 1179 c 0
 342 1379 510 1511 696 1511 c 0
 835 1511 1008 1439 1047 1155 c 1
 920 1155 l 1
 916 1168 895 1359 696 1359 c 0
 593 1359 497 1294 497 1182 c 0xf4
 497 1083 517 955 532 824 c 1
 861 824 l 1
 810 669 l 1
 549 669 l 1
 549 624 l 2
 549 450 510 289 393 154 c 1
 1068 154 l 1
 1016 0 l 1
 152 0 l 1
 114 130 l 1xec
EndSplineSet
Validated: 1
Layer: 2
SplineSet
114 130 m 1,0,1
 165 159 165 159 201.5 185 c 128,-1,2
 238 211 238 211 276.5 252.5 c 128,-1,3
 315 294 315 294 339 342.5 c 128,-1,4
 363 391 363 391 378 462 c 128,-1,5
 393 533 393 533 393 620 c 2,6,-1
 393 665 l 1,7,-1
 119 665 l 1,8,-1
 171 818 l 1,9,-1
 378 818 l 1,10,11
 374 857 374 857 363.5 933.5 c 128,-1,12
 353 1010 353 1010 347.5 1068.5 c 128,-1,13
 342 1127 342 1127 342 1179 c 0,14,15
 342 1325 342 1325 447 1418 c 128,-1,16
 552 1511 552 1511 696 1511 c 0,17,18
 753 1511 753 1511 805 1494.5 c 128,-1,19
 857 1478 857 1478 908 1440.5 c 128,-1,20
 959 1403 959 1403 996 1329.5 c 128,-1,21
 1033 1256 1033 1256 1047 1155 c 1,22,-1
 920 1155 l 1,23,-1
 917.5 1167.5 l 2,24,25
 915 1180 915 1180 911.5 1192.5 c 128,-1,26
 908 1205 908 1205 900 1225 c 128,-1,27
 892 1245 892 1245 881.5 1262 c 128,-1,28
 871 1279 871 1279 853.5 1297.5 c 128,-1,29
 836 1316 836 1316 814.5 1329 c 128,-1,30
 793 1342 793 1342 762.5 1350.5 c 128,-1,31
 732 1359 732 1359 696 1359 c 0,32,33
 615 1359 615 1359 556 1311 c 128,-1,34
 497 1263 497 1263 497 1182 c 0,35,36
 497 1147 497 1147 500.5 1100 c 128,-1,37
 504 1053 504 1053 508.5 1017 c 128,-1,38
 513 981 513 981 520.5 918.5 c 128,-1,39
 528 856 528 856 532 824 c 1,40,-1
 861 824 l 1,41,-1
 810 669 l 1,42,-1
 549 669 l 1,43,-1
 549 624 l 2,44,45
 549 334 549 334 393 154 c 1,46,-1
 1068 154 l 1,47,-1
 1016 0 l 1,48,-1
 152 0 l 1,49,-1
 114 130 l 1,0,1
EndSplineSet
EndChar

StartChar: fraction
Encoding: 8260 8260 98
Width: 1177
VWidth: 2982
Flags: W
DStem2: -67 -36 132 -36 0.57887 0.81542<115.195 1918.68>
LayerCount: 3
Fore
SplineSet
1043 1529 m 1
 1243 1529 l 1
 132 -36 l 1
 -67 -36 l 1
 1043 1529 l 1
EndSplineSet
Validated: 1
Layer: 2
SplineSet
1043 1529 m 1,0,-1
 1243 1529 l 1,1,-1
 132 -36 l 1,2,-1
 -67 -36 l 1,3,-1
 1043 1529 l 1,0,-1
EndSplineSet
EndChar

StartChar: yen
Encoding: 165 165 99
Width: 1293
VWidth: 2982
Flags: W
HStem: 0 21G<571 728> 380 162<220 571 728 1068> 615 160<224 483 812 1077> 1473 20G<25 220.783 1077.22 1273>
VStem: 571 157<0 380 542 615>
DStem2: 208 1493 25 1493 0.537787 -0.843081<0 753.223> 649 803 812 775 0.540284 0.841483<64.5047 818.888>
LayerCount: 3
Fore
SplineSet
1068 542 m 1
 1068 380 l 1
 728 380 l 1
 728 0 l 1
 571 0 l 1
 571 380 l 1
 220 380 l 1
 220 542 l 1
 571 542 l 1
 571 615 l 1
 224 615 l 1
 224 775 l 1
 483 775 l 1
 25 1493 l 1
 208 1493 l 1
 649 803 l 1
 1090 1493 l 1
 1273 1493 l 1
 812 775 l 1
 1077 775 l 1
 1077 615 l 1
 728 615 l 1
 728 542 l 1
 1068 542 l 1
EndSplineSet
Validated: 1
Layer: 2
SplineSet
1068 542 m 1,0,-1
 1068 380 l 1,1,-1
 728 380 l 1,2,-1
 728 0 l 1,3,-1
 571 0 l 1,4,-1
 571 380 l 1,5,-1
 220 380 l 1,6,-1
 220 542 l 1,7,-1
 571 542 l 1,8,-1
 571 615 l 1,9,-1
 224 615 l 1,10,-1
 224 775 l 1,11,-1
 483 775 l 1,12,-1
 25 1493 l 1,13,-1
 208 1493 l 1,14,-1
 649 803 l 1,15,-1
 1090 1493 l 1,16,-1
 1273 1493 l 1,17,-1
 812 775 l 1,18,-1
 1077 775 l 1,19,-1
 1077 615 l 1,20,-1
 728 615 l 1,21,-1
 728 542 l 1,22,-1
 1068 542 l 1,0,-1
EndSplineSet
EndChar

StartChar: florin
Encoding: 402 402 100
Width: 836
VWidth: 2982
Flags: W
HStem: -161 125<-101 95.5044> 745 155<199 338 530 779> 1379 125<710.132 906>
DStem2: 222 188 378 158 0.20121 0.979548<-152.188 568.949 759.411 1164.27>
LayerCount: 3
Fore
SplineSet
837 900 m 1
 779 745 l 1
 500 745 l 1
 378 158 l 2
 331 -68 145 -161 -64 -161 c 2
 -101 -161 l 1
 -101 -36 l 1
 -64 -36 l 2
 77 -36 192 44 222 188 c 2
 338 745 l 1
 148 745 l 1
 199 900 l 1
 369 900 l 1
 427 1186 l 2
 473 1412 660 1504 871 1504 c 2
 906 1504 l 1
 906 1379 l 1
 871 1379 l 2
 730 1379 616 1300 585 1155 c 2
 530 900 l 1
 837 900 l 1
EndSplineSet
Validated: 1
Layer: 2
SplineSet
837 900 m 1,0,-1
 779 745 l 1,1,-1
 500 745 l 1,2,-1
 378 158 l 2,3,4
 344 -3 344 -3 224 -82 c 128,-1,5
 104 -161 104 -161 -64 -161 c 2,6,-1
 -101 -161 l 1,7,-1
 -101 -36 l 1,8,-1
 -64 -36 l 2,9,10
 44 -36 44 -36 122 23 c 128,-1,11
 200 82 200 82 222 188 c 2,12,-1
 338 745 l 1,13,-1
 148 745 l 1,14,-1
 199 900 l 1,15,-1
 369 900 l 1,16,-1
 427 1186 l 2,17,18
 460 1347 460 1347 580.5 1425.5 c 128,-1,19
 701 1504 701 1504 871 1504 c 2,20,-1
 906 1504 l 1,21,-1
 906 1379 l 1,22,-1
 871 1379 l 2,23,24
 763 1379 763 1379 685.5 1320.5 c 128,-1,25
 608 1262 608 1262 585 1155 c 2,26,-1
 530 900 l 1,27,-1
 837 900 l 1,0,-1
EndSplineSet
EndChar

StartChar: section
Encoding: 167 167 101
Width: 937
VWidth: 2982
Flags: W
HStem: -132 154<339.604 596.31> 1350 154<343.72 597.068>
VStem: 119 156<637.644 847.913 1080.81 1284.8> 662 160<86.6619 296.41 528.512 741.058 1147 1279.75>
LayerCount: 3
Fore
SplineSet
114 231 m 1
 271 231 l 1
 275 201 l 2
 293 62 385 22 466 22 c 0
 571 22 662 90 662 199 c 0
 662 434 119 361 119 732 c 0
 119 765 121 869 213 959 c 1
 124 1036 119 1130 119 1173 c 0
 119 1372 286 1504 472 1504 c 0
 626 1504 790 1408 822 1184 c 1
 828 1147 l 1
 667 1147 l 1
 662 1175 l 1
 640 1332 526 1350 474 1350 c 0
 372 1350 278 1283 278 1173 c 0
 278 938 822 1016 822 645 c 0
 822 553 786 474 728 416 c 1
 818 338 822 246 822 201 c 0
 822 2 651 -132 468 -132 c 0
 314 -132 150 -34 119 192 c 1
 114 231 l 1
665 645 m 0
 665 771 504 806 349 873 c 1
 284 831 275 771 275 734 c 0
 275 604 438 571 589 504 c 1
 656 549 665 609 665 645 c 0
EndSplineSet
Validated: 1
Layer: 2
SplineSet
114 231 m 1,0,-1
 271 231 l 1,1,-1
 275 201 l 2,2,3
 281 151 281 151 300.5 114.5 c 128,-1,4
 320 78 320 78 347.5 59 c 128,-1,5
 375 40 375 40 404 31 c 128,-1,6
 433 22 433 22 466 22 c 0,7,8
 548 22 548 22 605 71 c 128,-1,9
 662 120 662 120 662 199 c 0,10,11
 662 246 662 246 632 282.5 c 128,-1,12
 602 319 602 319 554 343 c 128,-1,13
 506 367 506 367 448.5 390 c 128,-1,14
 391 413 391 413 333 441 c 128,-1,15
 275 469 275 469 227 504.5 c 128,-1,16
 179 540 179 540 149 598.5 c 128,-1,17
 119 657 119 657 119 732 c 0,18,19
 119 867 119 867 213 959 c 1,20,21
 119 1040 119 1040 119 1173 c 0,22,23
 119 1318 119 1318 223.5 1411 c 128,-1,24
 328 1504 328 1504 472 1504 c 0,25,26
 532 1504 532 1504 587.5 1485 c 128,-1,27
 643 1466 643 1466 692 1428.5 c 128,-1,28
 741 1391 741 1391 775.5 1328 c 128,-1,29
 810 1265 810 1265 822 1184 c 2,30,-1
 828 1147 l 1,31,-1
 667 1147 l 1,32,-1
 662 1175 l 2,33,34
 656 1220 656 1220 639 1253.5 c 128,-1,35
 622 1287 622 1287 602 1305 c 128,-1,36
 582 1323 582 1323 556 1333.5 c 128,-1,37
 530 1344 530 1344 511.5 1347 c 128,-1,38
 493 1350 493 1350 474 1350 c 0,39,40
 394 1350 394 1350 336 1301 c 128,-1,41
 278 1252 278 1252 278 1173 c 0,42,43
 278 1126 278 1126 308 1090 c 128,-1,44
 338 1054 338 1054 386 1030 c 128,-1,45
 434 1006 434 1006 492 984 c 128,-1,46
 550 962 550 962 608 934.5 c 128,-1,47
 666 907 666 907 714 871.5 c 128,-1,48
 762 836 762 836 792 778 c 128,-1,49
 822 720 822 720 822 645 c 0,50,51
 822 510 822 510 728 416 c 1,52,53
 822 335 822 335 822 201 c 0,54,55
 822 56 822 56 716 -38 c 128,-1,56
 610 -132 610 -132 468 -132 c 0,57,58
 408 -132 408 -132 352.5 -112.5 c 128,-1,59
 297 -93 297 -93 248 -55 c 128,-1,60
 199 -17 199 -17 164.5 46.5 c 128,-1,61
 130 110 130 110 119 192 c 2,62,-1
 114 231 l 1,0,-1
665 645 m 0,63,64
 665 675 665 675 651.5 701 c 128,-1,65
 638 727 638 727 619 744.5 c 128,-1,66
 600 762 600 762 564 781.5 c 128,-1,67
 528 801 528 801 500.5 812 c 128,-1,68
 473 823 473 823 425 842 c 128,-1,69
 377 861 377 861 349 873 c 1,70,71
 275 825 275 825 275 734 c 0,72,73
 275 703 275 703 288.5 676.5 c 128,-1,74
 302 650 302 650 321.5 632 c 128,-1,75
 341 614 341 614 376 595 c 128,-1,76
 411 576 411 576 439.5 564.5 c 128,-1,77
 468 553 468 553 514.5 535 c 128,-1,78
 561 517 561 517 589 504 c 1,79,80
 665 555 665 555 665 645 c 0,63,64
EndSplineSet
EndChar

StartChar: currency
Encoding: 164 164 102
Width: 1301
VWidth: 2982
Flags: W
HStem: 295 164<496.989 811.511> 1068 161<496.419 812.395>
VStem: 188 161<605.558 921.97> 959 162<605.253 921.891>
DStem2: 92 316 205 203 0.712064 0.702115<1.12424 262.216 1165.02 1405.05> 226 1305 114 1191 0.707107 -0.707107<1.41421 234.306 1138.87 1393>
LayerCount: 3
Fore
SplineSet
1043 1025 m 1
 1094 949 1121 859 1121 763 c 0
 1121 665 1090 573 1038 495 c 1
 1211 320 l 1
 1100 205 l 1
 925 380 l 1
 848 327 754 295 656 295 c 0
 555 295 461 327 385 380 c 1
 205 203 l 1
 92 316 l 1
 273 493 l 1
 220 568 188 662 188 761 c 0
 188 861 220 955 273 1032 c 1
 114 1191 l 1
 226 1305 l 1
 385 1147 l 1
 461 1198 553 1229 651 1229 c 0
 752 1229 846 1196 922 1139 c 1
 1092 1303 l 1
 1207 1191 l 1
 1043 1025 l 1
349 763 m 0
 349 596 485 459 654 459 c 0
 822 459 959 596 959 763 c 0
 959 933 822 1068 654 1068 c 0
 485 1068 349 933 349 763 c 0
EndSplineSet
Validated: 1
Layer: 2
SplineSet
1043 1025 m 1,0,1
 1121 909 1121 909 1121 763 c 0,2,3
 1121 620 1121 620 1038 495 c 1,4,-1
 1211 320 l 1,5,-1
 1100 205 l 1,6,-1
 925 380 l 1,7,8
 802 295 802 295 656 295 c 0,9,10
 507 295 507 295 385 380 c 1,11,-1
 205 203 l 1,12,-1
 92 316 l 1,13,-1
 273 493 l 1,14,15
 188 613 188 613 188 761 c 128,-1,16
 188 909 188 909 273 1032 c 1,17,-1
 114 1191 l 1,18,-1
 226 1305 l 1,19,-1
 385 1147 l 1,20,21
 507 1229 507 1229 651 1229 c 0,22,23
 802 1229 802 1229 922 1139 c 1,24,-1
 1092 1303 l 1,25,-1
 1207 1191 l 1,26,-1
 1043 1025 l 1,0,1
349 763 m 0,27,28
 349 638 349 638 438.5 548.5 c 128,-1,29
 528 459 528 459 654 459 c 128,-1,30
 780 459 780 459 869.5 548.5 c 128,-1,31
 959 638 959 638 959 763 c 0,32,33
 959 890 959 890 869.5 979 c 128,-1,34
 780 1068 780 1068 654 1068 c 0,35,36
 527 1068 527 1068 438 979 c 128,-1,37
 349 890 349 890 349 763 c 0,27,28
EndSplineSet
EndChar

StartChar: quotesingle
Encoding: 39 39 103
Width: 523
VWidth: 2982
Flags: W
HStem: 1128 459<199 325>
VStem: 199 126<1128 1310.78>
LayerCount: 3
Fore
SplineSet
325 1128 m 1
 199 1128 l 1
 164 1587 l 1
 361 1587 l 1
 325 1128 l 1
EndSplineSet
Validated: 1
Layer: 2
SplineSet
325 1128 m 1,0,-1
 199 1128 l 1,1,-1
 164 1587 l 1,2,-1
 361 1587 l 1,3,-1
 325 1128 l 1,0,-1
EndSplineSet
EndChar

StartChar: quotedblleft
Encoding: 8220 8220 104
Width: 737
VWidth: 2982
Flags: W
HStem: 1059 239<246.989 341.916 510.989 605.916>
VStem: 107 262<1100.58 1267.6> 371 262<1100.58 1267.6>
LayerCount: 3
Fore
SplineSet
510 1298 m 1
 569 1298 633 1252 633 1179 c 0
 633 1113 580 1059 514 1059 c 0
 450 1059 371 1108 371 1218 c 0
 371 1280 380 1379 516 1508 c 2
 538 1529 l 1
 694 1529 l 1
 616 1464 l 2
 572 1428 526 1354 510 1298 c 1
246 1298 m 1
 305 1298 369 1252 369 1179 c 0
 369 1113 316 1059 250 1059 c 0
 186 1059 107 1108 107 1218 c 0
 107 1280 116 1379 252 1508 c 2
 274 1529 l 1
 430 1529 l 1
 352 1464 l 2
 308 1428 262 1354 246 1298 c 1
EndSplineSet
Validated: 1
Layer: 2
SplineSet
510 1298 m 1,0,1
 557 1298 557 1298 595 1264.5 c 128,-1,2
 633 1231 633 1231 633 1179 c 0,3,4
 633 1129 633 1129 598 1094 c 128,-1,5
 563 1059 563 1059 514 1059 c 0,6,7
 459 1059 459 1059 415 1100.5 c 128,-1,8
 371 1142 371 1142 371 1218 c 0,9,10
 371 1259 371 1259 377.5 1293.5 c 128,-1,11
 384 1328 384 1328 418.5 1388 c 128,-1,12
 453 1448 453 1448 516 1508 c 2,13,-1
 538 1529 l 1,14,-1
 694 1529 l 1,15,-1
 616 1464 l 2,16,17
 583 1437 583 1437 552.5 1389 c 128,-1,18
 522 1341 522 1341 510 1298 c 1,0,1
246 1298 m 1,19,20
 293 1298 293 1298 331 1264.5 c 128,-1,21
 369 1231 369 1231 369 1179 c 0,22,23
 369 1129 369 1129 334 1094 c 128,-1,24
 299 1059 299 1059 250 1059 c 0,25,26
 195 1059 195 1059 151 1100.5 c 128,-1,27
 107 1142 107 1142 107 1218 c 0,28,29
 107 1259 107 1259 113.5 1293.5 c 128,-1,30
 120 1328 120 1328 154.5 1388 c 128,-1,31
 189 1448 189 1448 252 1508 c 2,32,-1
 274 1529 l 1,33,-1
 430 1529 l 1,34,-1
 352 1464 l 2,35,36
 319 1437 319 1437 288.5 1389 c 128,-1,37
 258 1341 258 1341 246 1298 c 1,19,20
EndSplineSet
EndChar

StartChar: guillemotleft
Encoding: 171 171 105
Width: 883
VWidth: 2982
Flags: W
DStem2: 252 508 54 508 0.582019 -0.813175<0 369.281> 54 508 252 508 0.582019 0.813175<115.24 484.52> 579 508 383 508 0.582019 -0.813175<0 370.445> 383 508 579 508 0.582019 0.813175<114.076 484.52>
LayerCount: 3
Fore
SplineSet
665 902 m 1
 861 902 l 1
 579 508 l 1
 861 114 l 1
 665 114 l 1
 383 508 l 1
 665 902 l 1
336 902 m 1
 534 902 l 1
 252 508 l 1
 534 114 l 1
 336 114 l 1
 54 508 l 1
 336 902 l 1
EndSplineSet
Validated: 1
Layer: 2
SplineSet
665 902 m 1,0,-1
 861 902 l 1,1,-1
 579 508 l 1,2,-1
 861 114 l 1,3,-1
 665 114 l 1,4,-1
 383 508 l 1,5,-1
 665 902 l 1,0,-1
336 902 m 1,6,-1
 534 902 l 1,7,-1
 252 508 l 1,8,-1
 534 114 l 1,9,-1
 336 114 l 1,10,-1
 54 508 l 1,11,-1
 336 902 l 1,6,-1
EndSplineSet
EndChar

StartChar: guilsinglleft
Encoding: 8249 8249 106
Width: 472
VWidth: 2982
Flags: W
VStem: -9 481
DStem2: 190 508 -9 508 0.582019 -0.813175<0 368.699> -9 508 190 508 0.582019 0.813175<115.822 484.52>
LayerCount: 3
Fore
SplineSet
273 902 m 1
 472 902 l 1
 190 508 l 1
 472 114 l 1
 273 114 l 1
 -9 508 l 1
 273 902 l 1
EndSplineSet
Validated: 1
Layer: 2
SplineSet
273 902 m 1,0,-1
 472 902 l 1,1,-1
 190 508 l 1,2,-1
 472 114 l 1,3,-1
 273 114 l 1,4,-1
 -9 508 l 1,5,-1
 273 902 l 1,0,-1
EndSplineSet
EndChar

StartChar: guilsinglright
Encoding: 8250 8250 107
Width: 472
VWidth: 2982
Flags: W
VStem: 2 481
DStem2: 201 902 2 902 0.582019 -0.813175<0 368.699> 2 114 201 114 0.582019 0.813175<115.822 484.52>
LayerCount: 3
Fore
SplineSet
2 902 m 1
 201 902 l 1
 483 508 l 1
 201 114 l 1
 2 114 l 1
 284 508 l 1
 2 902 l 1
EndSplineSet
Validated: 1
Layer: 2
SplineSet
2 902 m 1,0,-1
 201 902 l 1,1,-1
 483 508 l 1,2,-1
 201 114 l 1,3,-1
 2 114 l 1,4,-1
 284 508 l 1,5,-1
 2 902 l 1,0,-1
EndSplineSet
EndChar

StartChar: endash
Encoding: 8211 8211 108
Width: 780
VWidth: 2982
Flags: W
HStem: 427 162<107 673>
VStem: 107 566<427 589>
LayerCount: 3
Fore
SplineSet
673 589 m 1
 673 427 l 1
 107 427 l 1
 107 589 l 1
 673 589 l 1
EndSplineSet
Validated: 1
Layer: 2
SplineSet
673 589 m 1,0,-1
 673 427 l 1,1,-1
 107 427 l 1,2,-1
 107 589 l 1,3,-1
 673 589 l 1,0,-1
EndSplineSet
EndChar

StartChar: dagger
Encoding: 8224 8224 109
Width: 1168
VWidth: 2982
Flags: W
HStem: 902 166<107 476.152 693.848 1063>
VStem: 504 163<-322 789.04 1102.5 1529>
LayerCount: 3
Fore
SplineSet
667 -322 m 1
 504 -322 l 1
 519 918 l 1
 107 902 l 1
 107 1068 l 1
 517 1053 l 1
 504 1529 l 1
 667 1529 l 1
 651 1053 l 1
 1063 1068 l 1
 1063 902 l 1
 651 918 l 1
 667 -322 l 1
EndSplineSet
Validated: 1
Layer: 2
SplineSet
667 -322 m 1,0,-1
 504 -322 l 1,1,-1
 519 918 l 1,2,-1
 107 902 l 1,3,-1
 107 1068 l 1,4,-1
 517 1053 l 1,5,-1
 504 1529 l 1,6,-1
 667 1529 l 1,7,-1
 651 1053 l 1,8,-1
 1063 1068 l 1,9,-1
 1063 902 l 1,10,-1
 651 918 l 1,11,-1
 667 -322 l 1,0,-1
EndSplineSet
EndChar

StartChar: daggerdbl
Encoding: 8225 8225 110
Width: 1168
VWidth: 2982
Flags: W
HStem: 226 163<107 500.762 669.238 1063> 239 135<125.238 519 651 1044.76> 820 163<107 500.762 669.238 1063> 835 134<125.238 519 651 1044.76>
VStem: 504 163<-322 180.656 1027.24 1529> 519 132<-263.656 239 374 835 969 1470.76>
LayerCount: 3
Fore
SplineSet
667 -322 m 1x48
 504 -322 l 1x48
 519 239 l 1x44
 107 226 l 1
 107 389 l 1x84
 519 374 l 1
 519 835 l 1x54
 107 820 l 1
 107 983 l 1x24
 519 969 l 1x14
 504 1529 l 1
 667 1529 l 1x18
 651 969 l 1x14
 1063 983 l 1
 1063 820 l 1x24
 651 835 l 1
 651 374 l 1x54
 1063 389 l 1
 1063 226 l 1x84
 651 239 l 1x44
 667 -322 l 1x48
EndSplineSet
Validated: 1
Layer: 2
SplineSet
667 -322 m 1,0,-1
 504 -322 l 1,1,-1
 519 239 l 1,2,-1
 107 226 l 1,3,-1
 107 389 l 1,4,-1
 519 374 l 1,5,-1
 519 835 l 1,6,-1
 107 820 l 1,7,-1
 107 983 l 1,8,-1
 519 969 l 1,9,-1
 504 1529 l 1,10,-1
 667 1529 l 1,11,-1
 651 969 l 1,12,-1
 1063 983 l 1,13,-1
 1063 820 l 1,14,-1
 651 835 l 1,15,-1
 651 374 l 1,16,-1
 1063 389 l 1,17,-1
 1063 226 l 1,18,-1
 651 239 l 1,19,-1
 667 -322 l 1,0,-1
EndSplineSet
EndChar

StartChar: periodcentered
Encoding: 183 183 111
Width: 570
VWidth: 2982
Flags: W
HStem: 626 241<195.323 378.509>
VStem: 168 238<653.73 839.019>
LayerCount: 3
Fore
SplineSet
286 867 m 0
 352 867 406 812 406 745 c 0
 406 681 352 626 286 626 c 0
 222 626 168 681 168 745 c 0
 168 812 222 867 286 867 c 0
EndSplineSet
Validated: 1
Layer: 2
SplineSet
286 867 m 0,0,1
 335 867 335 867 370.5 831 c 128,-1,2
 406 795 406 795 406 745 c 0,3,4
 406 697 406 697 370.5 661.5 c 128,-1,5
 335 626 335 626 286 626 c 0,6,7
 238 626 238 626 203 661.5 c 128,-1,8
 168 697 168 697 168 745 c 0,9,10
 168 795 168 795 203 831 c 128,-1,11
 238 867 238 867 286 867 c 0,0,1
EndSplineSet
EndChar

StartChar: paragraph
Encoding: 182 182 112
Width: 1295
VWidth: 2982
Flags: W
HStem: 1337 154<895 998>
VStem: 114 781<763.625 1154.77> 739 156<-242 425> 998 157<-242 1337>
LayerCount: 3
Fore
SplineSet
895 -242 m 1xb0
 739 -242 l 1
 739 425 l 1xb0
 329 430 114 692 114 959 c 0xd0
 114 1226 336 1491 752 1491 c 2
 1155 1491 l 1
 1155 -242 l 1
 998 -242 l 1
 998 1337 l 1
 895 1337 l 1
 895 -242 l 1xb0
EndSplineSet
Validated: 1
Layer: 2
SplineSet
895 -242 m 1,0,-1
 739 -242 l 1,1,-1
 739 425 l 1,2,3
 590 427 590 427 469 473 c 128,-1,4
 348 519 348 519 272 594 c 128,-1,5
 196 669 196 669 155 763 c 128,-1,6
 114 857 114 857 114 959 c 128,-1,7
 114 1061 114 1061 156 1155 c 128,-1,8
 198 1249 198 1249 276 1324.5 c 128,-1,9
 354 1400 354 1400 477.5 1445.5 c 128,-1,10
 601 1491 601 1491 752 1491 c 2,11,-1
 1155 1491 l 1,12,-1
 1155 -242 l 1,13,-1
 998 -242 l 1,14,-1
 998 1337 l 1,15,-1
 895 1337 l 1,16,-1
 895 -242 l 1,0,-1
EndSplineSet
EndChar

StartChar: bullet
Encoding: 8226 8226 113
Width: 989
VWidth: 2982
Flags: W
HStem: 203 788<318.929 671.724>
VStem: 107 777<418.243 775.572>
LayerCount: 3
Fore
SplineSet
495 991 m 0
 709 991 884 812 884 598 c 0
 884 380 709 203 495 203 c 0
 282 203 107 380 107 598 c 0
 107 812 282 991 495 991 c 0
EndSplineSet
Validated: 1
Layer: 2
SplineSet
495 991 m 0,0,1
 655 991 655 991 769.5 875 c 128,-1,2
 884 759 884 759 884 598 c 0,3,4
 884 435 884 435 770 319 c 128,-1,5
 656 203 656 203 495 203 c 0,6,7
 335 203 335 203 221 319 c 128,-1,8
 107 435 107 435 107 598 c 0,9,10
 107 759 107 759 221.5 875 c 128,-1,11
 336 991 336 991 495 991 c 0,0,1
EndSplineSet
EndChar

StartChar: quotesinglbase
Encoding: 8218 8218 114
Width: 570
VWidth: 2982
Flags: W
HStem: -271 459
VStem: 168 262<-19.8944 145.478>
LayerCount: 3
Fore
SplineSet
286 188 m 0
 356 188 430 134 430 30 c 0
 430 -154 271 -269 269 -271 c 1
 248 -278 l 1
 101 -278 l 1
 181 -215 l 1
 226 -177 269 -107 286 -51 c 1
 222 -49 168 2 168 69 c 0
 168 134 222 188 286 188 c 0
EndSplineSet
Validated: 1
Layer: 2
SplineSet
286 188 m 0,0,1
 343 188 343 188 386.5 146 c 128,-1,2
 430 104 430 104 430 30 c 0,3,4
 430 -31 430 -31 409 -87 c 128,-1,5
 388 -143 388 -143 354 -183.5 c 128,-1,6
 320 -224 320 -224 303.5 -240.5 c 128,-1,7
 287 -257 287 -257 270.272037662 -269.987437794 c 0,8,9
 270 -271 270 -271 269.5 -271 c 2,10,-1
 269 -271 l 1,11,-1
 248 -278 l 1,12,-1
 101 -278 l 1,13,-1
 181 -215 l 2,14,15
 214 -187 214 -187 243.5 -140.5 c 128,-1,16
 273 -94 273 -94 286 -51 c 1,17,18
 237 -49 237 -49 202.5 -15 c 128,-1,19
 168 19 168 19 168 69 c 0,20,21
 168 118 168 118 203 153 c 128,-1,22
 238 188 238 188 286 188 c 0,0,1
EndSplineSet
EndChar

StartChar: quotedblbase
Encoding: 8222 8222 115
Width: 839
VWidth: 2982
Flags: W
HStem: -51 239<195.323 286 463.73 555>
VStem: 168 262<-19.8944 145.478> 436 262<-19.8944 145.478>
LayerCount: 3
Fore
SplineSet
555 188 m 0
 624 188 698 134 698 30 c 0
 698 -154 540 -269 538 -271 c 1
 517 -278 l 1
 369 -278 l 1
 450 -215 l 1
 495 -177 538 -107 555 -51 c 1
 491 -49 436 2 436 69 c 0
 436 134 491 188 555 188 c 0
286 188 m 0
 356 188 430 134 430 30 c 0
 430 -154 271 -269 269 -271 c 1
 248 -278 l 1
 101 -278 l 1
 181 -215 l 1
 226 -177 269 -107 286 -51 c 1
 222 -49 168 2 168 69 c 0
 168 134 222 188 286 188 c 0
EndSplineSet
Validated: 1
Layer: 2
SplineSet
555 188 m 0,0,1
 611 188 611 188 654.5 145.5 c 128,-1,2
 698 103 698 103 698 30 c 0,3,4
 698 -31 698 -31 677 -87 c 128,-1,5
 656 -143 656 -143 622.5 -183.5 c 128,-1,6
 589 -224 589 -224 572.5 -240.5 c 128,-1,7
 556 -257 556 -257 539.244688214 -270.00392904 c 2,8,-1
 538 -271 l 1,9,-1
 517 -278 l 1,10,-1
 369 -278 l 1,11,-1
 450 -215 l 2,12,13
 483 -187 483 -187 512.5 -140.5 c 128,-1,14
 542 -94 542 -94 555 -51 c 1,15,16
 506 -49 506 -49 471 -14.5 c 128,-1,17
 436 20 436 20 436 69 c 128,-1,18
 436 118 436 118 471.5 153 c 128,-1,19
 507 188 507 188 555 188 c 0,0,1
286 188 m 0,20,21
 343 188 343 188 386.5 146 c 128,-1,22
 430 104 430 104 430 30 c 0,23,24
 430 -31 430 -31 409 -87 c 128,-1,25
 388 -143 388 -143 354 -183.5 c 128,-1,26
 320 -224 320 -224 303.5 -240.5 c 128,-1,27
 287 -257 287 -257 270.272037662 -269.987437794 c 0,28,29
 270 -271 270 -271 269.5 -271 c 2,30,-1
 269 -271 l 1,31,-1
 248 -278 l 1,32,-1
 101 -278 l 1,33,-1
 181 -215 l 2,34,35
 214 -187 214 -187 243.5 -140.5 c 128,-1,36
 273 -94 273 -94 286 -51 c 1,37,38
 237 -49 237 -49 202.5 -15 c 128,-1,39
 168 19 168 19 168 69 c 0,40,41
 168 118 168 118 203 153 c 128,-1,42
 238 188 238 188 286 188 c 0,20,21
EndSplineSet
EndChar

StartChar: quotedblright
Encoding: 8221 8221 116
Width: 739
VWidth: 2982
Flags: W
HStem: 1288 237<134.556 232.129 401.084 496.011>
VStem: 107 262<1316.87 1483.58> 374 262<1316.87 1483.58>
LayerCount: 3
Fore
SplineSet
497 1288 m 1
 437 1288 374 1334 374 1406 c 0
 374 1471 427 1525 493 1525 c 0
 557 1525 636 1476 636 1367 c 0
 636 1182 477 1068 474 1066 c 2
 455 1059 l 1
 307 1059 l 1
 389 1124 l 2
 436 1160 481 1231 497 1288 c 1
233 1288 m 1
 172 1288 107 1334 107 1406 c 0
 107 1471 161 1525 226 1525 c 0
 291 1525 369 1476 369 1367 c 0
 369 1182 211 1068 208 1066 c 2
 188 1059 l 1
 40 1059 l 1
 126 1124 l 2
 173 1160 215 1231 233 1288 c 1
EndSplineSet
Validated: 1
Layer: 2
SplineSet
497 1288 m 1,0,1
 449 1288 449 1288 411.5 1321 c 128,-1,2
 374 1354 374 1354 374 1406 c 0,3,4
 374 1455 374 1455 409 1490 c 128,-1,5
 444 1525 444 1525 493 1525 c 0,6,7
 548 1525 548 1525 592 1484 c 128,-1,8
 636 1443 636 1443 636 1367 c 0,9,10
 636 1315 636 1315 619 1265 c 128,-1,11
 602 1215 602 1215 580.5 1182 c 128,-1,12
 559 1149 559 1149 532 1120 c 128,-1,13
 505 1091 505 1091 492.5 1080.5 c 128,-1,14
 480 1070 480 1070 474 1066 c 2,15,-1
 455 1059 l 1,16,-1
 307 1059 l 1,17,-1
 389 1124 l 2,18,19
 424 1151 424 1151 454.5 1197.5 c 128,-1,20
 485 1244 485 1244 497 1288 c 1,0,1
233 1288 m 1,21,22
 184 1288 184 1288 145.5 1321 c 128,-1,23
 107 1354 107 1354 107 1406 c 0,24,25
 107 1455 107 1455 142 1490 c 128,-1,26
 177 1525 177 1525 226 1525 c 0,27,28
 281 1525 281 1525 325 1484 c 128,-1,29
 369 1443 369 1443 369 1367 c 0,30,31
 369 1315 369 1315 352 1265 c 128,-1,32
 335 1215 335 1215 313.5 1182 c 128,-1,33
 292 1149 292 1149 265.5 1120 c 128,-1,34
 239 1091 239 1091 226.5 1080.5 c 128,-1,35
 214 1070 214 1070 208 1066 c 2,36,-1
 188 1059 l 1,37,-1
 40 1059 l 1,38,-1
 126 1124 l 2,39,40
 160 1150 160 1150 189.5 1196.5 c 128,-1,41
 219 1243 219 1243 233 1288 c 1,21,22
EndSplineSet
EndChar

StartChar: guillemotright
Encoding: 187 187 117
Width: 883
VWidth: 2982
Flags: W
DStem2: 222 902 25 902 0.582019 -0.813175<0 369.863> 25 114 222 114 0.582019 0.813175<114.658 484.52> 551 902 352 902 0.582019 -0.813175<0 368.699> 352 114 551 114 0.582019 0.813175<115.822 484.52>
LayerCount: 3
Fore
SplineSet
25 902 m 1
 222 902 l 1
 504 508 l 1
 222 114 l 1
 25 114 l 1
 307 508 l 1
 25 902 l 1
352 902 m 1
 551 902 l 1
 833 508 l 1
 551 114 l 1
 352 114 l 1
 634 508 l 1
 352 902 l 1
EndSplineSet
Validated: 1
Layer: 2
SplineSet
25 902 m 1,0,-1
 222 902 l 1,1,-1
 504 508 l 1,2,-1
 222 114 l 1,3,-1
 25 114 l 1,4,-1
 307 508 l 1,5,-1
 25 902 l 1,0,-1
352 902 m 1,6,-1
 551 902 l 1,7,-1
 833 508 l 1,8,-1
 551 114 l 1,9,-1
 352 114 l 1,10,-1
 634 508 l 1,11,-1
 352 902 l 1,6,-1
EndSplineSet
EndChar

StartChar: ellipsis
Encoding: 8230 8230 118
Width: 1765
VWidth: 2982
Flags: W
HStem: -51 239<195.323 378.509 794.73 978.186 1388.08 1572.83>
VStem: 168 238<-23.8323 160.593> 767 239<-23.8323 160.593> 1361 239<-23.8323 160.593>
LayerCount: 3
Fore
SplineSet
286 188 m 0
 352 188 406 134 406 69 c 0
 406 2 352 -51 286 -51 c 0
 222 -51 168 2 168 69 c 0
 168 134 222 188 286 188 c 0
1480 188 m 0
 1547 188 1600 134 1600 69 c 0
 1600 2 1547 -51 1480 -51 c 0
 1414 -51 1361 2 1361 69 c 0
 1361 134 1414 188 1480 188 c 0
886 188 m 0
 951 188 1006 134 1006 69 c 0
 1006 2 951 -51 886 -51 c 0
 822 -51 767 2 767 69 c 0
 767 134 822 188 886 188 c 0
EndSplineSet
Validated: 1
Layer: 2
SplineSet
286 188 m 0,0,1
 335 188 335 188 370.5 153 c 128,-1,2
 406 118 406 118 406 69 c 0,3,4
 406 19 406 19 371 -16 c 128,-1,5
 336 -51 336 -51 286 -51 c 0,6,7
 238 -51 238 -51 203 -16 c 128,-1,8
 168 19 168 19 168 69 c 0,9,10
 168 118 168 118 203 153 c 128,-1,11
 238 188 238 188 286 188 c 0,0,1
1480 188 m 0,12,13
 1530 188 1530 188 1565 153 c 128,-1,14
 1600 118 1600 118 1600 69 c 0,15,16
 1600 19 1600 19 1565 -16 c 128,-1,17
 1530 -51 1530 -51 1480 -51 c 128,-1,18
 1430 -51 1430 -51 1395.5 -16 c 128,-1,19
 1361 19 1361 19 1361 69 c 0,20,21
 1361 118 1361 118 1396 153 c 128,-1,22
 1431 188 1431 188 1480 188 c 0,12,13
886 188 m 0,23,24
 935 188 935 188 970.5 153 c 128,-1,25
 1006 118 1006 118 1006 69 c 0,26,27
 1006 19 1006 19 970.5 -16 c 128,-1,28
 935 -51 935 -51 886 -51 c 0,29,30
 838 -51 838 -51 802.5 -16 c 128,-1,31
 767 19 767 19 767 69 c 0,32,33
 767 118 767 118 802.5 153 c 128,-1,34
 838 188 838 188 886 188 c 0,23,24
EndSplineSet
EndChar

StartChar: perthousand
Encoding: 8240 8240 119
Width: 2213
VWidth: 2982
Flags: W
HStem: -56 163<996.5 1211.63 1738.43 1964.28> 438 164<989.789 1218.37 1738.43 1964.28> 880 165<251.859 477.339> 1372 166<251.859 477.339>
VStem: 36 161<1101.16 1316.22> 530 162<1095.92 1317.66> 777 161<161.446 383.936> 1271 162<162.907 382.505> 1523 160<163.462 379.462> 2017 161<158.238 384.709>
DStem2: 81 -45 278 -45 0.578523 0.815666<113.969 1918.68>
LayerCount: 3
Fore
SplineSet
1433 275 m 0
 1433 94 1285 -54 1104 -54 c 0
 922 -54 777 94 777 275 c 0
 777 457 922 602 1104 602 c 0
 1285 602 1433 457 1433 275 c 0
938 275 m 0
 938 184 1010 109 1104 109 c 0
 1198 109 1271 184 1271 275 c 0
 1271 365 1198 438 1104 438 c 0
 1010 438 938 365 938 275 c 0
2178 271 m 0
 2178 90 2033 -56 1852 -56 c 0
 1670 -56 1523 90 1523 271 c 0
 1523 453 1670 600 1852 600 c 0
 2033 600 2178 453 2178 271 c 0
1683 271 m 0
 1683 181 1758 107 1852 107 c 0
 1946 107 2017 181 2017 271 c 0
 2017 363 1946 436 1852 436 c 0
 1758 436 1683 363 1683 271 c 0
692 1209 m 0
 692 1027 546 880 365 880 c 0
 184 880 36 1027 36 1209 c 0
 36 1390 184 1538 365 1538 c 0
 546 1538 692 1390 692 1209 c 0
197 1209 m 0
 197 1119 271 1045 365 1045 c 0
 459 1045 530 1119 530 1209 c 0
 530 1298 459 1372 365 1372 c 0
 271 1372 197 1298 197 1209 c 0
1191 1520 m 1
 1388 1520 l 1
 278 -45 l 1
 81 -45 l 1
 1191 1520 l 1
EndSplineSet
Validated: 1
Layer: 2
SplineSet
1433 275 m 128,-1,1
 1433 139 1433 139 1336.5 42.5 c 128,-1,2
 1240 -54 1240 -54 1104 -54 c 128,-1,3
 968 -54 968 -54 872.5 42.5 c 128,-1,4
 777 139 777 139 777 275 c 0,5,6
 777 412 777 412 872.5 507 c 128,-1,7
 968 602 968 602 1104 602 c 128,-1,8
 1240 602 1240 602 1336.5 506.5 c 128,-1,0
 1433 411 1433 411 1433 275 c 128,-1,1
938 275 m 0,9,10
 938 206 938 206 986 157.5 c 128,-1,11
 1034 109 1034 109 1104 109 c 128,-1,12
 1174 109 1174 109 1222.5 157.5 c 128,-1,13
 1271 206 1271 206 1271 275 c 0,14,15
 1271 343 1271 343 1222.5 390.5 c 128,-1,16
 1174 438 1174 438 1104 438 c 128,-1,17
 1034 438 1034 438 986 390.5 c 128,-1,18
 938 343 938 343 938 275 c 0,9,10
2178 271 m 0,19,20
 2178 135 2178 135 2083 39.5 c 128,-1,21
 1988 -56 1988 -56 1852 -56 c 0,22,23
 1715 -56 1715 -56 1619 39.5 c 128,-1,24
 1523 135 1523 135 1523 271 c 0,25,26
 1523 408 1523 408 1619.5 504 c 128,-1,27
 1716 600 1716 600 1852 600 c 128,-1,28
 1988 600 1988 600 2083 504 c 128,-1,29
 2178 408 2178 408 2178 271 c 0,19,20
1683 271 m 0,30,31
 1683 203 1683 203 1732.5 155 c 128,-1,32
 1782 107 1782 107 1852 107 c 128,-1,33
 1922 107 1922 107 1969.5 155 c 128,-1,34
 2017 203 2017 203 2017 271 c 0,35,36
 2017 340 2017 340 1969.5 388 c 128,-1,37
 1922 436 1922 436 1852 436 c 0,38,39
 1781 436 1781 436 1732 388 c 128,-1,40
 1683 340 1683 340 1683 271 c 0,30,31
692 1209 m 0,41,42
 692 1072 692 1072 596.5 976 c 128,-1,43
 501 880 501 880 365 880 c 128,-1,44
 229 880 229 880 132.5 976.5 c 128,-1,45
 36 1073 36 1073 36 1209 c 128,-1,46
 36 1345 36 1345 132.5 1441.5 c 128,-1,47
 229 1538 229 1538 365 1538 c 128,-1,48
 501 1538 501 1538 596.5 1441.5 c 128,-1,49
 692 1345 692 1345 692 1209 c 0,41,42
197 1209 m 0,50,51
 197 1141 197 1141 246 1093 c 128,-1,52
 295 1045 295 1045 365 1045 c 128,-1,53
 435 1045 435 1045 482.5 1093 c 128,-1,54
 530 1141 530 1141 530 1209 c 0,55,56
 530 1276 530 1276 482.5 1324 c 128,-1,57
 435 1372 435 1372 365 1372 c 128,-1,58
 295 1372 295 1372 246 1324 c 128,-1,59
 197 1276 197 1276 197 1209 c 0,50,51
1191 1520 m 1,60,-1
 1388 1520 l 1,61,-1
 278 -45 l 1,62,-1
 81 -45 l 1,63,-1
 1191 1520 l 1,60,-1
EndSplineSet
EndChar

StartChar: questiondown
Encoding: 191 191 120
Width: 1089
VWidth: 2982
Flags: W
HStem: -564 161<380.109 682.336> 790 240<484 668.749>
VStem: 114 161<-298.051 -45.2006> 457 239<817.658 1002.68> 493 161<366.768 707> 818 160<-271.716 -116>
LayerCount: 3
Fore
SplineSet
575 790 m 0xf4
 510 790 457 844 457 912 c 0
 457 976 510 1030 575 1030 c 0
 643 1030 696 976 696 912 c 0
 696 844 643 790 575 790 c 0xf4
493 707 m 1xec
 654 707 l 1
 654 521 l 2
 654 158 275 27 275 -152 c 0
 275 -305 385 -403 526 -403 c 0
 701 -403 818 -267 818 -152 c 2
 818 -116 l 1
 978 -116 l 1
 978 -152 l 2
 978 -372 775 -564 526 -564 c 0
 289 -564 114 -389 114 -152 c 0
 114 126 493 233 493 521 c 2
 493 707 l 1xec
EndSplineSet
Validated: 1
Layer: 2
SplineSet
575 790 m 0,0,1
 526 790 526 790 491.5 825.5 c 128,-1,2
 457 861 457 861 457 912 c 0,3,4
 457 960 457 960 491.5 995 c 128,-1,5
 526 1030 526 1030 575 1030 c 0,6,7
 626 1030 626 1030 661 995 c 128,-1,8
 696 960 696 960 696 912 c 0,9,10
 696 861 696 861 661 825.5 c 128,-1,11
 626 790 626 790 575 790 c 0,0,1
493 707 m 1,12,-1
 654 707 l 1,13,-1
 654 521 l 2,14,15
 654 447 654 447 633 379 c 128,-1,16
 612 311 612 311 578.5 259.5 c 128,-1,17
 545 208 545 208 504.5 160.5 c 128,-1,18
 464 113 464 113 424 73 c 128,-1,19
 384 33 384 33 350.5 -3.5 c 128,-1,20
 317 -40 317 -40 296 -78 c 128,-1,21
 275 -116 275 -116 275 -152 c 0,22,23
 275 -265 275 -265 346.5 -334 c 128,-1,24
 418 -403 418 -403 526 -403 c 0,25,26
 589 -403 589 -403 645 -380 c 128,-1,27
 701 -357 701 -357 738 -320.5 c 128,-1,28
 775 -284 775 -284 796.5 -239.5 c 128,-1,29
 818 -195 818 -195 818 -152 c 2,30,-1
 818 -116 l 1,31,-1
 978 -116 l 1,32,-1
 978 -152 l 2,33,34
 978 -318 978 -318 844.5 -441 c 128,-1,35
 711 -564 711 -564 526 -564 c 0,36,37
 348 -564 348 -564 231 -447 c 128,-1,38
 114 -330 114 -330 114 -152 c 0,39,40
 114 -87 114 -87 142 -25.5 c 128,-1,41
 170 36 170 36 212 82 c 128,-1,42
 254 128 254 128 303.5 180.5 c 128,-1,43
 353 233 353 233 395 280 c 128,-1,44
 437 327 437 327 465 390.5 c 128,-1,45
 493 454 493 454 493 521 c 2,46,-1
 493 707 l 1,12,-1
EndSplineSet
EndChar

StartChar: grave
Encoding: 96 96 121
Width: 425
VWidth: 2982
Flags: W
HStem: 1194 364<192 211>
VStem: 13 320
LayerCount: 3
Fore
SplineSet
333 1194 m 1
 192 1194 l 1
 13 1558 l 1
 211 1558 l 1
 333 1194 l 1
EndSplineSet
Validated: 1
Layer: 2
SplineSet
333 1194 m 1,0,-1
 192 1194 l 1,1,-1
 13 1558 l 1,2,-1
 211 1558 l 1,3,-1
 333 1194 l 1,0,-1
EndSplineSet
EndChar

StartChar: acute
Encoding: 180 180 122
Width: 630
VWidth: 2982
Flags: W
HStem: 1157 430
VStem: 139 532
LayerCount: 3
Fore
SplineSet
410 1587 m 1
 671 1587 l 1
 327 1157 l 1
 139 1157 l 1
 410 1587 l 1
EndSplineSet
Validated: 1
Layer: 2
SplineSet
410 1587 m 1,0,-1
 671 1587 l 1,1,-1
 327 1157 l 1,2,-1
 139 1157 l 1,3,-1
 410 1587 l 1,0,-1
EndSplineSet
EndChar

StartChar: circumflex
Encoding: 710 710 123
Width: 690
VWidth: 2982
Flags: W
HStem: 1426 338
LayerCount: 3
Fore
SplineSet
297 1764 m 1
 393 1764 l 1
 703 1426 l 1
 483 1426 l 1
 346 1574 l 1
 211 1426 l 1
 -9 1426 l 1
 297 1764 l 1
EndSplineSet
Validated: 1
Layer: 2
SplineSet
297 1764 m 1,0,-1
 393 1764 l 1,1,-1
 703 1426 l 1,2,-1
 483 1426 l 1,3,-1
 346 1574 l 1,4,-1
 211 1426 l 1,5,-1
 -9 1426 l 1,6,-1
 297 1764 l 1,0,-1
EndSplineSet
EndChar

StartChar: tilde
Encoding: 732 732 124
Width: 648
VWidth: 2982
Flags: W
HStem: 1269 164<370.588 484.525> 1379 159<169.72 289.943>
VStem: 485 130<1439 1525>
LayerCount: 3
Fore
SplineSet
36 1323 m 2x60
 36 1504 134 1538 199 1538 c 0x60
 312 1538 406 1437 459 1433 c 0
 466 1433 485 1444 485 1489 c 2
 485 1525 l 1
 615 1525 l 1
 615 1489 l 2
 615 1325 553 1269 459 1269 c 0xa0
 352 1269 248 1379 199 1379 c 0
 181 1379 171 1363 168 1320 c 2
 166 1288 l 1
 36 1288 l 1
 36 1323 l 2x60
EndSplineSet
Validated: 1
Layer: 2
SplineSet
36 1323 m 2,0,1
 36 1375 36 1375 47 1414.5 c 128,-1,2
 58 1454 58 1454 74.5 1477 c 128,-1,3
 91 1500 91 1500 114 1514.5 c 128,-1,4
 137 1529 137 1529 157 1533.5 c 128,-1,5
 177 1538 177 1538 199 1538 c 0,6,7
 248 1538 248 1538 301 1512.5 c 128,-1,8
 354 1487 354 1487 396.5 1461 c 128,-1,9
 439 1435 439 1435 459 1433 c 0,10,11
 464 1433 464 1433 469 1437 c 128,-1,12
 474 1441 474 1441 479.5 1454.5 c 128,-1,13
 485 1468 485 1468 485 1489 c 2,14,-1
 485 1525 l 1,15,-1
 615 1525 l 1,16,-1
 615 1489 l 2,17,18
 615 1269 615 1269 459 1269 c 0,19,20
 413 1269 413 1269 358.5 1296.5 c 128,-1,21
 304 1324 304 1324 261 1351.5 c 128,-1,22
 218 1379 218 1379 199 1379 c 0,23,24
 172 1379 172 1379 168 1320 c 2,25,-1
 166 1288 l 1,26,-1
 36 1288 l 1,27,-1
 36 1323 l 2,0,1
EndSplineSet
EndChar

StartChar: macron
Encoding: 175 175 125
Width: 899
VWidth: 2982
Flags: W
HStem: 1173 162<107 795>
LayerCount: 3
Fore
SplineSet
795 1335 m 1
 795 1173 l 1
 107 1173 l 1
 107 1335 l 1
 795 1335 l 1
EndSplineSet
Validated: 1
Layer: 2
SplineSet
795 1335 m 1,0,-1
 795 1173 l 1,1,-1
 107 1173 l 1,2,-1
 107 1335 l 1,3,-1
 795 1335 l 1,0,-1
EndSplineSet
EndChar

StartChar: dotaccent
Encoding: 729 729 126
Width: 570
VWidth: 2982
Flags: W
HStem: 1202 240<195.323 378.509>
VStem: 168 238<1229.57 1414.59>
LayerCount: 3
Fore
SplineSet
286 1442 m 0
 352 1442 406 1388 406 1323 c 0
 406 1256 352 1202 286 1202 c 0
 222 1202 168 1256 168 1323 c 0
 168 1388 222 1442 286 1442 c 0
EndSplineSet
Validated: 1
Layer: 2
SplineSet
286 1442 m 0,0,1
 335 1442 335 1442 370.5 1407 c 128,-1,2
 406 1372 406 1372 406 1323 c 0,3,4
 406 1273 406 1273 371 1237.5 c 128,-1,5
 336 1202 336 1202 286 1202 c 0,6,7
 238 1202 238 1202 203 1237.5 c 128,-1,8
 168 1273 168 1273 168 1323 c 0,9,10
 168 1372 168 1372 203 1407 c 128,-1,11
 238 1442 238 1442 286 1442 c 0,0,1
EndSplineSet
EndChar

StartChar: dieresis
Encoding: 168 168 127
Width: 666
VWidth: 2982
Flags: W
HStem: 1173 239<63.3232 247.749 420.814 606.103>
VStem: 36 239<1200.08 1384.83> 393 241<1200.08 1384.83>
LayerCount: 3
Fore
SplineSet
154 1412 m 0
 222 1412 275 1359 275 1292 c 0
 275 1226 222 1173 154 1173 c 0
 90 1173 36 1226 36 1292 c 0
 36 1359 90 1412 154 1412 c 0
513 1412 m 0
 579 1412 634 1359 634 1292 c 0
 634 1226 579 1173 513 1173 c 0
 448 1173 393 1226 393 1292 c 0
 393 1359 448 1412 513 1412 c 0
EndSplineSet
Validated: 1
Layer: 2
SplineSet
154 1412 m 0,0,1
 205 1412 205 1412 240 1377 c 128,-1,2
 275 1342 275 1342 275 1292 c 128,-1,3
 275 1242 275 1242 240 1207.5 c 128,-1,4
 205 1173 205 1173 154 1173 c 0,5,6
 106 1173 106 1173 71 1208 c 128,-1,7
 36 1243 36 1243 36 1292 c 0,8,9
 36 1342 36 1342 71 1377 c 128,-1,10
 106 1412 106 1412 154 1412 c 0,0,1
513 1412 m 0,11,12
 563 1412 563 1412 598.5 1377 c 128,-1,13
 634 1342 634 1342 634 1292 c 0,14,15
 634 1243 634 1243 598.5 1208 c 128,-1,16
 563 1173 563 1173 513 1173 c 0,17,18
 464 1173 464 1173 428.5 1208 c 128,-1,19
 393 1243 393 1243 393 1292 c 0,20,21
 393 1342 393 1342 428.5 1377 c 128,-1,22
 464 1412 464 1412 513 1412 c 0,11,12
EndSplineSet
EndChar

StartChar: ring
Encoding: 730 730 128
Width: 570
VWidth: 2982
Flags: W
HStem: 1085 162<210.802 361.955> 1426 161<210.254 362.506>
VStem: 36 161<1260.82 1412.93> 376 162<1261.39 1412.38>
LayerCount: 3
Fore
SplineSet
538 1337 m 0
 538 1198 425 1085 286 1085 c 0
 148 1085 36 1198 36 1337 c 0
 36 1476 148 1587 286 1587 c 0
 425 1587 538 1476 538 1337 c 0
197 1337 m 0
 197 1290 237 1247 286 1247 c 0
 336 1247 376 1290 376 1337 c 0
 376 1386 336 1426 286 1426 c 0
 237 1426 197 1386 197 1337 c 0
EndSplineSet
Validated: 1
Layer: 2
SplineSet
538 1337 m 128,-1,1
 538 1233 538 1233 464 1159 c 128,-1,2
 390 1085 390 1085 286 1085 c 0,3,4
 183 1085 183 1085 109.5 1159 c 128,-1,5
 36 1233 36 1233 36 1337 c 128,-1,6
 36 1441 36 1441 109 1514 c 128,-1,7
 182 1587 182 1587 286 1587 c 128,-1,8
 390 1587 390 1587 464 1514 c 128,-1,0
 538 1441 538 1441 538 1337 c 128,-1,1
197 1337 m 0,9,10
 197 1301 197 1301 223.5 1274 c 128,-1,11
 250 1247 250 1247 286 1247 c 0,12,13
 323 1247 323 1247 349.5 1274 c 128,-1,14
 376 1301 376 1301 376 1337 c 0,15,16
 376 1374 376 1374 349.5 1400 c 128,-1,17
 323 1426 323 1426 286 1426 c 128,-1,18
 249 1426 249 1426 223 1400 c 128,-1,19
 197 1374 197 1374 197 1337 c 0,9,10
EndSplineSet
EndChar

StartChar: cedilla
Encoding: 184 184 129
Width: 624
VWidth: 2982
Flags: W
HStem: -459 160<162.062 358.624>
VStem: 359 160<-296.53 -241.327>
LayerCount: 3
Fore
SplineSet
295 11 m 1
 461 11 l 1
 401 -96 l 1
 510 -134 519 -224 519 -269 c 0
 519 -383 421 -457 297 -459 c 0
 242 -459 179 -444 124 -406 c 1
 94 -387 l 1
 181 -250 l 1
 211 -271 l 1
 242 -291 273 -299 299 -299 c 0
 333 -299 359 -286 359 -271 c 0
 359 -258 336 -242 282 -233 c 1
 164 -218 l 1
 295 11 l 1
EndSplineSet
Validated: 1
Layer: 2
SplineSet
295 11 m 1,0,-1
 461 11 l 1,1,-1
 401 -96 l 1,2,3
 519 -137 519 -137 519 -269 c 0,4,5
 519 -353 519 -353 455.5 -405 c 128,-1,6
 392 -457 392 -457 297 -459 c 0,7,8
 201 -459 201 -459 124 -406 c 2,9,-1
 94 -387 l 1,10,-1
 181 -250 l 1,11,-1
 211 -271 l 2,12,13
 254 -299 254 -299 299 -299 c 0,14,15
 324 -299 324 -299 341.5 -290.5 c 128,-1,16
 359 -282 359 -282 359 -271 c 0,17,18
 359 -246 359 -246 282 -233 c 2,19,-1
 164 -218 l 1,20,-1
 295 11 l 1,0,-1
EndSplineSet
EndChar

StartChar: hungarumlaut
Encoding: 733 733 130
Width: 1017
VWidth: 2982
Flags: W
HStem: 1157 430
LayerCount: 3
Fore
SplineSet
410 1587 m 1
 671 1587 l 1
 327 1157 l 1
 139 1157 l 1
 410 1587 l 1
799 1587 m 1
 1059 1587 l 1
 716 1157 l 1
 526 1157 l 1
 799 1587 l 1
EndSplineSet
Validated: 1
Layer: 2
SplineSet
410 1587 m 1,0,-1
 671 1587 l 1,1,-1
 327 1157 l 1,2,-1
 139 1157 l 1,3,-1
 410 1587 l 1,0,-1
799 1587 m 1,4,-1
 1059 1587 l 1,5,-1
 716 1157 l 1,6,-1
 526 1157 l 1,7,-1
 799 1587 l 1,4,-1
EndSplineSet
EndChar

StartChar: ogonek
Encoding: 731 731 131
Width: 603
VWidth: 2982
Flags: W
HStem: -427 147<273.116 446.534>
VStem: 107 164<-275.135 -106.714>
LayerCount: 3
Fore
SplineSet
107 -226 m 0
 107 -119 186 -27 246 36 c 1
 444 36 l 1
 383 -25 l 1
 284 -128 271 -184 271 -224 c 0
 271 -269 320 -280 342 -280 c 0
 359 -280 378 -273 396 -262 c 1
 423 -239 l 1
 515 -352 l 1
 483 -374 l 2
 430 -410 372 -427 316 -427 c 0
 201 -427 107 -346 107 -226 c 0
EndSplineSet
Validated: 1
Layer: 2
SplineSet
107 -226 m 0,0,1
 107 -110 107 -110 246 36 c 1,2,-1
 444 36 l 1,3,-1
 383 -25 l 2,4,5
 271 -142 271 -142 271 -224 c 0,6,7
 271 -254 271 -254 294.5 -267 c 128,-1,8
 318 -280 318 -280 342 -280 c 0,9,10
 367 -280 367 -280 396 -262 c 1,11,-1
 423 -239 l 1,12,-1
 515 -352 l 1,13,-1
 483 -374 l 2,14,15
 405 -427 405 -427 316 -427 c 0,16,17
 228 -427 228 -427 167.5 -370.5 c 128,-1,18
 107 -314 107 -314 107 -226 c 0,0,1
EndSplineSet
EndChar

StartChar: caron
Encoding: 711 711 132
Width: 690
VWidth: 2982
Flags: W
HStem: 1426 338
LayerCount: 3
Fore
SplineSet
393 1426 m 1
 297 1426 l 1
 -9 1764 l 1
 211 1764 l 1
 346 1617 l 1
 483 1764 l 1
 703 1764 l 1
 393 1426 l 1
EndSplineSet
Validated: 1
Layer: 2
SplineSet
393 1426 m 1,0,-1
 297 1426 l 1,1,-1
 -9 1764 l 1,2,-1
 211 1764 l 1,3,-1
 346 1617 l 1,4,-1
 483 1764 l 1,5,-1
 703 1764 l 1,6,-1
 393 1426 l 1,0,-1
EndSplineSet
EndChar

StartChar: emdash
Encoding: 8212 8212 133
Width: 1376
VWidth: 2982
Flags: W
HStem: 427 162<107 1271>
LayerCount: 3
Fore
SplineSet
1271 589 m 1
 1271 427 l 1
 107 427 l 1
 107 589 l 1
 1271 589 l 1
EndSplineSet
Validated: 1
Layer: 2
SplineSet
1271 589 m 1,0,-1
 1271 427 l 1,1,-1
 107 427 l 1,2,-1
 107 589 l 1,3,-1
 1271 589 l 1,0,-1
EndSplineSet
EndChar

StartChar: AE
Encoding: 198 198 134
Width: 1662
VWidth: 2982
Flags: W
HStem: 0 152<1097 1553> 440 156<448 853> 784 154<978 1471> 1339 154<873 1531>
DStem2: 25 0 192 0 0.390344 0.920669<65.1874 543.667 713.834 1433.39> 873 1339 730 1258 0.185438 -0.982656<53.0775 408.138 564.845 726.405 885.077 1207.95>
LayerCount: 3
Fore
SplineSet
1471 938 m 1
 1471 784 l 1
 978 784 l 1
 1097 152 l 1
 1553 152 l 1
 1553 0 l 1
 965 0 l 1
 882 440 l 1
 380 440 l 1
 192 0 l 1
 25 0 l 1
 658 1493 l 1
 1531 1493 l 1
 1531 1339 l 1
 873 1339 l 1
 949 938 l 1
 1471 938 l 1
448 596 m 1
 853 596 l 1
 730 1258 l 1
 448 596 l 1
EndSplineSet
Validated: 1
Layer: 2
SplineSet
1471 938 m 1,0,-1
 1471 784 l 1,1,-1
 978 784 l 1,2,-1
 1097 152 l 1,3,-1
 1553 152 l 1,4,-1
 1553 0 l 1,5,-1
 965 0 l 1,6,-1
 882 440 l 1,7,-1
 380 440 l 1,8,-1
 192 0 l 1,9,-1
 25 0 l 1,10,-1
 658 1493 l 1,11,-1
 1531 1493 l 1,12,-1
 1531 1339 l 1,13,-1
 873 1339 l 1,14,-1
 949 938 l 1,15,-1
 1471 938 l 1,0,-1
448 596 m 1,16,-1
 853 596 l 1,17,-1
 730 1258 l 1,18,-1
 448 596 l 1,16,-1
EndSplineSet
EndChar

StartChar: ordfeminine
Encoding: 170 170 135
Width: 836
VWidth: 2982
Flags: W
HStem: 585 149<255.464 491.643> 996 134<260.833 587.271> 1254 145<268.651 521.26>
VStem: 74 150<766.807 955.592> 598 154<844.148 983.419> 634 150<607.75 695.307>
LayerCount: 3
Fore
SplineSet
598 940 m 1xf8
 598 974 l 1
 546 987 483 996 423 996 c 0
 314 996 224 967 224 861 c 0
 224 777 291 734 374 734 c 0
 506 734 589 880 598 940 c 1xf8
213 1147 m 1
 87 1186 l 1
 119 1238 211 1399 401 1399 c 0
 591 1399 752 1260 752 1032 c 2
 752 822 l 2xf8
 752 737 779 632 784 611 c 1
 634 577 l 1xf4
 624 618 615 640 609 698 c 1
 551 636 472 585 374 585 c 0
 203 585 74 696 74 861 c 0
 74 1063 246 1130 414 1130 c 0
 474 1130 534 1124 589 1108 c 1
 562 1200 487 1254 393 1254 c 0
 286 1254 233 1179 213 1147 c 1
EndSplineSet
Validated: 1
Layer: 2
SplineSet
598 940 m 1,0,-1
 598 974 l 1,1,2
 510 996 510 996 423 996 c 0,3,4
 224 996 224 996 224 861 c 0,5,6
 224 800 224 800 266.5 767 c 128,-1,7
 309 734 309 734 374 734 c 0,8,9
 420 734 420 734 462.5 757.5 c 128,-1,10
 505 781 505 781 532.5 815 c 128,-1,11
 560 849 560 849 577 882 c 128,-1,12
 594 915 594 915 598 940 c 1,0,-1
213 1147 m 1,13,-1
 87 1186 l 1,14,15
 101 1208 101 1208 105 1215 c 128,-1,16
 109 1222 109 1222 129.5 1250 c 128,-1,17
 150 1278 150 1278 164.5 1292.5 c 128,-1,18
 179 1307 179 1307 207 1330.5 c 128,-1,19
 235 1354 235 1354 261.5 1366.5 c 128,-1,20
 288 1379 288 1379 325 1389 c 128,-1,21
 362 1399 362 1399 401 1399 c 0,22,23
 549 1399 549 1399 650.5 1298.5 c 128,-1,24
 752 1198 752 1198 752 1032 c 2,25,-1
 752 822 l 2,26,27
 752 745 752 745 784 611 c 1,28,-1
 634 577 l 1,29,30
 612 666 612 666 609 698 c 1,31,32
 503 585 503 585 374 585 c 0,33,34
 244 585 244 585 159 662 c 128,-1,35
 74 739 74 739 74 861 c 0,36,37
 74 934 74 934 103 988 c 128,-1,38
 132 1042 132 1042 181.5 1072 c 128,-1,39
 231 1102 231 1102 289 1116 c 128,-1,40
 347 1130 347 1130 414 1130 c 0,41,42
 513 1130 513 1130 589 1108 c 1,43,44
 569 1177 569 1177 516.5 1215.5 c 128,-1,45
 464 1254 464 1254 393 1254 c 0,46,47
 280 1254 280 1254 213 1147 c 1,13,-1
EndSplineSet
EndChar

StartChar: Lslash
Encoding: 321 321 136
Width: 1158
VWidth: 2877
Flags: W
HStem: 0 154<302 1066> 1473 20G<143 302>
VStem: 143 159<154 414 771 1493>
DStem2: 0 504 143 414 0.745798 0.666172<0 46.6937 403.099 746.437>
LayerCount: 3
Fore
SplineSet
1066 0 m 1
 143 0 l 1
 143 414 l 1
 0 286 l 1
 0 504 l 1
 143 628 l 1
 143 1493 l 1
 302 1493 l 1
 302 771 l 1
 665 1094 l 1
 665 880 l 1
 302 555 l 1
 302 154 l 1
 1066 154 l 1
 1066 0 l 1
EndSplineSet
Validated: 1
Layer: 2
SplineSet
1066 0 m 1,0,-1
 143 0 l 1,1,-1
 143 414 l 1,2,-1
 0 286 l 1,3,-1
 0 504 l 1,4,-1
 143 628 l 1,5,-1
 143 1493 l 1,6,-1
 302 1493 l 1,7,-1
 302 771 l 1,8,-1
 665 1094 l 1,9,-1
 665 880 l 1,10,-1
 302 555 l 1,11,-1
 302 154 l 1,12,-1
 1066 154 l 1,13,-1
 1066 0 l 1,0,-1
EndSplineSet
EndChar

StartChar: Oslash
Encoding: 216 216 137
Width: 1749
VWidth: 2877
Flags: W
HStem: -13 152<645.242 1106.6> 1352 154<647.763 1113.89>
VStem: 98 160<521.323 969.724> 1497 157<521.288 965.084>
DStem2: 239 -77 374 -164 0.549014 0.835813<1.40122 278.553 433.246 1642.78 1797.42 2071.57>
LayerCount: 3
Fore
SplineSet
374 -164 m 1
 239 -77 l 1
 389 152 l 1
 213 291 98 506 98 745 c 0
 98 1166 448 1506 878 1506 c 0
 1003 1506 1121 1478 1226 1426 c 1
 1377 1654 l 1
 1513 1570 l 1
 1363 1341 l 1
 1540 1200 1654 987 1654 745 c 0
 1654 325 1305 -13 878 -13 c 0
 750 -13 632 15 526 67 c 1
 374 -164 l 1
1276 1209 m 1
 611 197 l 1
 692 161 781 139 878 139 c 0
 1220 139 1497 412 1497 745 c 0
 1497 931 1410 1100 1276 1209 c 1
1141 1296 m 1
 1061 1332 972 1352 878 1352 c 0
 532 1352 258 1081 258 745 c 0
 258 560 342 393 477 282 c 1
 1141 1296 l 1
EndSplineSet
Validated: 1
Layer: 2
SplineSet
374 -164 m 1,0,-1
 239 -77 l 1,1,-1
 389 152 l 1,2,3
 254 259 254 259 176 414 c 128,-1,4
 98 569 98 569 98 745 c 0,5,6
 98 900 98 900 160 1041 c 128,-1,7
 222 1182 222 1182 326.5 1284 c 128,-1,8
 431 1386 431 1386 575.5 1446 c 128,-1,9
 720 1506 720 1506 878 1506 c 0,10,11
 1064 1506 1064 1506 1226 1426 c 1,12,-1
 1377 1654 l 1,13,-1
 1513 1570 l 1,14,-1
 1363 1341 l 1,15,16
 1499 1233 1499 1233 1576.5 1078 c 128,-1,17
 1654 923 1654 923 1654 745 c 0,18,19
 1654 590 1654 590 1592.5 449.5 c 128,-1,20
 1531 309 1531 309 1426.5 208 c 128,-1,21
 1322 107 1322 107 1178.5 47 c 128,-1,22
 1035 -13 1035 -13 878 -13 c 0,23,24
 689 -13 689 -13 526 67 c 1,25,-1
 374 -164 l 1,0,-1
1276 1209 m 1,26,-1
 611 197 l 1,27,28
 742 139 742 139 878 139 c 0,29,30
 1046 139 1046 139 1188.5 220.5 c 128,-1,31
 1331 302 1331 302 1414 441.5 c 128,-1,32
 1497 581 1497 581 1497 745 c 0,33,34
 1497 882 1497 882 1437.5 1004 c 128,-1,35
 1378 1126 1378 1126 1276 1209 c 1,26,-1
1141 1296 m 1,36,37
 1017 1352 1017 1352 878 1352 c 0,38,39
 751 1352 751 1352 636 1304 c 128,-1,40
 521 1256 521 1256 438 1175 c 128,-1,41
 355 1094 355 1094 306.5 981.5 c 128,-1,42
 258 869 258 869 258 745 c 0,43,44
 258 608 258 608 316 487.5 c 128,-1,45
 374 367 374 367 477 282 c 1,46,-1
 1141 1296 l 1,36,37
EndSplineSet
EndChar

StartChar: OE
Encoding: 338 338 138
Width: 1998
VWidth: 2982
Flags: W
HStem: -15 154<662.098 965.48> 0 152<1126 1890> 784 154<1126 1831> 1339 154<1121 1884> 1354 152<663.833 965.829>
VStem: 114 157<521.195 969.863> 967 159<152 784 938 1339>
LayerCount: 3
Fore
SplineSet
1121 938 m 1x36
 1831 938 l 1
 1831 784 l 1
 1126 784 l 1
 1126 152 l 1
 1890 152 l 1
 1890 0 l 1
 1041 0 l 1x76
 994 -9 942 -15 891 -15 c 0
 463 -15 114 325 114 745 c 0
 114 1166 463 1506 891 1506 c 0xae
 942 1506 994 1502 1041 1493 c 1
 1884 1493 l 1
 1884 1339 l 1
 1121 1339 l 1
 1121 938 l 1x36
967 143 m 1
 967 1350 l 1
 942 1352 918 1354 891 1354 c 0
 549 1354 271 1081 271 745 c 0
 271 412 549 139 891 139 c 0xae
 918 139 942 141 967 143 c 1
EndSplineSet
Validated: 1
Layer: 2
SplineSet
1121 938 m 1,0,-1
 1831 938 l 1,1,-1
 1831 784 l 1,2,-1
 1126 784 l 1,3,-1
 1126 152 l 1,4,-1
 1890 152 l 1,5,-1
 1890 0 l 1,6,-1
 1041 0 l 1,7,8
 963 -15 963 -15 891 -15 c 0,9,10
 733 -15 733 -15 589.5 45 c 128,-1,11
 446 105 446 105 341.5 207 c 128,-1,12
 237 309 237 309 175.5 449.5 c 128,-1,13
 114 590 114 590 114 745 c 128,-1,14
 114 900 114 900 175.5 1041 c 128,-1,15
 237 1182 237 1182 341.5 1284 c 128,-1,16
 446 1386 446 1386 589.5 1446 c 128,-1,17
 733 1506 733 1506 891 1506 c 0,18,19
 973 1506 973 1506 1041 1493 c 1,20,-1
 1884 1493 l 1,21,-1
 1884 1339 l 1,22,-1
 1121 1339 l 1,23,-1
 1121 938 l 1,0,-1
967 143 m 1,24,-1
 967 1350 l 1,25,26
 917 1354 917 1354 891 1354 c 0,27,28
 765 1354 765 1354 650 1305.5 c 128,-1,29
 535 1257 535 1257 452 1175.5 c 128,-1,30
 369 1094 369 1094 320 981.5 c 128,-1,31
 271 869 271 869 271 745 c 0,32,33
 271 581 271 581 354 441.5 c 128,-1,34
 437 302 437 302 580 220.5 c 128,-1,35
 723 139 723 139 891 139 c 0,36,37
 917 139 917 139 967 143 c 1,24,-1
EndSplineSet
EndChar

StartChar: ordmasculine
Encoding: 186 186 139
Width: 818
VWidth: 2982
Flags: W
HStem: 581 160<283.146 540.259> 1175 160<283.146 540.259>
VStem: 36 161<828.408 1088.28> 626 162<828.408 1088.28>
LayerCount: 3
Fore
SplineSet
788 959 m 0
 788 750 620 581 412 581 c 0
 203 581 36 750 36 959 c 0
 36 1166 203 1335 412 1335 c 0
 620 1335 788 1166 788 959 c 0
197 959 m 0
 197 837 295 741 412 741 c 0
 528 741 626 837 626 959 c 0
 626 1079 528 1175 412 1175 c 0
 295 1175 197 1079 197 959 c 0
EndSplineSet
Validated: 1
Layer: 2
SplineSet
788 959 m 0,0,1
 788 802 788 802 678 691.5 c 128,-1,2
 568 581 568 581 412 581 c 0,3,4
 255 581 255 581 145.5 691.5 c 128,-1,5
 36 802 36 802 36 959 c 0,6,7
 36 1115 36 1115 146 1225 c 128,-1,8
 256 1335 256 1335 412 1335 c 128,-1,9
 568 1335 568 1335 678 1224.5 c 128,-1,10
 788 1114 788 1114 788 959 c 0,0,1
197 959 m 0,11,12
 197 868 197 868 260.5 804.5 c 128,-1,13
 324 741 324 741 412 741 c 128,-1,14
 500 741 500 741 563 804.5 c 128,-1,15
 626 868 626 868 626 959 c 0,16,17
 626 1048 626 1048 563 1111.5 c 128,-1,18
 500 1175 500 1175 412 1175 c 128,-1,19
 324 1175 324 1175 260.5 1112 c 128,-1,20
 197 1049 197 1049 197 959 c 0,11,12
EndSplineSet
EndChar

StartChar: ae
Encoding: 230 230 140
Width: 1893
VWidth: 2822
Flags: W
HStem: -17 151<312.881 612.712 1133.63 1444.3> 474 148<404.783 792 969 1602> 878 152<378.313 672.579 1130.4 1440.18>
VStem: 105 157<186.777 375.692> 795 158<318.041 474>
LayerCount: 3
Fore
SplineSet
453 134 m 0
 591 134 730 239 795 346 c 1
 795 481 l 1
 549 477 262 448 262 278 c 0
 262 222 312 134 453 134 c 0
969 622 m 1
 1602 622 l 1
 1558 775 1429 878 1285 878 c 0
 1144 878 1014 775 969 622 c 1
953 474 m 1
 953 450 l 1
 978 269 1121 139 1283 139 c 0
 1410 139 1531 205 1607 338 c 1
 1743 265 l 1
 1607 22 1386 -13 1283 -13 c 0
 1106 -13 959 83 873 224 c 1
 777 85 609 -17 453 -17 c 0
 208 -17 105 145 105 278 c 0
 105 609 566 622 792 622 c 1
 773 797 647 882 526 882 c 0
 380 882 307 763 284 732 c 1
 154 812 l 1
 188 861 302 1032 526 1032 c 0
 671 1032 812 955 891 818 c 1
 978 944 1121 1030 1285 1030 c 0
 1549 1030 1755 812 1777 551 c 1
 1782 474 l 1
 953 474 l 1
EndSplineSet
Validated: 1
Layer: 2
SplineSet
453 134 m 0,0,1
 551 134 551 134 647 197 c 128,-1,2
 743 260 743 260 795 346 c 1,3,-1
 795 481 l 1,4,5
 712 480 712 480 644.5 475 c 128,-1,6
 577 470 577 470 502.5 456.5 c 128,-1,7
 428 443 428 443 378 422 c 128,-1,8
 328 401 328 401 295 364 c 128,-1,9
 262 327 262 327 262 278 c 0,10,11
 262 226 262 226 310 180 c 128,-1,12
 358 134 358 134 453 134 c 0,0,1
969 622 m 1,13,-1
 1602 622 l 1,14,15
 1569 736 1569 736 1481 807 c 128,-1,16
 1393 878 1393 878 1285 878 c 0,17,18
 1179 878 1179 878 1091 807 c 128,-1,19
 1003 736 1003 736 969 622 c 1,13,-1
953 474 m 1,20,-1
 953 450 l 1,21,22
 972 315 972 315 1066.5 227 c 128,-1,23
 1161 139 1161 139 1283 139 c 0,24,25
 1381 139 1381 139 1466 190 c 128,-1,26
 1551 241 1551 241 1607 338 c 1,27,-1
 1743 265 l 1,28,29
 1704 196 1704 196 1652.5 143.5 c 128,-1,30
 1601 91 1601 91 1552.5 62 c 128,-1,31
 1504 33 1504 33 1450 15 c 128,-1,32
 1396 -3 1396 -3 1357.5 -8 c 128,-1,33
 1319 -13 1319 -13 1283 -13 c 0,34,35
 1154 -13 1154 -13 1046.5 51 c 128,-1,36
 939 115 939 115 873 224 c 1,37,38
 800 118 800 118 684 50.5 c 128,-1,39
 568 -17 568 -17 453 -17 c 0,40,41
 365 -17 365 -17 296 10 c 128,-1,42
 227 37 227 37 186.5 81 c 128,-1,43
 146 125 146 125 125.5 175.5 c 128,-1,44
 105 226 105 226 105 278 c 0,45,46
 105 346 105 346 132 401 c 128,-1,47
 159 456 159 456 200.5 491 c 128,-1,48
 242 526 242 526 305.5 552 c 128,-1,49
 369 578 369 578 426 591 c 128,-1,50
 483 604 483 604 558 611.5 c 128,-1,51
 633 619 633 619 681.5 620.5 c 128,-1,52
 730 622 730 622 792 622 c 1,53,54
 779 746 779 746 701.5 814 c 128,-1,55
 624 882 624 882 526 882 c 0,56,57
 502 882 502 882 480 878 c 128,-1,58
 458 874 458 874 439 866 c 128,-1,59
 420 858 420 858 404 850 c 128,-1,60
 388 842 388 842 372.5 829 c 128,-1,61
 357 816 357 816 346.5 807.5 c 128,-1,62
 336 799 336 799 324 784.5 c 128,-1,63
 312 770 312 770 307 763.5 c 128,-1,64
 302 757 302 757 293 745 c 128,-1,65
 284 733 284 733 284 732 c 2,66,-1
 154 812 l 1,67,68
 172 839 172 839 184.5 855 c 128,-1,69
 197 871 197 871 234.5 909 c 128,-1,70
 272 947 272 947 308.5 970 c 128,-1,71
 345 993 345 993 404 1012.5 c 128,-1,72
 463 1032 463 1032 526 1032 c 0,73,74
 637 1032 637 1032 735 975.5 c 128,-1,75
 833 919 833 919 891 818 c 1,76,77
 958 915 958 915 1061.5 972.5 c 128,-1,78
 1165 1030 1165 1030 1285 1030 c 0,79,80
 1414 1030 1414 1030 1523.5 965 c 128,-1,81
 1633 900 1633 900 1699.5 790.5 c 128,-1,82
 1766 681 1766 681 1777 551 c 2,83,-1
 1782 474 l 1,84,-1
 953 474 l 1,20,-1
EndSplineSet
EndChar

StartChar: lslash
Encoding: 322 322 141
Width: 440
VWidth: 2877
Flags: W
HStem: 0 21G<143 302> 1473 20G<143 302>
VStem: 143 159<0 430 788 1493>
LayerCount: 3
Fore
SplineSet
302 0 m 1
 143 0 l 1
 143 430 l 1
 27 327 l 1
 27 542 l 1
 143 645 l 1
 143 1493 l 1
 302 1493 l 1
 302 788 l 1
 414 889 l 1
 414 673 l 1
 302 571 l 1
 302 0 l 1
EndSplineSet
Validated: 1
Layer: 2
SplineSet
302 0 m 1,0,-1
 143 0 l 1,1,-1
 143 430 l 1,2,-1
 27 327 l 1,3,-1
 27 542 l 1,4,-1
 143 645 l 1,5,-1
 143 1493 l 1,6,-1
 302 1493 l 1,7,-1
 302 788 l 1,8,-1
 414 889 l 1,9,-1
 414 673 l 1,10,-1
 302 571 l 1,11,-1
 302 0 l 1,0,-1
EndSplineSet
EndChar

StartChar: oslash
Encoding: 248 248 142
Width: 1282
VWidth: 2822
Flags: W
HStem: -13 150<505.142 829.697> 878 152<464.086 694>
VStem: 98 160<335.512 675.993> 1034 152<339.708 678.657>
DStem2: 188 -83 333 -158 0.465165 0.885224<1.0572 216.599 377.114 1083.42 1258.14 1417.76>
LayerCount: 3
Fore
SplineSet
1186 508 m 0
 1186 220 942 -13 643 -13 c 0
 568 -13 497 0 432 27 c 1
 333 -158 l 1
 188 -83 l 1
 291 109 l 1
 173 205 98 346 98 508 c 0
 98 797 342 1030 643 1030 c 0
 685 1030 728 1025 765 1016 c 1
 848 1173 l 1
 996 1094 l 1
 922 955 l 1
 1081 865 1186 698 1186 508 c 0
694 875 m 1
 679 878 662 878 645 878 c 0
 430 878 258 712 258 508 c 0
 258 408 297 318 365 250 c 1
 694 875 l 1
850 822 m 1
 504 161 l 1
 546 145 596 137 645 137 c 0
 859 137 1034 302 1034 508 c 0
 1034 640 961 756 850 822 c 1
EndSplineSet
Validated: 1
Layer: 2
SplineSet
1186 508 m 0,0,1
 1186 366 1186 366 1113 246 c 128,-1,2
 1040 126 1040 126 915 56.5 c 128,-1,3
 790 -13 790 -13 643 -13 c 0,4,5
 528 -13 528 -13 432 27 c 1,6,-1
 333 -158 l 1,7,-1
 188 -83 l 1,8,-1
 291 109 l 1,9,10
 200 183 200 183 149 286 c 128,-1,11
 98 389 98 389 98 508 c 0,12,13
 98 650 98 650 171 770.5 c 128,-1,14
 244 891 244 891 369.5 960.5 c 128,-1,15
 495 1030 495 1030 643 1030 c 0,16,17
 707 1030 707 1030 765 1016 c 1,18,-1
 848 1173 l 1,19,-1
 996 1094 l 1,20,-1
 922 955 l 1,21,22
 1043 887 1043 887 1114.5 768 c 128,-1,23
 1186 649 1186 649 1186 508 c 0,0,1
694 875 m 1,24,25
 679 878 679 878 645 878 c 0,26,27
 484 878 484 878 371 769.5 c 128,-1,28
 258 661 258 661 258 508 c 0,29,30
 258 357 258 357 365 250 c 1,31,-1
 694 875 l 1,24,25
850 822 m 1,32,-1
 504 161 l 1,33,34
 567 137 567 137 645 137 c 0,35,36
 806 137 806 137 920 245.5 c 128,-1,37
 1034 354 1034 354 1034 508 c 0,38,39
 1034 605 1034 605 984.5 688.5 c 128,-1,40
 935 772 935 772 850 822 c 1,32,-1
EndSplineSet
EndChar

StartChar: oe
Encoding: 339 339 143
Width: 2134
VWidth: 2822
Flags: W
HStem: -13 150<464.086 828.325 1370.53 1688.98> 474 148<1211 1847> 878 152<464.086 828.325 1373.26 1681.85>
VStem: 98 160<339.708 675.993>
LayerCount: 3
Fore
SplineSet
258 508 m 0
 258 302 430 137 645 137 c 0
 859 137 1034 302 1034 508 c 0
 1034 712 859 878 645 878 c 0
 430 878 258 712 258 508 c 0
1194 474 m 1
 1207 280 1356 139 1525 139 c 0
 1652 139 1773 205 1852 338 c 1
 1988 265 l 1
 1849 22 1627 -13 1525 -13 c 0
 1343 -13 1191 87 1108 235 c 1
 1012 85 839 -13 643 -13 c 0
 342 -13 98 220 98 508 c 0
 98 797 342 1030 643 1030 c 0
 839 1030 1012 929 1108 779 c 1
 1194 927 1348 1030 1527 1030 c 0
 1790 1030 1997 812 2019 551 c 1
 2023 474 l 1
 1194 474 l 1
1211 622 m 1
 1847 622 l 1
 1800 775 1670 878 1527 878 c 0
 1386 878 1256 775 1211 622 c 1
EndSplineSet
Validated: 1
Layer: 2
SplineSet
258 508 m 0,0,1
 258 353 258 353 371 245 c 128,-1,2
 484 137 484 137 645 137 c 128,-1,3
 806 137 806 137 920 245.5 c 128,-1,4
 1034 354 1034 354 1034 508 c 0,5,6
 1034 661 1034 661 920 769.5 c 128,-1,7
 806 878 806 878 645 878 c 128,-1,8
 484 878 484 878 371 769.5 c 128,-1,9
 258 661 258 661 258 508 c 0,0,1
1194 474 m 1,10,11
 1204 330 1204 330 1300.5 234.5 c 128,-1,12
 1397 139 1397 139 1525 139 c 0,13,14
 1623 139 1623 139 1708.5 189.5 c 128,-1,15
 1794 240 1794 240 1852 338 c 1,16,-1
 1988 265 l 1,17,18
 1948 196 1948 196 1896 143.5 c 128,-1,19
 1844 91 1844 91 1795 62 c 128,-1,20
 1746 33 1746 33 1692 15 c 128,-1,21
 1638 -3 1638 -3 1599.5 -8 c 128,-1,22
 1561 -13 1561 -13 1525 -13 c 0,23,24
 1391 -13 1391 -13 1281.5 54 c 128,-1,25
 1172 121 1172 121 1108 235 c 1,26,27
 1035 121 1035 121 911.5 54 c 128,-1,28
 788 -13 788 -13 643 -13 c 0,29,30
 495 -13 495 -13 369.5 56.5 c 128,-1,31
 244 126 244 126 171 246 c 128,-1,32
 98 366 98 366 98 508 c 128,-1,33
 98 650 98 650 171 770.5 c 128,-1,34
 244 891 244 891 369.5 960.5 c 128,-1,35
 495 1030 495 1030 643 1030 c 0,36,37
 787 1030 787 1030 911 962 c 128,-1,38
 1035 894 1035 894 1108 779 c 1,39,40
 1174 893 1174 893 1285 961.5 c 128,-1,41
 1396 1030 1396 1030 1527 1030 c 0,42,43
 1721 1030 1721 1030 1861.5 890 c 128,-1,44
 2002 750 2002 750 2019 551 c 1,45,-1
 2023 474 l 1,46,-1
 1194 474 l 1,10,11
1211 622 m 1,47,-1
 1847 622 l 1,48,49
 1812 737 1812 737 1723 807.5 c 128,-1,50
 1634 878 1634 878 1527 878 c 0,51,52
 1421 878 1421 878 1333 807 c 128,-1,53
 1245 736 1245 736 1211 622 c 1,47,-1
EndSplineSet
EndChar

StartChar: germandbls
Encoding: 223 223 144
Width: 1107
VWidth: 2982
Flags: W
HStem: -15 139<491.203 773.831> 2 21G<143 302> 1511 150<419.504 685.018>
VStem: 143 159<2 1374.12> 546 161<785.702 928.121> 788 159<1152.96 1410.18> 880 161<232.762 496.612>
LayerCount: 3
Fore
SplineSet
438 205 m 5xba
 508 148 577 124 643 124 c 4
 775 124 880 231 880 389 c 4xba
 880 575 546 636 546 865 c 4
 546 1043 788 1104 788 1262 c 4
 788 1421 669 1511 551 1511 c 4
 430 1511 302 1417 302 1151 c 6
 302 2 l 5
 143 2 l 5
 143 1149 l 6
 143 1493 344 1661 555 1661 c 4
 754 1661 947 1511 947 1260 c 4x7c
 947 1030 707 942 707 861 c 4
 707 743 1041 649 1041 385 c 4
 1041 156 880 -15 667 -15 c 4
 560 -15 438 30 320 130 c 5
 438 205 l 5xba
EndSplineSet
Validated: 1
Layer: 2
SplineSet
438 205 m 5,0,1
 537 124 537 124 643 124 c 0,2,3
 744 124 744 124 812 198 c 128,-1,4
 880 272 880 272 880 389 c 0,5,6
 880 427 880 427 861.5 462 c 128,-1,7
 843 497 843 497 813.5 525.5 c 128,-1,8
 784 554 784 554 748.5 582 c 128,-1,9
 713 610 713 610 677.5 640.5 c 128,-1,10
 642 671 642 671 612.5 703 c 128,-1,11
 583 735 583 735 564.5 777 c 128,-1,12
 546 819 546 819 546 865 c 0,13,14
 546 914 546 914 571 958.5 c 128,-1,15
 596 1003 596 1003 631.5 1037 c 128,-1,16
 667 1071 667 1071 702.5 1104 c 128,-1,17
 738 1137 738 1137 763 1178 c 128,-1,18
 788 1219 788 1219 788 1262 c 0,19,20
 788 1375 788 1375 717 1443 c 128,-1,21
 646 1511 646 1511 551 1511 c 0,22,23
 448 1511 448 1511 375 1423 c 128,-1,24
 302 1335 302 1335 302 1151 c 2,25,-1
 302 2 l 1,26,-1
 143 2 l 1,27,-1
 143 1149 l 2,28,29
 143 1274 143 1274 177.5 1373.5 c 128,-1,30
 212 1473 212 1473 270 1534.5 c 128,-1,31
 328 1596 328 1596 401 1628.5 c 128,-1,32
 474 1661 474 1661 555 1661 c 0,33,34
 656 1661 656 1661 744.5 1614 c 128,-1,35
 833 1567 833 1567 890 1474 c 128,-1,36
 947 1381 947 1381 947 1260 c 0,37,38
 947 1196 947 1196 922.5 1139 c 128,-1,39
 898 1082 898 1082 862.5 1043 c 128,-1,40
 827 1004 827 1004 791.5 971.5 c 128,-1,41
 756 939 756 939 731.5 911 c 128,-1,42
 707 883 707 883 707 861 c 0,43,44
 707 837 707 837 725.5 811.5 c 128,-1,45
 744 786 744 786 773.5 761 c 128,-1,46
 803 736 803 736 838.5 707.5 c 128,-1,47
 874 679 874 679 909.5 645.5 c 128,-1,48
 945 612 945 612 974.5 574.5 c 128,-1,49
 1004 537 1004 537 1022.5 488 c 128,-1,50
 1041 439 1041 439 1041 385 c 0,51,52
 1041 213 1041 213 934 99 c 128,-1,53
 827 -15 827 -15 667 -15 c 0,54,55
 491 -15 491 -15 320 130 c 1,56,-1
 438 205 l 5,0,1
EndSplineSet
EndChar

StartChar: logicalnot
Encoding: 172 172 145
Width: 1329
VWidth: 2982
Flags: W
HStem: 786 161<54 1117>
VStem: 1117 161<322 786>
LayerCount: 3
Fore
SplineSet
1278 947 m 1
 1278 322 l 1
 1117 322 l 1
 1117 786 l 1
 54 786 l 1
 54 947 l 1
 1278 947 l 1
EndSplineSet
Validated: 1
Layer: 2
SplineSet
1278 947 m 1,0,-1
 1278 322 l 1,1,-1
 1117 322 l 1,2,-1
 1117 786 l 1,3,-1
 54 786 l 1,4,-1
 54 947 l 1,5,-1
 1278 947 l 1,0,-1
EndSplineSet
EndChar

StartChar: trademark
Encoding: 8482 8482 146
Width: 1696
VWidth: 2982
Flags: W
HStem: 1647 143<124 331 477 685>
VStem: 331 146<1010 1647>
DStem2: 656 1010 806 1010 0.219133 0.975695<32.87 462.264> 1128 1276 891 1431 0.483121 -0.875554<-250.21 0> 1128 1276 1126 994 0.497022 0.867738<0 255.773> 1431 1805 1372 1431 0.207932 -0.978143<353.558 782.198>
LayerCount: 3
Fore
SplineSet
685 1790 m 1
 685 1647 l 1
 477 1647 l 1
 477 1010 l 1
 331 1010 l 1
 331 1647 l 1
 124 1647 l 1
 124 1790 l 1
 685 1790 l 1
1372 1431 m 1
 1126 994 l 1
 891 1431 l 1
 806 1010 l 1
 656 1010 l 1
 835 1807 l 1
 1128 1276 l 1
 1431 1805 l 1
 1600 1010 l 1
 1453 1010 l 1
 1372 1431 l 1
EndSplineSet
Validated: 1
Layer: 2
SplineSet
685 1790 m 1,0,-1
 685 1647 l 1,1,-1
 477 1647 l 1,2,-1
 477 1010 l 1,3,-1
 331 1010 l 1,4,-1
 331 1647 l 1,5,-1
 124 1647 l 1,6,-1
 124 1790 l 1,7,-1
 685 1790 l 1,0,-1
1372 1431 m 1,8,-1
 1126 994 l 1,9,-1
 891 1431 l 1,10,-1
 806 1010 l 1,11,-1
 656 1010 l 1,12,-1
 835 1807 l 1,13,-1
 1128 1276 l 1,14,-1
 1431 1805 l 1,15,-1
 1600 1010 l 1,16,-1
 1453 1010 l 1,17,-1
 1372 1431 l 1,8,-1
EndSplineSet
EndChar

StartChar: Eth
Encoding: 208 208 147
Width: 1362
VWidth: 2982
Flags: W
HStem: 0 152<302 702.815> 669 155<-2 143 302 734> 1339 154<302 702.815>
VStem: 143 159<152 669 824 1339> 1094 160<522.791 968.221>
LayerCount: 3
Fore
SplineSet
302 152 m 1
 474 152 l 2
 820 152 1094 412 1094 745 c 0
 1094 1081 820 1339 474 1339 c 2
 302 1339 l 1
 302 824 l 1
 734 824 l 1
 734 669 l 1
 302 669 l 1
 302 152 l 1
143 824 m 1
 143 1493 l 1
 474 1493 l 2
 902 1493 1254 1166 1254 745 c 0
 1254 325 902 0 474 0 c 2
 143 0 l 1
 143 669 l 1
 -2 669 l 1
 -2 824 l 1
 143 824 l 1
EndSplineSet
Validated: 1
Layer: 2
SplineSet
302 152 m 1,0,-1
 474 152 l 2,1,2
 644 152 644 152 786.5 230 c 128,-1,3
 929 308 929 308 1011.5 444.5 c 128,-1,4
 1094 581 1094 581 1094 745 c 0,5,6
 1094 910 1094 910 1011.5 1046.5 c 128,-1,7
 929 1183 929 1183 787 1261 c 128,-1,8
 645 1339 645 1339 474 1339 c 2,9,-1
 302 1339 l 1,10,-1
 302 824 l 1,11,-1
 734 824 l 1,12,-1
 734 669 l 1,13,-1
 302 669 l 1,14,-1
 302 152 l 1,0,-1
143 824 m 1,15,-1
 143 1493 l 1,16,-1
 474 1493 l 2,17,18
 685 1493 685 1493 864.5 1394.5 c 128,-1,19
 1044 1296 1044 1296 1149 1123.5 c 128,-1,20
 1254 951 1254 951 1254 745 c 0,21,22
 1254 591 1254 591 1192 452 c 128,-1,23
 1130 313 1130 313 1025 214.5 c 128,-1,24
 920 116 920 116 776 58 c 128,-1,25
 632 0 632 0 474 0 c 2,26,-1
 143 0 l 1,27,-1
 143 669 l 1,28,-1
 -2 669 l 1,29,-1
 -2 824 l 1,30,-1
 143 824 l 1,15,-1
EndSplineSet
EndChar

StartChar: onehalf
Encoding: 189 189 148
Width: 1819
VWidth: 2982
Flags: W
HStem: 0 154<1215 1701> 878 154<1292.05 1500.12> 1473 20G<1286.57 1493>
VStem: 289 157<481 1247> 1074 157<654 811.632> 1563 161<591.955 814.223>
DStem2: 224 0 416 0 0.585034 0.811009<112.327 1840.92>
LayerCount: 3
Fore
SplineSet
1701 154 m 1
 1701 0 l 1
 1032 0 l 1
 1032 74 l 2
 1032 419 1563 483 1563 687 c 0
 1563 799 1482 878 1397 878 c 0
 1312 878 1231 799 1231 687 c 2
 1231 654 l 1
 1074 654 l 1
 1074 687 l 2
 1074 873 1215 1032 1399 1032 c 0
 1583 1032 1724 875 1724 690 c 0
 1724 403 1312 331 1215 154 c 1
 1701 154 l 1
1301 1493 m 1
 1493 1493 l 1
 416 0 l 1
 224 0 l 1
 1301 1493 l 1
289 1247 m 1
 201 1186 l 1
 111 1314 l 1
 446 1540 l 1
 446 481 l 1
 289 481 l 1
 289 1247 l 1
EndSplineSet
Validated: 1
Layer: 2
SplineSet
1701 154 m 1,0,-1
 1701 0 l 1,1,-1
 1032 0 l 1,2,-1
 1032 74 l 2,3,4
 1032 144 1032 144 1061.5 205.5 c 128,-1,5
 1091 267 1091 267 1137.5 311.5 c 128,-1,6
 1184 356 1184 356 1240.5 395.5 c 128,-1,7
 1297 435 1297 435 1354 469 c 128,-1,8
 1411 503 1411 503 1457.5 536 c 128,-1,9
 1504 569 1504 569 1533.5 607.5 c 128,-1,10
 1563 646 1563 646 1563 687 c 0,11,12
 1563 769 1563 769 1513 823.5 c 128,-1,13
 1463 878 1463 878 1397 878 c 128,-1,14
 1331 878 1331 878 1281 823.5 c 128,-1,15
 1231 769 1231 769 1231 687 c 2,16,-1
 1231 654 l 1,17,-1
 1074 654 l 1,18,-1
 1074 687 l 2,19,20
 1074 828 1074 828 1168.5 930 c 128,-1,21
 1263 1032 1263 1032 1399 1032 c 0,22,23
 1536 1032 1536 1032 1630 931 c 128,-1,24
 1724 830 1724 830 1724 690 c 0,25,26
 1724 622 1724 622 1693 563 c 128,-1,27
 1662 504 1662 504 1614 463 c 128,-1,28
 1566 422 1566 422 1505.5 381 c 128,-1,29
 1445 340 1445 340 1390 308 c 128,-1,30
 1335 276 1335 276 1286 235 c 128,-1,31
 1237 194 1237 194 1215 154 c 1,32,-1
 1701 154 l 1,0,-1
1301 1493 m 1,33,-1
 1493 1493 l 1,34,-1
 416 0 l 1,35,-1
 224 0 l 1,36,-1
 1301 1493 l 1,33,-1
289 1247 m 1,37,-1
 201 1186 l 1,38,-1
 111 1314 l 1,39,-1
 446 1540 l 1,40,-1
 446 481 l 1,41,-1
 289 481 l 1,42,-1
 289 1247 l 1,37,-1
EndSplineSet
LCarets2: 2 0 0
Ligature2: "'frac' Diagonal Fractions in Latin lookup 42" one fraction two
Ligature2: "'frac' Diagonal Fractions in Latin lookup 42" one slash two
EndChar

StartChar: plusminus
Encoding: 177 177 149
Width: 944
VWidth: 2982
Flags: W
HStem: 0 154<54 893> 640 155<54 396 551 893>
VStem: 396 155<305 640 795 1130>
LayerCount: 3
Fore
SplineSet
893 154 m 1
 893 0 l 1
 54 0 l 1
 54 154 l 1
 893 154 l 1
551 305 m 1
 396 305 l 1
 396 640 l 1
 54 640 l 1
 54 795 l 1
 396 795 l 1
 396 1130 l 1
 551 1130 l 1
 551 795 l 1
 893 795 l 1
 893 640 l 1
 551 640 l 1
 551 305 l 1
EndSplineSet
Validated: 1
Layer: 2
SplineSet
893 154 m 1,0,-1
 893 0 l 1,1,-1
 54 0 l 1,2,-1
 54 154 l 1,3,-1
 893 154 l 1,0,-1
551 305 m 1,4,-1
 396 305 l 1,5,-1
 396 640 l 1,6,-1
 54 640 l 1,7,-1
 54 795 l 1,8,-1
 396 795 l 1,9,-1
 396 1130 l 1,10,-1
 551 1130 l 1,11,-1
 551 795 l 1,12,-1
 893 795 l 1,13,-1
 893 640 l 1,14,-1
 551 640 l 1,15,-1
 551 305 l 1,4,-1
EndSplineSet
EndChar

StartChar: Thorn
Encoding: 222 222 150
Width: 1152
VWidth: 2982
Flags: W
HStem: 0 21G<143 302> 302 157<302 703.144> 1034 150<302 703.144> 1473 20G<143 302>
VStem: 143 159<0 314 464.216 1027.92 1173 1493> 884 161<604.9 884.264>
LayerCount: 3
Fore
SplineSet
302 1023 m 5
 302 470 l 5
 356 461 410 459 457 459 c 4
 718 459 884 566 884 745 c 4
 884 927 718 1034 457 1034 c 4
 410 1034 356 1030 302 1023 c 5
143 0 m 5
 143 1493 l 5
 302 1493 l 5
 302 1173 l 5
 354 1182 406 1184 457 1184 c 4
 814 1184 1045 1008 1045 743 c 4
 1045 479 814 302 457 302 c 4
 406 302 354 305 302 314 c 5
 302 0 l 5
 143 0 l 5
EndSplineSet
Validated: 1
Layer: 2
SplineSet
302 1023 m 5,0,-1
 302 470 l 1,1,2
 368 459 368 459 457 459 c 0,3,4
 654 459 654 459 769 535.5 c 128,-1,5
 884 612 884 612 884 745 c 0,6,7
 884 881 884 881 769 957.5 c 128,-1,8
 654 1034 654 1034 457 1034 c 0,9,10
 387 1034 387 1034 302 1023 c 5,0,-1
143 0 m 5,11,-1
 143 1493 l 1,12,-1
 302 1493 l 1,13,-1
 302 1173 l 1,14,15
 366 1184 366 1184 457 1184 c 0,16,17
 724 1184 724 1184 884.5 1063 c 128,-1,18
 1045 942 1045 942 1045 743 c 128,-1,19
 1045 544 1045 544 884.5 423 c 128,-1,20
 724 302 724 302 457 302 c 0,21,22
 371 302 371 302 302 314 c 1,23,-1
 302 0 l 1,24,-1
 143 0 l 5,11,-1
EndSplineSet
EndChar

StartChar: onequarter
Encoding: 188 188 151
Width: 1819
VWidth: 2982
Flags: W
HStem: 0 21G<314 520.427 1419 1576> 154 158<1151 1419 1576 1674> 1473 20G<1375.59 1583>
VStem: 289 157<481 1247> 1419 155<0 154 312 660>
DStem2: 314 0 506 0 0.585034 0.811009<112.327 1840.33> 835 154 1151 312 0.609591 0.792716<317.88 757.116>
LayerCount: 3
Fore
SplineSet
1390 1493 m 1
 1583 1493 l 1
 506 0 l 1
 314 0 l 1
 1390 1493 l 1
1419 312 m 1
 1419 660 l 1
 1151 312 l 1
 1419 312 l 1
289 1247 m 1
 201 1186 l 1
 111 1314 l 1
 446 1540 l 1
 446 481 l 1
 289 481 l 1
 289 1247 l 1
1419 154 m 1
 835 154 l 1
 1574 1115 l 1
 1574 312 l 1
 1726 312 l 1
 1674 154 l 1
 1576 154 l 1
 1576 0 l 1
 1419 0 l 1
 1419 154 l 1
EndSplineSet
Validated: 1
Layer: 2
SplineSet
1390 1493 m 1,0,-1
 1583 1493 l 1,1,-1
 506 0 l 1,2,-1
 314 0 l 1,3,-1
 1390 1493 l 1,0,-1
1419 312 m 1,4,-1
 1419 660 l 1,5,-1
 1151 312 l 1,6,-1
 1419 312 l 1,4,-1
289 1247 m 1,7,-1
 201 1186 l 1,8,-1
 111 1314 l 1,9,-1
 446 1540 l 1,10,-1
 446 481 l 1,11,-1
 289 481 l 1,12,-1
 289 1247 l 1,7,-1
1419 154 m 1,13,-1
 835 154 l 1,14,-1
 1574 1115 l 1,15,-1
 1574 312 l 1,16,-1
 1726 312 l 1,17,-1
 1674 154 l 1,18,-1
 1576 154 l 1,19,-1
 1576 0 l 1,20,-1
 1419 0 l 1,21,-1
 1419 154 l 1,13,-1
EndSplineSet
LCarets2: 2 0 0
Ligature2: "'frac' Diagonal Fractions in Latin lookup 42" one fraction four
Ligature2: "'frac' Diagonal Fractions in Latin lookup 42" one slash four
EndChar

StartChar: divide
Encoding: 247 247 152
Width: 1078
VWidth: 2982
Flags: W
HStem: 349 240<448.084 632.832> 665 161<107 974> 904 240<448.084 632.832>
VStem: 421 239<376.407 561.103 931.73 1116.43>
LayerCount: 3
Fore
SplineSet
540 589 m 0
 607 589 660 534 660 468 c 0
 660 403 607 349 540 349 c 0
 474 349 421 403 421 468 c 0
 421 534 474 589 540 589 c 0
540 1144 m 0
 607 1144 660 1090 660 1023 c 0
 660 959 607 904 540 904 c 0
 474 904 421 959 421 1023 c 0
 421 1090 474 1144 540 1144 c 0
974 826 m 1
 974 665 l 1
 107 665 l 1
 107 826 l 1
 974 826 l 1
EndSplineSet
Validated: 1
Layer: 2
SplineSet
540 589 m 0,0,1
 590 589 590 589 625 553.5 c 128,-1,2
 660 518 660 518 660 468 c 0,3,4
 660 419 660 419 625 384 c 128,-1,5
 590 349 590 349 540 349 c 0,6,7
 491 349 491 349 456 384 c 128,-1,8
 421 419 421 419 421 468 c 0,9,10
 421 518 421 518 456 553.5 c 128,-1,11
 491 589 491 589 540 589 c 0,0,1
540 1144 m 0,12,13
 590 1144 590 1144 625 1108.5 c 128,-1,14
 660 1073 660 1073 660 1023 c 0,15,16
 660 975 660 975 625 939.5 c 128,-1,17
 590 904 590 904 540 904 c 0,18,19
 491 904 491 904 456 939.5 c 128,-1,20
 421 975 421 975 421 1023 c 0,21,22
 421 1073 421 1073 456 1108.5 c 128,-1,23
 491 1144 491 1144 540 1144 c 0,12,13
974 826 m 1,24,-1
 974 665 l 1,25,-1
 107 665 l 1,26,-1
 107 826 l 1,27,-1
 974 826 l 1,24,-1
EndSplineSet
EndChar

StartChar: brokenbar
Encoding: 166 166 153
Width: 373
VWidth: 2982
Flags: W
VStem: 107 162<-544 333 681 1558>
LayerCount: 3
Fore
SplineSet
269 681 m 1
 107 681 l 1
 107 1558 l 1
 269 1558 l 1
 269 681 l 1
269 -544 m 1
 107 -544 l 1
 107 333 l 1
 269 333 l 1
 269 -544 l 1
EndSplineSet
Validated: 1
Layer: 2
SplineSet
269 681 m 1,0,-1
 107 681 l 1,1,-1
 107 1558 l 1,2,-1
 269 1558 l 1,3,-1
 269 681 l 1,0,-1
269 -544 m 1,4,-1
 107 -544 l 1,5,-1
 107 333 l 1,6,-1
 269 333 l 1,7,-1
 269 -544 l 1,4,-1
EndSplineSet
EndChar

StartChar: degree
Encoding: 176 176 154
Width: 791
VWidth: 2982
Flags: W
HStem: 1175 166<301.55 491.428> 1591 164<302.52 490.48>
VStem: 107 164<1371.69 1559.65> 521 166<1370.73 1560.61>
LayerCount: 3
Fore
SplineSet
687 1466 m 0
 687 1305 557 1175 396 1175 c 0
 237 1175 107 1305 107 1466 c 0
 107 1625 237 1755 396 1755 c 0
 557 1755 687 1625 687 1466 c 0
271 1466 m 0
 271 1395 327 1341 396 1341 c 0
 468 1341 521 1395 521 1466 c 0
 521 1536 468 1591 396 1591 c 0
 327 1591 271 1536 271 1466 c 0
EndSplineSet
Validated: 1
Layer: 2
SplineSet
687 1466 m 0,0,1
 687 1345 687 1345 602 1260 c 128,-1,2
 517 1175 517 1175 396 1175 c 0,3,4
 277 1175 277 1175 192 1260 c 128,-1,5
 107 1345 107 1345 107 1466 c 0,6,7
 107 1585 107 1585 192 1670 c 128,-1,8
 277 1755 277 1755 396 1755 c 0,9,10
 517 1755 517 1755 602 1670 c 128,-1,11
 687 1585 687 1585 687 1466 c 0,0,1
271 1466 m 0,12,13
 271 1413 271 1413 307.5 1377 c 128,-1,14
 344 1341 344 1341 396 1341 c 0,15,16
 450 1341 450 1341 485.5 1377 c 128,-1,17
 521 1413 521 1413 521 1466 c 128,-1,18
 521 1519 521 1519 485.5 1555 c 128,-1,19
 450 1591 450 1591 396 1591 c 0,20,21
 344 1591 344 1591 307.5 1554.5 c 128,-1,22
 271 1518 271 1518 271 1466 c 0,12,13
EndSplineSet
EndChar

StartChar: thorn
Encoding: 254 254 155
Width: 1147
VWidth: 2982
Flags: W
HStem: -497 21G<119 275> -17 156<451.698 768.857> 880 150<451.698 768.857>
VStem: 119 156<-497 126 325.832 693.168 895 1491> 953 162<327.999 688.326>
LayerCount: 3
Fore
SplineSet
275 -497 m 1
 119 -497 l 1
 119 1491 l 1
 275 1491 l 1
 275 895 l 1
 365 983 481 1030 615 1030 c 0
 897 1030 1115 795 1115 506 c 0
 1115 220 897 -17 615 -17 c 0
 481 -17 365 38 275 126 c 1
 275 -497 l 1
275 540 m 1
 275 479 l 1
 289 278 440 139 611 139 c 0
 795 139 953 295 953 510 c 0
 953 724 795 880 611 880 c 0
 440 880 289 741 275 540 c 1
EndSplineSet
Validated: 1
Layer: 2
SplineSet
275 -497 m 1,0,-1
 119 -497 l 1,1,-1
 119 1491 l 1,2,-1
 275 1491 l 1,3,-1
 275 895 l 1,4,5
 413 1030 413 1030 615 1030 c 0,6,7
 753 1030 753 1030 868.5 959.5 c 128,-1,8
 984 889 984 889 1049.5 769 c 128,-1,9
 1115 649 1115 649 1115 506 c 0,10,11
 1115 365 1115 365 1049.5 244.5 c 128,-1,12
 984 124 984 124 868.5 53.5 c 128,-1,13
 753 -17 753 -17 615 -17 c 0,14,15
 421 -17 421 -17 275 126 c 1,16,-1
 275 -497 l 1,0,-1
275 540 m 1,17,-1
 275 479 l 1,18,19
 285 331 285 331 382.5 235 c 128,-1,20
 480 139 480 139 611 139 c 0,21,22
 751 139 751 139 852 245 c 128,-1,23
 953 351 953 351 953 510 c 0,24,25
 953 668 953 668 852 774 c 128,-1,26
 751 880 751 880 611 880 c 0,27,28
 480 880 480 880 382.5 784 c 128,-1,29
 285 688 285 688 275 540 c 1,17,-1
EndSplineSet
EndChar

StartChar: threequarters
Encoding: 190 190 156
Width: 1819
VWidth: 2982
Flags: W
HStem: 0 21G<430 636.427 1480 1634> 156 156<1209 1480 1634 1732> 463 152<315.586 558.02> 980 155<401 536.816> 1202 21G<158 316> 1354 152<344.407 529.376>
VStem: 94 156<682.345 833> 158 158<1202 1322.43> 557 152<1155.98 1324.67> 622 151<680.021 916.125> 1480 152<0 156 312 658>
DStem2: 430 0 622 0 0.585034 0.811009<112.327 1840.33> 893 156 1209 312 0.609591 0.792716<316.294 755.773>
LayerCount: 3
Fore
SplineSet
94 833 m 1xfe60
 250 833 l 1
 250 797 l 2
 250 696 333 615 436 615 c 0
 540 615 622 696 622 797 c 0xfe60
 622 897 540 980 436 980 c 2
 401 980 l 1
 401 1135 l 1
 436 1135 l 2
 504 1135 557 1175 557 1235 c 0
 557 1301 504 1354 436 1354 c 0
 369 1354 316 1301 316 1235 c 2
 316 1202 l 1
 158 1202 l 1
 158 1235 l 2
 158 1386 282 1506 434 1506 c 0
 587 1506 709 1386 709 1235 c 0xfda0
 709 1171 683 1108 638 1061 c 1
 718 1000 773 904 773 797 c 0
 773 613 620 463 434 463 c 0
 246 463 94 613 94 797 c 2
 94 833 l 1xfe60
1506 1493 m 1
 1699 1493 l 1
 622 0 l 1
 430 0 l 1
 1506 1493 l 1
1480 312 m 1
 1480 658 l 1
 1209 312 l 1
 1480 312 l 1
1480 156 m 1
 893 156 l 1
 1632 1117 l 1
 1632 312 l 1
 1784 312 l 1
 1732 156 l 1
 1634 156 l 1
 1634 0 l 1
 1480 0 l 1
 1480 156 l 1
EndSplineSet
Validated: 1
Layer: 2
SplineSet
94 833 m 1,0,-1
 250 833 l 1,1,-1
 250 797 l 2,2,3
 250 721 250 721 304.5 668 c 128,-1,4
 359 615 359 615 436 615 c 0,5,6
 514 615 514 615 568 668 c 128,-1,7
 622 721 622 721 622 797 c 0,8,9
 622 872 622 872 568 926 c 128,-1,10
 514 980 514 980 436 980 c 2,11,-1
 401 980 l 1,12,-1
 401 1135 l 1,13,-1
 436 1135 l 2,14,15
 488 1135 488 1135 522.5 1163 c 128,-1,16
 557 1191 557 1191 557 1235 c 0,17,18
 557 1285 557 1285 522 1319.5 c 128,-1,19
 487 1354 487 1354 436 1354 c 0,20,21
 386 1354 386 1354 351 1319.5 c 128,-1,22
 316 1285 316 1285 316 1235 c 2,23,-1
 316 1202 l 1,24,-1
 158 1202 l 1,25,-1
 158 1235 l 2,26,27
 158 1348 158 1348 239 1427 c 128,-1,28
 320 1506 320 1506 434 1506 c 0,29,30
 549 1506 549 1506 629 1427 c 128,-1,31
 709 1348 709 1348 709 1235 c 0,32,33
 709 1135 709 1135 638 1061 c 1,34,35
 700 1014 700 1014 736.5 944.5 c 128,-1,36
 773 875 773 875 773 797 c 0,37,38
 773 659 773 659 673.5 561 c 128,-1,39
 574 463 574 463 434 463 c 0,40,41
 293 463 293 463 193.5 561 c 128,-1,42
 94 659 94 659 94 797 c 2,43,-1
 94 833 l 1,0,-1
1506 1493 m 1,44,-1
 1699 1493 l 1,45,-1
 622 0 l 1,46,-1
 430 0 l 1,47,-1
 1506 1493 l 1,44,-1
1480 312 m 1,48,-1
 1480 658 l 1,49,-1
 1209 312 l 1,50,-1
 1480 312 l 1,48,-1
1480 156 m 1,51,-1
 893 156 l 1,52,-1
 1632 1117 l 1,53,-1
 1632 312 l 1,54,-1
 1784 312 l 1,55,-1
 1732 156 l 1,56,-1
 1634 156 l 1,57,-1
 1634 0 l 1,58,-1
 1480 0 l 1,59,-1
 1480 156 l 1,51,-1
EndSplineSet
LCarets2: 2 0 0
Ligature2: "'frac' Diagonal Fractions in Latin lookup 42" three fraction four
Ligature2: "'frac' Diagonal Fractions in Latin lookup 42" three slash four
EndChar

StartChar: registered
Encoding: 174 174 157
Width: 1765
VWidth: 2982
Flags: W
HStem: -15 154<656.876 1110.34> 660 154<767 895> 1038 156<767 1023.14> 1354 152<656.876 1110.34>
VStem: 114 157<521.195 969.863> 611 156<297 660 814 1038> 1045 157<834.069 1017.28> 1497 157<521.195 969.863>
DStem2: 1057 690 895 660 0.486775 -0.873527<0 361.307>
LayerCount: 3
Fore
SplineSet
1276 297 m 1
 1094 297 l 1
 895 660 l 1
 767 660 l 1
 767 297 l 1
 611 297 l 1
 611 1194 l 1
 938 1194 l 2
 1085 1194 1202 1072 1202 927 c 0
 1202 824 1144 732 1057 690 c 1
 1276 297 l 1
271 745 m 0
 271 412 544 139 884 139 c 0
 1222 139 1497 412 1497 745 c 0
 1497 1081 1222 1354 884 1354 c 0
 544 1354 271 1081 271 745 c 0
1654 745 m 0
 1654 325 1307 -15 884 -15 c 0
 459 -15 114 325 114 745 c 0
 114 1166 459 1506 884 1506 c 0
 1307 1506 1654 1166 1654 745 c 0
767 814 m 1
 942 814 l 2
 996 814 1045 859 1045 927 c 0
 1045 991 996 1038 938 1038 c 2
 767 1038 l 1
 767 814 l 1
EndSplineSet
Validated: 1
Layer: 2
SplineSet
1276 297 m 1,0,-1
 1094 297 l 1,1,-1
 895 660 l 1,2,-1
 767 660 l 1,3,-1
 767 297 l 1,4,-1
 611 297 l 1,5,-1
 611 1194 l 1,6,-1
 938 1194 l 2,7,8
 1048 1194 1048 1194 1125 1115 c 128,-1,9
 1202 1036 1202 1036 1202 927 c 0,10,11
 1202 850 1202 850 1162.5 786 c 128,-1,12
 1123 722 1123 722 1057 690 c 1,13,-1
 1276 297 l 1,0,-1
271 745 m 0,14,15
 271 622 271 622 319.5 510 c 128,-1,16
 368 398 368 398 449.5 316.5 c 128,-1,17
 531 235 531 235 645 187 c 128,-1,18
 759 139 759 139 884 139 c 0,19,20
 1008 139 1008 139 1122 187 c 128,-1,21
 1236 235 1236 235 1318 316.5 c 128,-1,22
 1400 398 1400 398 1448.5 510 c 128,-1,23
 1497 622 1497 622 1497 745 c 0,24,25
 1497 869 1497 869 1448.5 981.5 c 128,-1,26
 1400 1094 1400 1094 1317.5 1175.5 c 128,-1,27
 1235 1257 1235 1257 1122 1305.5 c 128,-1,28
 1009 1354 1009 1354 884 1354 c 128,-1,29
 759 1354 759 1354 645.5 1305.5 c 128,-1,30
 532 1257 532 1257 450 1175.5 c 128,-1,31
 368 1094 368 1094 319.5 981.5 c 128,-1,32
 271 869 271 869 271 745 c 0,14,15
1654 745 m 128,-1,34
 1654 590 1654 590 1592.5 449.5 c 128,-1,35
 1531 309 1531 309 1428 207 c 128,-1,36
 1325 105 1325 105 1182.5 45 c 128,-1,37
 1040 -15 1040 -15 884 -15 c 0,38,39
 727 -15 727 -15 584.5 45 c 128,-1,40
 442 105 442 105 339 207 c 128,-1,41
 236 309 236 309 175 449.5 c 128,-1,42
 114 590 114 590 114 745 c 128,-1,43
 114 900 114 900 175 1041 c 128,-1,44
 236 1182 236 1182 339 1284 c 128,-1,45
 442 1386 442 1386 584.5 1446 c 128,-1,46
 727 1506 727 1506 884 1506 c 0,47,48
 1040 1506 1040 1506 1182.5 1446 c 128,-1,49
 1325 1386 1325 1386 1428 1284 c 128,-1,50
 1531 1182 1531 1182 1592.5 1041 c 128,-1,33
 1654 900 1654 900 1654 745 c 128,-1,34
767 814 m 1,51,-1
 942 814 l 2,52,53
 984 814 984 814 1014.5 845.5 c 128,-1,54
 1045 877 1045 877 1045 927 c 0,55,56
 1045 974 1045 974 1013.5 1006 c 128,-1,57
 982 1038 982 1038 938 1038 c 2,58,-1
 767 1038 l 1,59,-1
 767 814 l 1,51,-1
EndSplineSet
EndChar

StartChar: eth
Encoding: 240 240 158
Width: 1168
VWidth: 2982
Flags: W
HStem: -15 152<414.159 765.302> 893 157<414.159 770.359>
VStem: 47 152<344.582 687.691> 976 159<344.582 691>
DStem2: 184 1184 262 1053 0.862056 0.506813<0.847847 301.677 530.989 842.958>
LayerCount: 3
Fore
SplineSet
720 1320 m 1
 1097 994 1135 645 1135 517 c 0
 1135 222 891 -15 591 -15 c 0
 291 -15 47 222 47 517 c 0
 47 812 291 1050 591 1050 c 0
 665 1050 734 1036 797 1012 c 1
 737 1094 662 1171 581 1238 c 1
 262 1053 l 1
 184 1184 l 1
 444 1337 l 1
 338 1401 248 1435 161 1461 c 1
 208 1610 l 1
 342 1570 459 1518 591 1426 c 1
 912 1612 l 1
 989 1478 l 1
 720 1320 l 1
589 893 m 0
 374 893 199 724 199 515 c 0
 199 307 374 137 589 137 c 0
 803 137 976 307 976 515 c 0
 975 744 790 893 589 893 c 0
EndSplineSet
Validated: 1
Layer: 2
SplineSet
720 1320 m 1,0,1
 827 1227 827 1227 907.5 1123 c 128,-1,2
 988 1019 988 1019 1030 934 c 128,-1,3
 1072 849 1072 849 1097 760.5 c 128,-1,4
 1122 672 1122 672 1128.5 619 c 128,-1,5
 1135 566 1135 566 1135 517 c 0,6,7
 1135 372 1135 372 1062 249.5 c 128,-1,8
 989 127 989 127 864 56 c 128,-1,9
 739 -15 739 -15 591 -15 c 128,-1,10
 443 -15 443 -15 318 56 c 128,-1,11
 193 127 193 127 120 249.5 c 128,-1,12
 47 372 47 372 47 517 c 128,-1,13
 47 662 47 662 120 785 c 128,-1,14
 193 908 193 908 318 979 c 128,-1,15
 443 1050 443 1050 591 1050 c 0,16,17
 697 1050 697 1050 797 1012 c 1,18,19
 709 1132 709 1132 581 1238 c 1,20,-1
 262 1053 l 1,21,-1
 184 1184 l 1,22,-1
 444 1337 l 1,23,24
 315 1415 315 1415 161 1461 c 1,25,-1
 208 1610 l 1,26,27
 416 1548 416 1548 591 1426 c 1,28,-1
 912 1612 l 1,29,-1
 989 1478 l 1,30,-1
 720 1320 l 1,0,1
589 893 m 0,31,32
 428 893 428 893 313.5 782.5 c 128,-1,33
 199 672 199 672 199 515 c 0,34,35
 199 359 199 359 313.5 248 c 128,-1,36
 428 137 428 137 589 137 c 0,37,38
 749 137 749 137 862.5 248 c 128,-1,39
 976 359 976 359 976 515 c 0,40,41
 975 681 975 681 860.5 787 c 128,-1,42
 746 893 746 893 589 893 c 0,31,32
EndSplineSet
EndChar

StartChar: multiply
Encoding: 215 215 159
Width: 1143
VWidth: 2982
Flags: W
DStem2: 252 1179 25 1179 0.709951 -0.704251<0 456.083 618.776 1064.26> 40 314 267 314 0.702151 0.712028<159.388 600.632 762.282 1214.84>
LayerCount: 3
Fore
SplineSet
1124 314 m 1
 893 314 l 1
 577 628 l 1
 267 314 l 1
 40 314 l 1
 463 743 l 1
 25 1179 l 1
 252 1179 l 1
 575 857 l 1
 893 1179 l 1
 1119 1179 l 1
 690 743 l 1
 1124 314 l 1
EndSplineSet
Validated: 1
Layer: 2
SplineSet
1124 314 m 1,0,-1
 893 314 l 1,1,-1
 577 628 l 1,2,-1
 267 314 l 1,3,-1
 40 314 l 1,4,-1
 463 743 l 1,5,-1
 25 1179 l 1,6,-1
 252 1179 l 1,7,-1
 575 857 l 1,8,-1
 893 1179 l 1,9,-1
 1119 1179 l 1,10,-1
 690 743 l 1,11,-1
 1124 314 l 1,0,-1
EndSplineSet
EndChar

StartChar: copyright
Encoding: 169 169 160
Width: 1765
VWidth: 2982
Flags: W
HStem: -15 154<656.876 1110.34> 295 155<752.03 1010.7> 1036 155<752.03 1011.25> 1354 152<656.876 1110.34>
VStem: 114 157<521.195 969.863> 472 156<581.829 905.01> 1497 157<521.195 969.863>
LayerCount: 3
Fore
SplineSet
1654 745 m 0
 1654 325 1307 -15 884 -15 c 0
 459 -15 114 325 114 745 c 0
 114 1166 459 1506 884 1506 c 0
 1307 1506 1654 1166 1654 745 c 0
271 745 m 0
 271 412 544 139 884 139 c 0
 1222 139 1497 412 1497 745 c 0
 1497 1081 1222 1354 884 1354 c 0
 544 1354 271 1081 271 745 c 0
1110 615 m 1
 1245 540 l 1
 1204 463 1100 295 880 295 c 0
 647 295 472 504 472 743 c 0
 472 985 647 1191 880 1191 c 0
 1100 1191 1204 1025 1245 947 c 1
 1110 871 l 1
 1081 922 1019 1036 880 1036 c 0
 750 1036 628 914 628 743 c 0
 628 573 750 450 880 450 c 0
 1023 450 1085 571 1110 615 c 1
EndSplineSet
Validated: 1
Layer: 2
SplineSet
1654 745 m 128,-1,1
 1654 590 1654 590 1592.5 449.5 c 128,-1,2
 1531 309 1531 309 1428 207 c 128,-1,3
 1325 105 1325 105 1182.5 45 c 128,-1,4
 1040 -15 1040 -15 884 -15 c 0,5,6
 727 -15 727 -15 584.5 45 c 128,-1,7
 442 105 442 105 339 207 c 128,-1,8
 236 309 236 309 175 449.5 c 128,-1,9
 114 590 114 590 114 745 c 128,-1,10
 114 900 114 900 175 1041 c 128,-1,11
 236 1182 236 1182 339 1284 c 128,-1,12
 442 1386 442 1386 584.5 1446 c 128,-1,13
 727 1506 727 1506 884 1506 c 0,14,15
 1040 1506 1040 1506 1182.5 1446 c 128,-1,16
 1325 1386 1325 1386 1428 1284 c 128,-1,17
 1531 1182 1531 1182 1592.5 1041 c 128,-1,0
 1654 900 1654 900 1654 745 c 128,-1,1
271 745 m 0,18,19
 271 622 271 622 319.5 510 c 128,-1,20
 368 398 368 398 449.5 316.5 c 128,-1,21
 531 235 531 235 645 187 c 128,-1,22
 759 139 759 139 884 139 c 0,23,24
 1008 139 1008 139 1122 187 c 128,-1,25
 1236 235 1236 235 1318 316.5 c 128,-1,26
 1400 398 1400 398 1448.5 510 c 128,-1,27
 1497 622 1497 622 1497 745 c 0,28,29
 1497 869 1497 869 1448.5 981.5 c 128,-1,30
 1400 1094 1400 1094 1317.5 1175.5 c 128,-1,31
 1235 1257 1235 1257 1122 1305.5 c 128,-1,32
 1009 1354 1009 1354 884 1354 c 128,-1,33
 759 1354 759 1354 645.5 1305.5 c 128,-1,34
 532 1257 532 1257 450 1175.5 c 128,-1,35
 368 1094 368 1094 319.5 981.5 c 128,-1,36
 271 869 271 869 271 745 c 0,18,19
1110 615 m 1,37,-1
 1245 540 l 1,38,39
 1115 295 1115 295 880 295 c 0,40,41
 766 295 766 295 671.5 357 c 128,-1,42
 577 419 577 419 524.5 521.5 c 128,-1,43
 472 624 472 624 472 743 c 0,44,45
 472 863 472 863 525 965.5 c 128,-1,46
 578 1068 578 1068 672 1129.5 c 128,-1,47
 766 1191 766 1191 880 1191 c 0,48,49
 1117 1191 1117 1191 1245 947 c 1,50,-1
 1110 871 l 1,51,52
 1096 896 1096 896 1088 909 c 128,-1,53
 1080 922 1080 922 1057 950 c 128,-1,54
 1034 978 1034 978 1012 993.5 c 128,-1,55
 990 1009 990 1009 955 1022.5 c 128,-1,56
 920 1036 920 1036 880 1036 c 0,57,58
 779 1036 779 1036 703.5 952 c 128,-1,59
 628 868 628 868 628 743 c 0,60,61
 628 619 628 619 704 534.5 c 128,-1,62
 780 450 780 450 880 450 c 0,63,64
 921 450 921 450 957.5 464.5 c 128,-1,65
 994 479 994 479 1015 494 c 128,-1,66
 1036 509 1036 509 1060 539.5 c 128,-1,67
 1084 570 1084 570 1089.5 579.5 c 128,-1,68
 1095 589 1095 589 1110 615 c 1,37,-1
EndSplineSet
EndChar

